<?xml version="1.0" encoding="UTF-8"?> <svg xmlns="http://www.w3.org/2000/svg" width="113" height="54" viewBox="0 0 113 54" fill="none"><g id="Group 1478"><g id="Group"><g id="Group_2"><path id="Vector" d="M81.6061 46.2489C81.5496 46.2489 81.5034 46.2027 81.5034 46.1462C81.5034 38.9336 87.3719 33.0651 94.5845 33.0651C94.641 33.0651 94.6872 33.1114 94.6872 33.1679C94.6872 33.2244 94.641 33.2706 94.5845 33.2706C87.4849 33.2706 81.7089 39.0467 81.7089 46.1462C81.7089 46.2027 81.6627 46.2489 81.6061 46.2489Z" fill="#171B65"></path><path id="Vector_2" d="M34.1659 46.2489C34.1094 46.2489 34.0632 46.2027 34.0632 46.1462C34.0632 39.0467 28.2872 33.2706 21.1876 33.2706C21.1311 33.2706 21.0849 33.2244 21.0849 33.1679C21.0849 33.1114 21.1311 33.0651 21.1876 33.0651C28.4002 33.0651 34.2687 38.9336 34.2687 46.1462C34.2687 46.2027 34.2225 46.2489 34.1659 46.2489Z" fill="#171B65"></path><g id="Group_3"><path id="Vector_3" d="M20.454 53.9999C16.1196 53.9999 12.5961 50.4774 12.5961 46.1461C12.5961 41.8149 16.1196 38.2924 20.4498 38.2924C25.8189 38.5051 28.2625 42.5116 28.2625 46.1451C28.2625 49.7786 25.8189 53.7862 20.454 53.9989V53.9999ZM20.4457 38.4979C16.2327 38.4979 12.8016 41.929 12.8016 46.1461C12.8016 50.3633 16.2327 53.7944 20.4498 53.7944C24.1121 53.6485 28.057 51.1936 28.057 46.1461C28.057 42.6082 25.6751 38.7054 20.4457 38.4979Z" fill="#171B65"></path><path id="Vector_4" d="M20.5947 48.1058C19.4079 48.1058 18.442 47.1399 18.442 45.9531C18.442 44.7662 19.4079 43.8003 20.5947 43.8003C21.7816 43.8003 22.7475 44.7662 22.7475 45.9531C22.7475 47.1399 21.7816 48.1058 20.5947 48.1058ZM20.5947 44.0058C19.5209 44.0058 18.6475 44.8793 18.6475 45.9531C18.6475 47.0269 19.5209 47.9003 20.5947 47.9003C21.6686 47.9003 22.542 47.0269 22.542 45.9531C22.542 44.8793 21.6686 44.0058 20.5947 44.0058Z" fill="#171B65"></path></g><g id="Group_4"><path id="Vector_5" d="M94.6635 53.9999C90.3292 53.9999 86.8057 50.4774 86.8057 46.1461C86.8057 41.8149 90.3292 38.2924 94.6594 38.2924C100.029 38.5051 102.472 42.5116 102.472 46.1451C102.472 49.7786 100.029 53.7862 94.6635 53.9989V53.9999ZM94.6553 38.4979C90.4423 38.4979 87.0112 41.929 87.0112 46.1461C87.0112 50.3633 90.4423 53.7944 94.6594 53.7944C98.3217 53.6485 102.267 51.1936 102.267 46.1461C102.267 42.6082 99.8847 38.7054 94.6553 38.4979Z" fill="#171B65"></path><path id="Vector_6" d="M94.8044 48.1058C93.6175 48.1058 92.6516 47.1399 92.6516 45.9531C92.6516 44.7662 93.6175 43.8003 94.8044 43.8003C95.9912 43.8003 96.9571 44.7662 96.9571 45.9531C96.9571 47.1399 95.9912 48.1058 94.8044 48.1058ZM94.8044 44.0058C93.7305 44.0058 92.8571 44.8793 92.8571 45.9531C92.8571 47.0269 93.7305 47.9003 94.8044 47.9003C95.8782 47.9003 96.7516 47.0269 96.7516 45.9531C96.7516 44.8793 95.8782 44.0058 94.8044 44.0058Z" fill="#171B65"></path></g><path id="Vector_7" d="M73.0012 29.0525H101.151L95.1332 15.0846H73.0012V29.0525Z" fill="#A5F0BD"></path><path id="Vector_8" d="M71.3889 29.0525H39.1518C37.8252 29.0525 37.1932 27.4186 38.1756 26.5267L50.7613 15.0856H71.39V29.0525H71.3889Z" fill="#A5F0BD"></path><path id="Vector_9" d="M106.716 48.9854H104.22C104.188 48.9854 104.157 48.97 104.138 48.9443C104.118 48.9186 104.112 48.8857 104.121 48.8539C104.38 47.9383 104.507 46.9878 104.495 46.027C104.466 43.4406 103.434 40.998 101.592 39.1525C99.7491 37.306 97.3096 36.2691 94.7222 36.2342C92.0484 36.1972 89.5257 37.2114 87.6227 39.0888C85.7196 40.9662 84.6714 43.4725 84.6714 46.1462C84.6714 47.0659 84.7978 47.9774 85.0465 48.8549C85.0558 48.8857 85.0486 48.9196 85.0301 48.9453C85.0105 48.971 84.9807 48.9864 84.9479 48.9864H30.0865C30.0546 48.9864 30.0238 48.971 30.0043 48.9453C29.9848 48.9196 29.9786 48.8868 29.9878 48.8549C30.2468 47.9404 30.3732 46.9888 30.3619 46.028C30.3321 43.4416 29.3004 40.9991 27.458 39.1535C25.6155 37.307 23.176 36.2702 20.5886 36.2352C17.9107 36.1982 15.3921 37.2125 13.4891 39.0898C11.586 40.9672 10.5378 43.4735 10.5378 46.1472C10.5378 47.068 10.6642 47.9784 10.9129 48.8559C10.9222 48.8868 10.915 48.9207 10.8965 48.9464C10.877 48.9721 10.8471 48.9875 10.8143 48.9875H3.88531C2.39738 48.9875 1.18689 47.777 1.18689 46.289V30.4048C1.18689 30.3554 1.22183 30.3133 1.27012 30.3041L31.6669 24.5095L43.9228 14.3745C46.8001 12.4211 50.1489 11.3915 53.617 11.3915H96.2933C98.1759 11.3915 99.8477 12.5187 100.553 14.2646L111.637 41.6958C112.299 43.3337 112.105 45.1854 111.116 46.6508C110.129 48.1151 108.484 48.9895 106.717 48.9895L106.716 48.9854ZM104.356 48.7799H106.716C108.415 48.7799 109.995 47.9393 110.945 46.5316C111.894 45.1238 112.081 43.343 111.445 41.7687L100.361 14.3375C99.6874 12.6708 98.0896 11.5939 96.2923 11.5939H53.616C50.19 11.5939 46.8802 12.6112 44.0451 14.5359L31.7769 24.6811C31.7635 24.6924 31.7471 24.6996 31.7306 24.7027L1.39241 30.487V46.287C1.39241 47.6619 2.51041 48.7799 3.88531 48.7799H10.6786C10.4485 47.925 10.3323 47.0392 10.3323 46.1462C10.3323 43.418 11.402 40.8593 13.3452 38.9429C15.2534 37.0604 17.772 36.0287 20.4488 36.0287C20.4961 36.0287 20.5434 36.0287 20.5906 36.0287C23.2315 36.0646 25.7213 37.122 27.6028 39.0076C29.4833 40.8922 30.5366 43.3851 30.5674 46.025C30.5787 46.9601 30.4616 47.8859 30.2221 48.7799H84.8122C84.582 47.925 84.4659 47.0392 84.4659 46.1462C84.4659 43.418 85.5356 40.8593 87.4788 38.9429C89.387 37.0604 91.9056 36.0287 94.5824 36.0287C94.6297 36.0287 94.677 36.0287 94.7242 36.0287C97.3651 36.0646 99.8549 37.122 101.736 39.0076C103.617 40.8922 104.67 43.3851 104.701 46.025C104.712 46.9601 104.596 47.8859 104.356 48.7799Z" fill="#171B65"></path><path id="Vector_10" d="M100.794 31.794H73.0012C72.9447 31.794 72.8985 31.7477 72.8985 31.6912C72.8985 31.6347 72.9447 31.5884 73.0012 31.5884H100.794C100.851 31.5884 100.897 31.6347 100.897 31.6912C100.897 31.7477 100.851 31.794 100.794 31.794Z" fill="#171B65"></path><path id="Vector_11" d="M71.3889 31.794H35.2675C35.211 31.794 35.1647 31.7477 35.1647 31.6912C35.1647 31.6347 35.211 31.5884 35.2675 31.5884H71.3899C71.4465 31.5884 71.4927 31.6347 71.4927 31.6912C71.4927 31.7477 71.4465 31.794 71.3899 31.794H71.3889Z" fill="#171B65"></path><path id="Vector_12" d="M72.3467 46.4061C72.2901 46.4061 72.2439 46.3598 72.2439 46.3033V33.2665C72.2439 33.2099 72.2901 33.1637 72.3467 33.1637C72.4032 33.1637 72.4494 33.2099 72.4494 33.2665V46.3033C72.4494 46.3598 72.4032 46.4061 72.3467 46.4061Z" fill="#171B65"></path></g><path id="Vector_13" d="M4.15451 33.3386H1.28746e-05C1.28746e-05 31.046 1.86198 29.1841 4.15451 29.1841L4.15451 33.3386Z" fill="#A5F0BD"></path><path id="Vector_14" d="M88.6933 10.2867L60.8357 10.2867C59.9252 10.2867 59.1854 9.54791 59.1854 8.63645V5.42219C59.1854 2.71041 61.3864 0.509338 64.0982 0.509338L85.4307 0.509338C88.1425 0.509338 90.3436 2.71041 90.3436 5.42219V8.63645C90.3436 9.54689 89.6048 10.2867 88.6933 10.2867Z" fill="#A5F0BD"></path><g id="Group_5"><g id="Group_6"><path id="Vector_15" d="M80.4953 11.5702C80.4388 11.5702 80.3925 11.524 80.3925 11.4675V9.736C80.3925 9.67948 80.4388 9.63324 80.4953 9.63324C80.5518 9.63324 80.5981 9.67948 80.5981 9.736V11.4675C80.5981 11.524 80.5518 11.5702 80.4953 11.5702Z" fill="#171B65"></path><path id="Vector_16" d="M67.6372 11.5702C67.5807 11.5702 67.5345 11.524 67.5345 11.4675V9.736C67.5345 9.67948 67.5807 9.63324 67.6372 9.63324C67.6938 9.63324 67.74 9.67948 67.74 9.736V11.4675C67.74 11.524 67.6938 11.5702 67.6372 11.5702Z" fill="#171B65"></path></g><g id="Group_7"><path id="Vector_17" d="M81.8918 11.5702C81.8353 11.5702 81.7891 11.524 81.7891 11.4675V9.736C81.7891 9.67948 81.8353 9.63324 81.8918 9.63324C81.9483 9.63324 81.9946 9.67948 81.9946 9.736V11.4675C81.9946 11.524 81.9483 11.5702 81.8918 11.5702Z" fill="#171B65"></path><path id="Vector_18" d="M69.0337 11.5702C68.9772 11.5702 68.9309 11.524 68.9309 11.4675V9.736C68.9309 9.67948 68.9772 9.63324 69.0337 9.63324C69.0902 9.63324 69.1365 9.67948 69.1365 9.736V11.4675C69.1365 11.524 69.0902 11.5702 69.0337 11.5702Z" fill="#171B65"></path></g></g><path id="Vector_19" d="M82.6614 4.80165H66.8676C66.811 4.80165 66.7648 4.7554 66.7648 4.69889C66.7648 4.64237 66.811 4.59613 66.8676 4.59613H82.6614C82.718 4.59613 82.7642 4.64237 82.7642 4.69889C82.7642 4.7554 82.718 4.80165 82.6614 4.80165Z" fill="#171B65"></path><path id="Vector_20" d="M85.3475 6.84339H64.1815C64.125 6.84339 64.0787 6.79715 64.0787 6.74064C64.0787 6.68412 64.125 6.63788 64.1815 6.63788H85.3475C85.4041 6.63788 85.4503 6.68412 85.4503 6.74064C85.4503 6.79715 85.4041 6.84339 85.3475 6.84339Z" fill="#171B65"></path></g></g></svg> 