<?xml version="1.0" encoding="UTF-8" standalone="no"?> <svg xmlns:inkscape="http://www.inkscape.org/namespaces/inkscape" xmlns:sodipodi="http://sodipodi.sourceforge.net/DTD/sodipodi-0.dtd" xmlns="http://www.w3.org/2000/svg" xmlns:svg="http://www.w3.org/2000/svg" width="51.788399" height="62.54599" viewBox="0 0 51.788399 62.54599" fill="none" version="1.1" id="svg1451" sodipodi:docname="tutuca.svg" inkscape:version="1.2.2 (732a01da63, 2022-12-09, custom)"><defs id="defs1455"></defs><g id="Capa 1" transform="translate(0,-1.14441e-5)"><g id="Group"><g id="Group_2"><g id="Group_3"><path id="Vector" d="M 8.02492,4.3278 H 45.4349 c 1.1174,0 2.0256,0.90715 2.0256,2.02563 V 60.4079 c 0,1.1174 -0.9071,2.0257 -2.0256,2.0257 H 2.13802 c -1.11735,0 -2.025624,-0.9072 -2.025624,-2.0257 V 12.2392 c 0,-4.36711 3.545404,-7.91252 7.912524,-7.91252 z" fill="#ffffff"></path><path id="Vector_2" d="M 45.4349,62.5448 H 2.13803 C 0.958856,62.5448 0,61.586 0,60.4068 V 12.2392 C 0,7.81474 3.59936,4.21537 8.02494,4.21537 H 45.4349 c 1.1792,0 2.1381,0.95886 2.1381,2.13804 V 60.4079 c 0,1.1792 -0.9589,2.1381 -2.1381,2.1381 z M 8.02494,4.44019 c -4.3008,0 -7.80012,3.4982 -7.80012,7.79901 v 48.1676 c 0,1.0544 0.85769,1.9132 1.91321,1.9132 H 45.4349 c 1.0544,0 1.9132,-0.8577 1.9132,-1.9132 V 6.35341 c 0,-1.05441 -0.8576,-1.91322 -1.9132,-1.91322 z" fill="#171b65"></path></g><g id="Group_4"><path id="Vector_3" d="m 12.2392,0.112419 h 37.4111 c 1.1173,0 2.0256,0.907151 2.0256,2.025621 V 56.1926 c 0,1.1173 -0.9071,2.0256 -2.0256,2.0256 H 6.35338 c -1.11735,0 -2.02562,-0.9072 -2.02562,-2.0256 V 8.02495 c 0,-4.36712 3.5454,-7.912531 7.91144,-7.912531 z" fill="#ffffff"></path><path id="Vector_4" d="M 49.6503,58.3306 H 6.35343 c -1.17918,0 -2.13804,-0.9589 -2.13804,-2.138 V 8.02495 C 4.21539,3.59937 7.81476,1.14441e-5 12.2392,1.14441e-5 h 37.4111 c 1.1792,0 2.1381,0.9588555559 2.1381,2.1380385559 V 56.1926 c 0,1.1791 -0.9589,2.138 -2.1381,2.138 z M 12.2392,0.224831 c -4.30079,0 -7.80011,3.499319 -7.80011,7.800119 V 56.1926 c 0,1.0544 0.85769,1.9132 1.91321,1.9132 h 43.298 c 1.0544,0 1.9132,-0.8577 1.9132,-1.9132 V 2.13805 c 0,-1.05441 -0.8577,-1.913219 -1.9132,-1.913219 z" fill="#171b65"></path></g></g><path id="Vector_5" d="M 22.1448,5.78575 H 8.8804 v 2.81024 h 13.2644 z" fill="#a5f0bd"></path><path id="Vector_6" d="M 41.4556,12.3617 H 8.88038 c -0.06182,0 -0.11241,-0.0506 -0.11241,-0.1124 0,-0.0618 0.05059,-0.1124 0.11241,-0.1124 H 41.4556 c 0.0619,0 0.1124,0.0506 0.1124,0.1124 0,0.0618 -0.0505,0.1124 -0.1124,0.1124 z" fill="#171b65"></path><path id="Vector_7" d="M 47.3245,16.015 H 8.88038 c -0.06182,0 -0.11241,-0.0505 -0.11241,-0.1124 0,-0.0618 0.05059,-0.1124 0.11241,-0.1124 H 47.3245 c 0.0619,0 0.1125,0.0506 0.1125,0.1124 0,0.0619 -0.0506,0.1124 -0.1125,0.1124 z" fill="#171b65"></path><path id="Vector_8" d="M 47.3245,19.6684 H 8.88038 c -0.06182,0 -0.11241,-0.0506 -0.11241,-0.1124 0,-0.0619 0.05059,-0.1125 0.11241,-0.1125 H 47.3245 c 0.0619,0 0.1125,0.0506 0.1125,0.1125 0,0.0618 -0.0506,0.1124 -0.1125,0.1124 z" fill="#171b65"></path><path id="Vector_9" d="M 47.3245,23.3217 H 8.88038 c -0.06182,0 -0.11241,-0.0506 -0.11241,-0.1124 0,-0.0619 0.05059,-0.1125 0.11241,-0.1125 H 47.3245 c 0.0619,0 0.1125,0.0506 0.1125,0.1125 0,0.0618 -0.0506,0.1124 -0.1125,0.1124 z" fill="#171b65"></path><path id="Vector_10" d="M 47.3245,26.975 H 8.88038 c -0.06182,0 -0.11241,-0.0506 -0.11241,-0.1124 0,-0.0618 0.05059,-0.1124 0.11241,-0.1124 H 47.3245 c 0.0619,0 0.1125,0.0506 0.1125,0.1124 0,0.0618 -0.0506,0.1124 -0.1125,0.1124 z" fill="#171b65"></path><path id="Vector_11" d="M 47.3245,30.6283 H 8.88038 c -0.06182,0 -0.11241,-0.0506 -0.11241,-0.1124 0,-0.0618 0.05059,-0.1124 0.11241,-0.1124 H 47.3245 c 0.0619,0 0.1125,0.0506 0.1125,0.1124 0,0.0618 -0.0506,0.1124 -0.1125,0.1124 z" fill="#171b65"></path><path id="Vector_12" d="m 13.7691,53.769 c -0.1113,0 -0.2181,-0.0281 -0.3091,-0.0742 -0.2395,-0.1225 -0.4373,-0.408 -0.3406,-0.77 0.7554,-2.8248 2.4505,-5.3833 4.7302,-7.1852 0.0809,-0.3485 0.1506,-0.6981 0.2113,-1.0511 0.0596,-0.3518 0.2136,-1.5523 -0.3237,-2.2324 -0.2046,-0.2586 -0.489,-0.4013 -0.8442,-0.4238 -0.3654,-0.0225 -0.7341,0.0967 -1.0387,0.3361 -2.3179,1.8278 -4.2907,4.0243 -5.86104,6.5277 -0.0326,0.0528 -0.10229,0.0685 -0.15512,0.0359 -0.05284,-0.0326 -0.06857,-0.1023 -0.03598,-0.1551 1.58494,-2.5259 3.57464,-4.7415 5.91274,-6.585 0.3485,-0.2743 0.7712,-0.4114 1.1916,-0.3844 0.4215,0.027 0.7599,0.1978 1.006,0.5081 0.5958,0.752 0.4328,2.0346 0.3687,2.41 -0.046,0.2676 -0.0966,0.534 -0.154,0.7993 0.2473,-0.1855 0.5014,-0.3609 0.7611,-0.5283 0.2551,-0.1642 0.5766,-0.1709 0.8374,-0.018 0.263,0.1551 0.4148,0.4406 0.3957,0.7475 -0.0236,0.3653 -0.0742,0.7273 -0.1518,1.0825 0.3687,-0.3181 0.7284,-0.5519 1.0376,-0.6554 0.3912,-0.1315 0.6171,-0.0236 0.7374,0.09 0.181,0.1697 0.172,0.4417 0.0967,0.7318 0.1281,-0.1136 0.2731,-0.208 0.4305,-0.2811 0.0371,-0.0168 0.0809,-0.0123 0.1146,0.0113 0.0326,0.0247 0.0506,0.0652 0.0439,0.1056 l -0.0888,0.6206 0.6227,-0.5284 c 0.0382,-0.0326 0.0945,-0.0359 0.136,-0.0067 0.0416,0.0281 0.0596,0.0809 0.0439,0.1292 -0.1484,0.4384 0.0281,0.9657 0.408,1.2276 0.3811,0.2619 0.9364,0.236 1.2916,-0.0585 0.0484,-0.0393 0.1192,-0.0326 0.1585,0.0146 0.0394,0.0484 0.0326,0.1192 -0.0146,0.1585 -0.4305,0.3575 -1.1016,0.3878 -1.5625,0.0708 -0.3687,-0.254 -0.5789,-0.7138 -0.5553,-1.1589 l -0.6081,0.5148 c -0.036,0.0304 -0.0866,0.0349 -0.1271,0.0124 -0.0404,-0.0225 -0.064,-0.0686 -0.0573,-0.1147 l 0.0989,-0.6902 c -0.2754,0.1799 -0.4968,0.4497 -0.6182,0.7543 -0.0202,0.0551 -0.0382,0.1068 -0.0517,0.1518 -0.0045,0.0157 -0.0079,0.0303 -0.0124,0.0461 -0.0146,0.0595 -0.0753,0.0966 -0.136,0.082 -0.0596,-0.0146 -0.0967,-0.0753 -0.0832,-0.1349 0.0045,-0.0168 0.009,-0.0348 0.0135,-0.0528 0.018,-0.0663 0.0405,-0.1304 0.0663,-0.1934 0.0214,-0.0573 0.0461,-0.118 0.072,-0.1821 0.1495,-0.3743 0.3552,-0.8869 0.1641,-1.0667 -0.1102,-0.1034 -0.2822,-0.1169 -0.5115,-0.0405 -0.3507,0.118 -0.7779,0.4227 -1.2061,0.8352 -0.3564,1.2871 -1.0612,2.4663 -2.0324,3.3599 -0.0349,0.0326 -0.0877,0.0394 -0.1293,0.0158 -0.0427,-0.0225 -0.0652,-0.0697 -0.0573,-0.1181 0.1877,-1.1117 1.0915,-2.473 2.0189,-3.3779 0.1191,-0.4462 0.1956,-0.906 0.2248,-1.3702 0.0146,-0.2249 -0.0922,-0.4261 -0.2844,-0.5396 -0.19,-0.1124 -0.4159,-0.1068 -0.6025,0.0124 -0.3305,0.2124 -0.6498,0.4395 -0.9589,0.6812 -0.6565,2.7866 -1.948,5.4125 -3.7736,7.6539 -0.1439,0.1765 -0.3293,0.2473 -0.5069,0.2473 z m 3.9928,-7.6708 c -2.1279,1.7603 -3.7084,4.1996 -4.4256,6.8839 -0.0685,0.2575 0.0787,0.4362 0.226,0.5115 0.145,0.0742 0.3732,0.0888 0.5395,-0.1146 1.7424,-2.1392 2.9924,-4.6325 3.6601,-7.2808 z m 1.7637,1.4602 c -0.6812,0.7486 -1.3096,1.7187 -1.5636,2.5697 0.6992,-0.724 1.2331,-1.6086 1.5636,-2.5697 z" fill="#62c283"></path></g></g></svg> 