<?xml version="1.0" encoding="UTF-8"?> <svg xmlns="http://www.w3.org/2000/svg" width="87" height="50" viewBox="0 0 87 50" fill="none"><g id="Group"><path id="Vector" d="M25.3629 4.30524H76.9288C78.1265 4.30524 79.13 5.24398 79.2271 6.47405L80.1658 22.1736C80.2306 23.5008 79.1947 24.6014 77.8675 24.6014H21.2195C19.7305 24.6014 18.6299 23.1771 19.0183 21.7205L23.1617 6.02086C23.4207 4.98501 24.327 4.30524 25.3629 4.30524Z" fill="#A5F0BD"></path><path id="Vector_2" d="M53.3956 0H75.7311C76.1843 0 76.5727 0.356073 76.5727 0.841628V4.30525H50.288L52.1655 0.744517C52.4245 0.291333 52.8777 0 53.3956 0Z" fill="#2F3AE9"></path><path id="Vector_3" d="M76.5404 49.3H17.6264C15.4899 49.3 13.5153 48.167 12.3824 46.2572L0.470106 26.5113C-0.792337 24.3748 0.631957 21.6234 3.02736 21.6234H84.9243C85.6688 21.6234 86.1867 22.3679 85.9925 23.1124L79.3242 47.1312C78.9358 48.426 77.8352 49.3 76.5404 49.3Z" fill="#171669"></path><g id="Group_2"><g id="Group_3"><path id="Vector_4" d="M27.1109 15.732C28.6305 15.732 29.8624 14.5001 29.8624 12.9805C29.8624 11.4609 28.6305 10.229 27.1109 10.229C25.5913 10.229 24.3594 11.4609 24.3594 12.9805C24.3594 14.5001 25.5913 15.732 27.1109 15.732Z" fill="#F2F2F2"></path><path id="Vector_5" d="M27.1109 15.8291C25.5247 15.8291 24.2299 14.5342 24.2299 12.9481C24.2299 11.362 25.5247 10.0671 27.1109 10.0671C28.697 10.0671 29.9918 11.362 29.9918 12.9481C29.9918 14.5342 28.697 15.8291 27.1109 15.8291ZM27.1109 10.3585C25.6542 10.3585 24.4889 11.5238 24.4889 12.9805C24.4889 14.4371 25.6542 15.6025 27.1109 15.6025C28.5675 15.6025 29.7329 14.4371 29.7329 12.9805C29.7329 11.5238 28.5675 10.3585 27.1109 10.3585Z" fill="#071669"></path></g><g id="Group_4"><path id="Vector_6" d="M33.6497 15.732C35.1693 15.732 36.4012 14.5001 36.4012 12.9805C36.4012 11.4609 35.1693 10.229 33.6497 10.229C32.1301 10.229 30.8982 11.4609 30.8982 12.9805C30.8982 14.5001 32.1301 15.732 33.6497 15.732Z" fill="#F2F2F2"></path><path id="Vector_7" d="M33.6497 15.8291C32.0636 15.8291 30.7687 14.5342 30.7687 12.9481C30.7687 11.362 32.0636 10.0671 33.6497 10.0671C35.2358 10.0671 36.5307 11.362 36.5307 12.9481C36.5307 14.5342 35.2358 15.8291 33.6497 15.8291ZM33.6497 10.3585C32.193 10.3585 31.0277 11.5238 31.0277 12.9805C31.0277 14.4371 32.193 15.6025 33.6497 15.6025C35.1064 15.6025 36.2717 14.4371 36.2717 12.9805C36.2717 11.5238 35.1064 10.3585 33.6497 10.3585Z" fill="#071669"></path></g><g id="Group_5"><path id="Vector_8" d="M40.4151 15.732C41.9347 15.732 43.1666 14.5001 43.1666 12.9805C43.1666 11.4609 41.9347 10.229 40.4151 10.229C38.8955 10.229 37.6636 11.4609 37.6636 12.9805C37.6636 14.5001 38.8955 15.732 40.4151 15.732Z" fill="#F2F2F2"></path><path id="Vector_9" d="M40.4151 15.8291C38.8289 15.8291 37.5341 14.5342 37.5341 12.9481C37.5341 11.362 38.8289 10.0671 40.4151 10.0671C42.0012 10.0671 43.296 11.362 43.296 12.9481C43.296 14.5342 42.0012 15.8291 40.4151 15.8291ZM40.4151 10.3585C38.9584 10.3585 37.7931 11.5238 37.7931 12.9805C37.7931 14.4371 38.9584 15.6025 40.4151 15.6025C41.8717 15.6025 43.0371 14.4371 43.0371 12.9805C43.0371 11.5238 41.8717 10.3585 40.4151 10.3585Z" fill="#071669"></path></g><g id="Group_6"><path id="Vector_10" d="M47.1157 15.732C48.6353 15.732 49.8672 14.5001 49.8672 12.9805C49.8672 11.4609 48.6353 10.229 47.1157 10.229C45.5961 10.229 44.3642 11.4609 44.3642 12.9805C44.3642 14.5001 45.5961 15.732 47.1157 15.732Z" fill="#F2F2F2"></path><path id="Vector_11" d="M47.1157 15.8291C45.5296 15.8291 44.2348 14.5342 44.2348 12.9481C44.2348 11.362 45.5296 10.0671 47.1157 10.0671C48.7019 10.0671 49.9967 11.362 49.9967 12.9481C49.9967 14.5342 48.7019 15.8291 47.1157 15.8291ZM47.1157 10.3585C45.6914 10.3585 44.4937 11.5238 44.4937 12.9805C44.4937 14.4371 45.6591 15.6025 47.1157 15.6025C48.5724 15.6025 49.7377 14.4371 49.7377 12.9805C49.7377 11.5238 48.54 10.3585 47.1157 10.3585Z" fill="#071669"></path></g><g id="Group_7"><path id="Vector_12" d="M53.7193 15.732C55.2389 15.732 56.4708 14.5001 56.4708 12.9805C56.4708 11.4609 55.2389 10.229 53.7193 10.229C52.1997 10.229 50.9678 11.4609 50.9678 12.9805C50.9678 14.5001 52.1997 15.732 53.7193 15.732Z" fill="#F2F2F2"></path><path id="Vector_13" d="M53.7193 15.8291C52.1331 15.8291 50.8383 14.5342 50.8383 12.9481C50.8383 11.362 52.1331 10.0671 53.7193 10.0671C55.3054 10.0671 56.6002 11.362 56.6002 12.9481C56.6002 14.5342 55.3054 15.8291 53.7193 15.8291ZM53.7193 10.3585C52.295 10.3585 51.0973 11.5238 51.0973 12.9805C51.0973 14.4371 52.2626 15.6025 53.7193 15.6025C55.1759 15.6025 56.3413 14.4371 56.3413 12.9805C56.3413 11.5238 55.1436 10.3585 53.7193 10.3585Z" fill="#071669"></path></g><g id="Group_8"><path id="Vector_14" d="M60.3876 15.732C61.9072 15.732 63.139 14.5001 63.139 12.9805C63.139 11.4609 61.9072 10.229 60.3876 10.229C58.868 10.229 57.6361 11.4609 57.6361 12.9805C57.6361 14.5001 58.868 15.732 60.3876 15.732Z" fill="#F2F2F2"></path><path id="Vector_15" d="M60.3875 15.8291C58.8014 15.8291 57.5066 14.5342 57.5066 12.9481C57.5066 11.362 58.8014 10.0671 60.3875 10.0671C61.9737 10.0671 63.2685 11.362 63.2685 12.9481C63.2685 14.5342 61.9737 15.8291 60.3875 15.8291ZM60.3875 10.3585C58.9633 10.3585 57.7656 11.5238 57.7656 12.9805C57.7656 14.4371 58.9309 15.6025 60.3875 15.6025C61.8442 15.6025 63.0095 14.4371 63.0095 12.9805C63.0095 11.5238 61.8442 10.3585 60.3875 10.3585Z" fill="#071669"></path></g><g id="Group_9"><path id="Vector_16" d="M67.1206 15.732C68.6402 15.732 69.8721 14.5001 69.8721 12.9805C69.8721 11.4609 68.6402 10.229 67.1206 10.229C65.601 10.229 64.3691 11.4609 64.3691 12.9805C64.3691 14.5001 65.601 15.732 67.1206 15.732Z" fill="#F2F2F2"></path><path id="Vector_17" d="M67.1206 15.8291C65.5344 15.8291 64.2396 14.5342 64.2396 12.9481C64.2396 11.362 65.5344 10.0671 67.1206 10.0671C68.7067 10.0671 70.0015 11.362 70.0015 12.9481C70.0015 14.5342 68.7067 15.8291 67.1206 15.8291ZM67.1206 10.3585C65.6963 10.3585 64.4986 11.5238 64.4986 12.9805C64.4986 14.4371 65.6639 15.6025 67.1206 15.6025C68.5772 15.6025 69.7426 14.4371 69.7426 12.9805C69.7426 11.5238 68.5449 10.3585 67.1206 10.3585Z" fill="#071669"></path></g><g id="Group_10"><path id="Vector_18" d="M73.7889 15.732C75.3085 15.732 76.5404 14.5001 76.5404 12.9805C76.5404 11.4609 75.3085 10.229 73.7889 10.229C72.2693 10.229 71.0374 11.4609 71.0374 12.9805C71.0374 14.5001 72.2693 15.732 73.7889 15.732Z" fill="#F2F2F2"></path><path id="Vector_19" d="M73.7889 15.8291C72.2027 15.8291 70.9079 14.5342 70.9079 12.9481C70.9079 11.362 72.2027 10.0671 73.7889 10.0671C75.375 10.0671 76.6698 11.362 76.6698 12.9481C76.6698 14.5342 75.4074 15.8291 73.7889 15.8291ZM73.7889 10.3585C72.3646 10.3585 71.1669 11.5238 71.1669 12.9805C71.1669 14.4371 72.3322 15.6025 73.7889 15.6025C75.2456 15.6025 76.4109 14.4371 76.4109 12.9805C76.4109 11.5238 75.2456 10.3585 73.7889 10.3585Z" fill="#071669"></path></g></g><g id="Group_11"><path id="Vector_20" d="M72.5912 20.2962C69.775 20.2962 67.509 22.5621 67.509 25.3783C67.509 28.1946 69.775 30.4605 72.5912 30.4605C75.4074 30.4605 77.6733 28.1946 77.6733 25.3783C77.6733 22.5621 75.4074 20.2962 72.5912 20.2962ZM72.5912 28.7449C70.7461 28.7449 69.2247 27.2558 69.2247 25.4107C69.2247 23.5656 70.7137 22.0766 72.5912 22.0766C74.4686 22.0766 75.9577 23.5656 75.9577 25.4107C75.9577 27.2558 74.4686 28.7449 72.5912 28.7449Z" fill="#2F3AE9"></path><g id="Group_12"><g id="Clip path group"><mask id="mask0_751_2286" style="mask-type:luminance" maskUnits="userSpaceOnUse" x="67" y="20" width="11" height="11"><g id="SVGID_00000094582400957995264980000000021612410093512100_"><path id="Vector_21" d="M72.5912 20.2962C69.775 20.2962 67.509 22.5621 67.509 25.3783C67.509 28.1946 69.775 30.4605 72.5912 30.4605C75.4074 30.4605 77.6733 28.1946 77.6733 25.3783C77.6733 22.5621 75.4074 20.2962 72.5912 20.2962ZM72.5912 28.7449C70.7461 28.7449 69.2247 27.2558 69.2247 25.4107C69.2247 23.5656 70.7137 22.0766 72.5912 22.0766C74.4686 22.0766 75.9577 23.5656 75.9577 25.4107C75.9577 27.2558 74.4686 28.7449 72.5912 28.7449Z" fill="white"></path></g></mask><g mask="url(#mask0_751_2286)"><g id="Group_13"><path id="Vector_22" d="M68.3183 29.5541L66.7321 26.9321L69.9691 25.7991L70.9403 27.2234L68.3183 29.5541Z" fill="#A5F0BD"></path><path id="Vector_23" d="M77.123 21.0407L78.6768 23.6627L75.4397 24.7957L74.501 23.3714L77.123 21.0407Z" fill="#A5F0BD"></path><path id="Vector_24" d="M68.2535 20.8788L70.8755 19.3251L72.0085 22.5621L70.5842 23.5008L68.2535 20.8788Z" fill="#A5F0BD"></path><path id="Vector_25" d="M77.0259 29.6836L74.4039 31.2697L73.2386 28.0327L74.6952 27.0616L77.0259 29.6836Z" fill="#A5F0BD"></path></g></g></g></g></g><path id="Vector_26" d="M81.1369 40.301H9.01587V40.8189H81.1369V40.301Z" fill="#62C283"></path></g></svg> 