<?xml version="1.0" encoding="UTF-8"?> <svg xmlns="http://www.w3.org/2000/svg" width="143" height="72" viewBox="0 0 143 72" fill="none"><g id="Hogar" clip-path="url(#clip0_1214_3492)"><g id="Capa 1"><g id="Group"><g id="Group_2"><g id="Group_3"><g id="Group_4"><path id="Vector" d="M65.0855 36.6077C70.3173 36.6077 74.566 40.8773 74.566 46.1373V71.8068H55.606V46.1373C55.606 40.8784 59.8537 36.6077 65.0865 36.6077H65.0855Z" fill="#A5F0BD"></path><path id="Vector_2" d="M51.4403 44.6845H37.7667V60.6281H51.4403V44.6845Z" stroke="#A5F0BD" stroke-width="0.3" stroke-linecap="round" stroke-linejoin="round"></path><path id="Vector_3" d="M91.5492 44.6845H77.8757V60.6281H91.5492V44.6845Z" stroke="#A5F0BD" stroke-width="0.3" stroke-linecap="round" stroke-linejoin="round"></path><path id="Vector_4" d="M70.0359 57.8789C70.8416 57.8789 71.4948 57.2223 71.4948 56.4124C71.4948 55.6025 70.8416 54.9459 70.0359 54.9459C69.2301 54.9459 68.5769 55.6025 68.5769 56.4124C68.5769 57.2223 69.2301 57.8789 70.0359 57.8789Z" fill="#62C283"></path><path id="Vector_5" d="M37.7667 57.5124H51.4403" stroke="#A5F0BD" stroke-width="0.3" stroke-linecap="round" stroke-linejoin="round"></path><path id="Vector_6" d="M77.8757 57.5124H91.5482" stroke="#A5F0BD" stroke-width="0.3" stroke-linecap="round" stroke-linejoin="round"></path><path id="Vector_7" d="M7.5794 43.4017V71.6231" stroke="#181B61" stroke-width="0.3" stroke-linecap="round" stroke-linejoin="round"></path><g id="Group_5"><path id="Vector_8" d="M126.547 43.9952C128.298 42.9056 129.492 40.7286 129.492 38.219C129.492 34.6198 127.035 31.7015 124.003 31.7015C120.972 31.7015 118.514 34.6198 118.514 38.219C118.514 40.7286 119.708 42.9056 121.459 43.9952C118.151 44.8019 115.759 47.1383 115.759 49.8961C115.759 53.3221 119.45 56.0989 124.003 56.0989C128.557 56.0989 132.247 53.3221 132.247 49.8961C132.247 47.1383 129.855 44.8019 126.547 43.9952Z" stroke="#A5F0BD" stroke-width="0.3" stroke-linecap="round" stroke-linejoin="round"></path><path id="Vector_9" d="M124.003 56.0989V71.8946" stroke="#A5F0BD" stroke-width="0.3" stroke-linecap="round" stroke-linejoin="round"></path></g><path id="Vector_10" d="M70.4864 8.16569C69.7343 7.8479 68.7869 8.0844 68.2691 8.71893C68.2974 7.78033 67.5191 6.93041 66.6053 6.73403C65.6915 6.53765 64.7157 6.91774 64.0456 7.57128C63.4248 8.17731 63.0414 8.99027 62.8209 9.83279H71.6512C71.6029 9.12224 71.1429 8.44337 70.4864 8.16569Z" stroke="#A5F0BD" stroke-width="0.3" stroke-linecap="round" stroke-linejoin="round"></path><path id="Vector_11" d="M27.8577 3.38816C27.2327 1.48351 25.3053 0.0919661 23.3096 0.105691C21.3139 0.119417 19.4054 1.53629 18.8057 3.4494C16.7365 2.55514 14.1442 3.12949 12.6022 5.04259H30.0445C29.805 3.896 28.8009 3.19601 27.8577 3.38816Z" stroke="#A5F0BD" stroke-width="0.3" stroke-linecap="round" stroke-linejoin="round"></path><path id="Vector_12" d="M34.4591 23.4261H11.0435L0.105036 43.4017H7.57939H34.3793" stroke="#62C283" stroke-width="0.3" stroke-linecap="round" stroke-linejoin="round"></path><path id="Vector_13" d="M9.87234 71.8058V46.7H34.3026" stroke="#62C283" stroke-width="0.3" stroke-linecap="round" stroke-linejoin="round"></path><path id="Vector_14" d="M10.0551 48.8992H34.1199" stroke="#62C283" stroke-width="0.3" stroke-linecap="round" stroke-linejoin="round"></path><path id="Vector_15" d="M10.0551 51.0985H34.1199" stroke="#62C283" stroke-width="0.3" stroke-linecap="round" stroke-linejoin="round"></path><path id="Vector_16" d="M10.0551 53.2977H34.1199" stroke="#62C283" stroke-width="0.3" stroke-linecap="round" stroke-linejoin="round"></path><path id="Vector_17" d="M10.0551 55.4959H34.1199" stroke="#62C283" stroke-width="0.3" stroke-linecap="round" stroke-linejoin="round"></path><path id="Vector_18" d="M10.0551 57.6951H34.1199" stroke="#62C283" stroke-width="0.3" stroke-linecap="round" stroke-linejoin="round"></path><path id="Vector_19" d="M10.0551 59.8943H34.1199" stroke="#62C283" stroke-width="0.3" stroke-linecap="round" stroke-linejoin="round"></path><path id="Vector_20" d="M10.0551 62.0936H34.1199" stroke="#62C283" stroke-width="0.3" stroke-linecap="round" stroke-linejoin="round"></path><path id="Vector_21" d="M10.0551 64.2928H34.1199" stroke="#62C283" stroke-width="0.3" stroke-linecap="round" stroke-linejoin="round"></path><path id="Vector_22" d="M10.0551 66.4921H34.1199" stroke="#62C283" stroke-width="0.3" stroke-linecap="round" stroke-linejoin="round"></path><path id="Vector_23" d="M10.0551 68.6913H34.1199" stroke="#62C283" stroke-width="0.3" stroke-linecap="round" stroke-linejoin="round"></path><g id="Group_6"><path id="Vector_24" d="M94.5228 15.0167H34.5642V24.8271H94.5228V15.0167Z" stroke="#181B61" stroke-width="0.3" stroke-linecap="round" stroke-linejoin="round"></path><path id="Vector_25" d="M94.5228 71.8016V24.8271H34.5642V71.8016" stroke="#181B61" stroke-width="0.3" stroke-linecap="round" stroke-linejoin="round"></path><path id="Vector_26" d="M38.6932 20.094H89.5747" stroke="#A5F0BD" stroke-width="0.3" stroke-linecap="round" stroke-linejoin="round"></path></g></g><path id="Vector_27" d="M10.0551 70.8893H34.1199" stroke="#62C283" stroke-width="0.3" stroke-linecap="round" stroke-linejoin="round"></path></g><g id="Group_7"><g id="Group_8"><g id="Group_9"><g id="Group_10"><path id="Vector_28" d="M107.478 71.2229C107.478 71.2166 107.478 71.2103 107.478 71.2029C107.498 69.3236 107.566 67.4559 107.66 65.5903H100.705C100.412 66.6513 99.8629 67.5942 98.7589 68.2773C98.718 68.3016 98.677 68.3269 98.636 68.3512C97.7275 68.8801 96.6992 69.1905 95.8284 69.7818C95.2969 70.1429 94.5964 70.7964 94.4882 71.4732C94.464 71.622 94.4567 71.7382 94.464 71.8279H106.859C107.192 71.8279 107.471 71.564 107.478 71.2293C107.478 71.2261 107.478 71.224 107.478 71.2208V71.2229Z" fill="#62C283"></path><path id="Vector_29" d="M103.341 34.7093C102.842 40.722 100.705 65.5903 100.705 65.5903H107.66L109.338 39.6018V34.7093H103.341Z" fill="#A5F0BD"></path><path id="Vector_30" d="M94.4882 71.0085H107.478" stroke="white" stroke-width="0.3" stroke-linecap="round" stroke-linejoin="round"></path><path id="Vector_31" d="M100.748 65.5998H107.654" stroke="white" stroke-width="0.3" stroke-linecap="round" stroke-linejoin="round"></path><path id="Vector_32" d="M98.9985 64.9209C97.5259 64.9451 98.7842 68.1854 99.0647 68.1421C99.2369 68.1157 100.467 64.8955 98.9985 64.9209Z" stroke="#171B65" stroke-width="0.3" stroke-linecap="round" stroke-linejoin="round"></path><path id="Vector_33" d="M96.7433 65.9165C95.6982 66.9596 98.8955 68.3712 99.0625 68.1411C99.1655 67.9985 97.7391 64.924 96.7433 65.9165Z" stroke="#171B65" stroke-width="0.3" stroke-linecap="round" stroke-linejoin="round"></path></g><g id="Group_11"><path id="Vector_34" d="M111.144 71.2229C111.144 71.2166 111.144 71.2103 111.144 71.2029C111.124 69.3236 111.055 67.4559 110.962 65.5903H117.916C118.209 66.6513 118.759 67.5942 119.863 68.2773C119.904 68.3016 119.945 68.3269 119.986 68.3512C120.894 68.8801 121.922 69.1905 122.793 69.7818C123.325 70.1429 124.025 70.7964 124.133 71.4732C124.158 71.622 124.165 71.7382 124.158 71.8279H111.762C111.429 71.8279 111.151 71.564 111.144 71.2293C111.144 71.2261 111.144 71.224 111.144 71.2208V71.2229Z" fill="#62C283"></path><path id="Vector_35" d="M115.281 34.7093C115.78 40.722 117.916 65.5903 117.916 65.5903H110.962L109.283 39.6018V34.7093C112.284 34.7093 115.281 34.7093 115.281 34.7093Z" fill="#A5F0BD"></path><path id="Vector_36" d="M124.132 71.0085H111.144" stroke="white" stroke-width="0.3" stroke-linecap="round" stroke-linejoin="round"></path><path id="Vector_37" d="M117.873 65.5998H110.967" stroke="white" stroke-width="0.3" stroke-linecap="round" stroke-linejoin="round"></path><path id="Vector_38" d="M119.623 64.9209C121.096 64.9451 119.837 68.1854 119.557 68.1421C119.385 68.1157 118.155 64.8955 119.623 64.9209Z" stroke="#171B65" stroke-width="0.3" stroke-linecap="round" stroke-linejoin="round"></path><path id="Vector_39" d="M121.877 65.9165C122.922 66.9596 119.725 68.3712 119.558 68.1411C119.455 67.9985 120.881 64.924 121.877 65.9165Z" stroke="#171B65" stroke-width="0.3" stroke-linecap="round" stroke-linejoin="round"></path></g></g><path id="Vector_40" d="M116.95 23.2328H101.665C101.363 23.2328 101.134 23.5105 101.192 23.8093L103.229 34.4581C103.273 34.6861 103.472 34.8519 103.703 34.8519H114.955C115.188 34.8519 115.386 34.6861 115.429 34.457L117.429 23.8135C117.432 23.7945 117.435 23.7755 117.436 23.7555C117.455 23.4725 117.232 23.2328 116.95 23.2328Z" fill="#2F3AE9"></path></g><g id="Group_12"><path id="Vector_41" d="M117.271 23.8051C117.233 31.2147 120.526 32.4732 120.943 26.2102C121.076 24.219 120.859 22.2183 120.341 20.2914C120.29 20.1046 120.252 19.9483 120.237 19.8501C120.155 19.3476 120.231 18.7954 120.555 18.4047C120.821 18.0848 121.225 17.9053 121.634 17.8335C122.042 17.7617 122.461 17.7881 122.875 17.8135C123.385 17.8452 123.979 17.9254 124.188 18.4301C124.278 18.6486 124.263 18.8957 124.162 19.11C123.938 19.5872 123.429 19.7942 122.937 19.8163C122.551 19.8343 122.168 19.7498 121.79 19.6675" stroke="#171B65" stroke-width="0.3" stroke-linecap="round" stroke-linejoin="round"></path><path id="Vector_42" d="M121.145 17.9539C121.039 17.275 120.772 13.2852 122.115 13.358C123.031 13.4077 122.944 16.5983 122.791 17.7512" stroke="#171B65" stroke-width="0.3" stroke-linecap="round" stroke-linejoin="round"></path><path id="Vector_43" d="M122.929 16.3175C123.204 16.099 124.336 16.0652 124.201 18.4492" stroke="#171B65" stroke-width="0.3" stroke-linecap="round" stroke-linejoin="round"></path><path id="Vector_44" d="M123.936 19.469C123.91 19.6812 124.098 19.8818 124.309 19.9103C124.52 19.9399 124.732 19.8269 124.87 19.6633C125.007 19.4996 125.081 19.2916 125.133 19.0847C125.216 18.7553 125.252 18.4143 125.239 18.0743C125.232 17.8695 125.206 17.6615 125.123 17.4746C125.04 17.2877 124.893 17.122 124.701 17.0523C124.508 16.9826 124.271 17.028 124.142 17.1864" stroke="#171B65" stroke-width="0.3" stroke-linecap="round" stroke-linejoin="round"></path><path id="Vector_45" d="M124.96 19.5756C124.937 19.7941 125.115 20.0148 125.332 20.038C125.455 20.0518 125.58 20.0085 125.682 19.9377C125.784 19.867 125.865 19.7699 125.934 19.6664C126.123 19.3856 126.235 19.054 126.255 18.7162C126.267 18.5209 126.247 18.3192 126.159 18.145C126.07 17.9708 125.905 17.8293 125.711 17.8061C125.518 17.7829 125.308 17.9 125.256 18.089" stroke="#171B65" stroke-width="0.3" stroke-linecap="round" stroke-linejoin="round"></path><path id="Vector_46" d="M123.02 17.8283C122.915 17.8325 122.813 17.8938 122.761 17.9856C122.708 18.0775 122.705 18.1957 122.753 18.2897C122.801 18.3805 122.889 18.4428 122.984 18.4787C123.08 18.5135 123.182 18.5241 123.284 18.5315C123.582 18.5526 123.882 18.5526 124.182 18.5315" stroke="#171B65" stroke-width="0.3" stroke-linecap="round" stroke-linejoin="round"></path><path id="Vector_47" d="M125.133 18.9222C124.898 18.8599 124.642 18.9771 124.486 19.164C124.331 19.3508 124.262 19.5979 124.232 19.8397" stroke="#171B65" stroke-width="0.3" stroke-linecap="round" stroke-linejoin="round"></path><path id="Vector_48" d="M126.138 19.1712C125.915 19.1142 125.671 19.2208 125.523 19.3908C125.375 19.5608 125.31 19.7846 125.283 20.0042" stroke="#171B65" stroke-width="0.3" stroke-linecap="round" stroke-linejoin="round"></path><path id="Vector_49" d="M115.056 33.8024C115.452 34.9564 116.358 35.9224 117.481 36.3891C118.602 36.8558 119.923 36.8146 121.014 36.2793C122.951 35.328 123.889 33.1056 124.459 31.0161C125.43 27.4644 125.81 23.7512 125.581 20.076" stroke="#171B65" stroke-width="0.3" stroke-linecap="round" stroke-linejoin="round"></path></g><path id="Vector_50" d="M120.625 22.6227C120.832 23.8991 120.956 25.2083 120.832 26.4257C120.224 32.3624 117.81 30.7481 117.279 23.6172C117.279 23.6141 117.275 23.6109 117.271 23.613L115.531 24.3869L113.841 30.1157L114.961 33.8025C115.357 34.9565 116.455 35.9225 117.578 36.3892C118.7 36.8559 120.02 36.8147 121.112 36.2794C123.048 35.3281 123.986 33.1057 124.557 31.0163C125.304 28.2839 125.698 25.4564 125.736 22.6237H120.625V22.6227Z" fill="#2F3AE9" stroke="#2F3AE9" stroke-width="0.3" stroke-linecap="round" stroke-linejoin="round"></path><path id="Vector_51" d="M107.647 22.6153C108.609 22.8296 108.888 23.2699 108.964 24.3141" stroke="#171B65" stroke-width="0.3" stroke-linecap="round" stroke-linejoin="round"></path><path id="Vector_52" d="M111.116 22.6153C110.154 22.8296 109.876 23.2699 109.799 24.3141" stroke="#171B65" stroke-width="0.3" stroke-linecap="round" stroke-linejoin="round"></path><g id="Group_13"><g id="Group_14"><path id="Vector_53" d="M101.041 23.4187C99.4479 23.5623 95.4513 25.2136 94.6005 29.3407C94.2833 30.88 93.4388 35.78 100.217 40.36L100.355 40.4561C100.355 40.4561 103.678 42.3417 104.346 41.7779C105.068 41.1677 102.958 39.773 102.958 39.773C102.958 39.773 105.552 41.1307 105.965 40.6736C106.544 40.0338 105.245 39.186 105.245 39.186C105.245 39.186 106.854 40.3832 107.361 39.7234C108.099 38.7615 105.472 37.6392 105.472 37.6392C105.472 37.6392 106.959 37.8789 107.247 37.2581C107.618 36.4578 106.291 36.2371 106.291 36.2371L104.006 35.8011C103.665 35.7356 103.515 35.7694 103.276 35.9362" stroke="#171B65" stroke-width="0.3" stroke-linecap="round" stroke-linejoin="round"></path><path id="Vector_54" d="M103.348 34.4159L101.668 35.2257C98.5814 32.1892 98.4428 29.2773 101.934 28.3187" stroke="#171B65" stroke-width="0.3" stroke-linecap="round" stroke-linejoin="round"></path><path id="Vector_55" d="M103.207 37.2465C103.56 37.1008 103.956 37.1008 104.309 37.2465L105.545 37.6604" stroke="#171B65" stroke-width="0.3" stroke-linecap="round" stroke-linejoin="round"></path><path id="Vector_56" d="M105.255 39.1934L103.961 38.4206C103.654 38.2263 103.441 38.1545 103.13 38.2633" stroke="#171B65" stroke-width="0.3" stroke-linecap="round" stroke-linejoin="round"></path></g><g id="Group_15"><path id="Vector_57" d="M100.216 40.361C93.4389 35.7809 94.2823 30.8799 94.5995 29.3417C95.2434 26.2228 97.6897 24.4892 99.5341 23.767C100.211 23.502 100.936 23.3775 101.661 23.3764H102.627L102.078 28.2964C98.5867 29.2551 98.5804 32.1902 101.667 35.2277L100.215 40.3631L100.216 40.361Z" fill="#2F3AE9" stroke="#2F3AE9" stroke-width="0.3" stroke-linecap="round" stroke-linejoin="round"></path><path id="Vector_58" d="M103.207 37.2465C103.56 37.1008 103.956 37.1008 104.309 37.2465L105.545 37.6604" stroke="#171B65" stroke-width="0.3" stroke-linecap="round" stroke-linejoin="round"></path><path id="Vector_59" d="M105.256 39.1932L103.961 38.4203C103.654 38.2261 103.442 38.1543 103.131 38.263" stroke="#171B65" stroke-width="0.3" stroke-linecap="round" stroke-linejoin="round"></path></g></g><path id="Vector_60" d="M101.984 28.4644H103.016" stroke="#171B65" stroke-width="0.3" stroke-linecap="round" stroke-linejoin="round"></path><path id="Vector_61" d="M115.12 27.3969V34.7758" stroke="#171B65" stroke-width="0.3" stroke-linecap="round" stroke-linejoin="round"></path></g><path id="Vector_62" d="M57.1395 46.073C57.1395 41.6197 60.7307 38.0099 65.1611 38.0099C69.5915 38.0099 73.1827 41.6197 73.1827 46.073" fill="#62C283"></path><path id="Vector_63" d="M64.9175 46.8068V38.0099" stroke="#A5F0BD" stroke-width="0.3" stroke-linecap="round" stroke-linejoin="round"></path><path id="Vector_64" d="M1.96409 71.8015H142.895" stroke="#62C283" stroke-width="0.3" stroke-linecap="round" stroke-linejoin="round"></path></g><g id="Group_16"><g id="Group_17"><g id="Group_18"><path id="Vector_65" d="M108.066 18.4323L107.742 19.2432L108.245 19.4744" stroke="#181B61" stroke-width="0.3" stroke-linecap="round" stroke-linejoin="round"></path><g id="Group_19"><path id="Vector_66" d="M107.432 18.4745C107.498 18.4745 107.553 18.4202 107.553 18.3531C107.553 18.2861 107.498 18.2317 107.432 18.2317C107.365 18.2317 107.311 18.2861 107.311 18.3531C107.311 18.4202 107.365 18.4745 107.432 18.4745Z" fill="#181B61"></path><path id="Vector_67" d="M108.885 18.8725C108.952 18.8725 109.006 18.8182 109.006 18.7511C109.006 18.6841 108.952 18.6297 108.885 18.6297C108.819 18.6297 108.765 18.6841 108.765 18.7511C108.765 18.8182 108.819 18.8725 108.885 18.8725Z" fill="#181B61"></path></g></g><g id="Group_20"><g id="Group_21"><path id="Vector_68" d="M106.72 16.6257C106.402 17.1177 106.217 17.7048 106.217 18.3351C106.217 20.0729 107.619 21.4813 109.348 21.4813C110.536 21.4813 111.57 20.8151 112.1 19.8343" stroke="#171B65" stroke-width="0.3" stroke-linecap="round" stroke-linejoin="round"></path><path id="Vector_69" d="M109.98 15.2532C110.037 15.0336 110.084 14.813 109.971 14.6166C109.877 14.4508 109.674 14.3632 109.484 14.379C109.294 14.3949 109.12 14.5036 108.996 14.6483C109.209 14.5005 109.21 14.1531 109.059 13.9409C108.907 13.7287 108.627 13.6389 108.369 13.6653C108.11 13.6928 107.873 13.8205 107.663 13.9715C107.252 14.2671 106.911 14.6747 106.748 15.1561C106.585 15.6375 106.487 16.2784 106.788 16.687C107.634 17.841 109.728 16.8433 110.324 16.97C111.085 17.1315 110.666 17.9518 110.612 18.1641C110.553 18.3953 110.933 18.6349 111.193 18.0215C111.302 17.7629 111.823 17.8864 111.562 18.4153C111.562 18.4153 111.229 19.4564 112.072 19.885" stroke="#62C283" stroke-width="0.3" stroke-linecap="round" stroke-linejoin="round"></path></g><path id="Vector_70" d="M112.1 19.8343C112.34 19.3887 112.478 18.8777 112.478 18.335C112.478 16.8147 111.405 15.5467 109.98 15.2532" stroke="#62C283" stroke-width="0.3" stroke-linecap="round" stroke-linejoin="round"></path></g></g><path id="Vector_71" d="M109.348 20.0201C108.501 20.3094 107.621 20.0708 107.345 19.4574" stroke="#171B65" stroke-width="0.3" stroke-linecap="round" stroke-linejoin="round"></path></g></g></g></g><defs><clipPath id="clip0_1214_3492"><rect width="143" height="72" fill="white"></rect></clipPath></defs></svg> 