<?xml version="1.0" encoding="UTF-8"?> <svg xmlns="http://www.w3.org/2000/svg" width="57" height="69" viewBox="0 0 57 69" fill="none"><g id="Incendio" clip-path="url(#clip0_1206_1880)"><g id="Capa 1"><g id="Group"><path id="Vector" d="M44.9974 35.3815H47.2042" stroke="#75CE96" stroke-width="0.5" stroke-linecap="round" stroke-linejoin="round"></path><path id="Vector_2" d="M41.8799 35.3815H44.5476" stroke="#75CE96" stroke-width="0.5" stroke-linecap="round" stroke-linejoin="round"></path><path id="Vector_3" d="M37.3093 35.3815H41.1951" stroke="#75CE96" stroke-width="0.5" stroke-linecap="round" stroke-linejoin="round"></path><g id="Vector_4"><path d="M13.2485 19.4497C14.7215 17.6602 16.2191 15.8283 17.043 13.6611C18.3 10.3517 17.8469 6.67015 17.3759 3.16132C17.3436 4.9564 16.8225 6.74035 15.8839 8.26912C15.2526 9.29871 14.4409 10.208 13.8141 11.2398C13.1872 12.2716 12.7452 13.4917 12.9668 14.6784C11.5372 11.925 11.3 8.57778 12.3277 5.65059C10.2567 7.23397 8.65342 9.42239 7.76715 11.8749C6.88087 14.3274 6.71609 17.0362 7.29617 19.579" fill="#2F3AE9"></path><path d="M13.2485 19.4497C14.7215 17.6602 16.2191 15.8283 17.043 13.6611C18.3 10.3517 17.8469 6.67015 17.3759 3.16132C17.3436 4.9564 16.8225 6.74035 15.8839 8.26913C15.2526 9.29871 14.4409 10.208 13.8141 11.2398C13.1872 12.2716 12.7452 13.4917 12.9668 14.6784C11.5372 11.925 11.3 8.57778 12.3277 5.65059C10.2567 7.23397 8.65342 9.42239 7.76715 11.8749C6.88087 14.3274 6.71609 17.0362 7.29617 19.579" stroke="#2F3AE9" stroke-width="0.5" stroke-linecap="round" stroke-linejoin="round"></path></g><path id="Vector_5" d="M11.4581 18.6419C10.4371 16.6697 9.14779 14.6317 9.59649 12.5547C8.18914 14.7286 7.68142 17.1889 8.12234 19.5612H11.8957C11.7599 19.2503 11.6129 18.9428 11.4581 18.6431V18.6419Z" fill="white" stroke="white" stroke-width="0.5" stroke-linecap="round" stroke-linejoin="round"></path><path id="Vector_6" d="M28.5156 14.1147H28.4855L13.3153 24.2456V19.5601H6.96884V28.4843L0.839508 32.5781C0.0879555 33.0795 -0.114685 34.0969 0.38635 34.849L1.5944 36.6608C2.09544 37.4129 3.11198 37.6157 3.86353 37.1143L5.92891 35.7349V68.8899H51.0722V35.7349L53.1376 37.1143C53.8891 37.6157 54.9046 37.4129 55.4067 36.6608L56.6148 34.849C57.1158 34.0969 56.9132 33.0807 56.1616 32.5781L28.5156 14.1147Z" stroke="#75CE96" stroke-width="0.5" stroke-linecap="round" stroke-linejoin="round"></path><path id="Vector_7" d="M45.798 38.6551H33.6618V51.6419H45.798V38.6551Z" fill="#75CE96"></path><path id="Vector_8" d="M22.2771 54.8208H14.54V68.8884H22.2771V54.8208Z" fill="#75CE96"></path><path id="Vector_9" d="M28.3753 59.3772C26.8822 61.7049 27.1583 64.602 23.6244 65.87C24.1065 62.7066 25.9102 59.9332 27.3632 57.0829C28.8173 54.2326 29.9664 50.9366 29.0344 47.8757C29.6836 53.1384 21.3085 56.4355 21.2072 61.6458C21.0201 60.8948 21.9131 55.3881 17.8992 52.8097C19.7653 55.5419 19.8677 59.3727 18.1508 62.2007C17.3692 63.4877 16.2658 64.5519 15.4497 65.8177C14.8629 66.7291 14.4354 67.8233 14.4543 68.8841H26.5393C28.0891 65.9971 27.2808 62.9373 28.3742 59.3761L28.3753 59.3772Z" fill="#2F3AE9" stroke="#2F3AE9" stroke-width="0.5" stroke-linecap="round" stroke-linejoin="round"></path><path id="Vector_10" d="M22.9597 54.2996C23.6489 53.3079 24.5118 52.4086 24.9349 51.2777C25.643 49.3823 24.8224 47.0379 23.0877 45.9971C24.102 46.6612 24.6899 47.9248 24.544 49.1282C24.4171 50.179 23.7947 51.0983 23.1478 51.9351C22.5009 52.773 20.5146 54.3709 21.9665 57.2836C22.1469 56.1537 22.2716 55.289 22.9597 54.2984V54.2996Z" stroke="#2F3AE9" stroke-width="0.5" stroke-linecap="round" stroke-linejoin="round"></path><path id="Vector_11" d="M19.439 64.9428C19.8543 64.5629 20.3509 64.2843 20.7941 63.9366C21.2372 63.589 21.6402 63.1422 21.756 62.5906C21.4732 63.9467 21.805 65.6348 21.0546 66.8761C20.5213 67.7586 19.291 67.9057 18.8155 66.8783C18.4882 66.1708 18.9168 65.4209 19.4401 64.9417L19.439 64.9428Z" fill="white" stroke="white" stroke-width="0.5" stroke-linecap="round" stroke-linejoin="round"></path><path id="Vector_12" d="M12.2631 57.0396C13.646 54.6228 15.8973 52.8388 17.5919 50.6304C20.0993 47.3622 21.3218 43.1313 20.9433 39.0286C21.0936 41.89 19.4346 44.5732 17.3503 46.5377C15.266 48.501 12.7441 49.9306 10.4783 51.6822C7.72928 53.8083 5.29314 56.5282 4.25655 59.8465C3.30458 62.894 3.74772 66.4964 5.80865 68.8854H13.0057C10.5173 65.5315 10.1832 60.6766 12.2631 57.0408V57.0396Z" stroke="#2F3AE9" stroke-width="0.5" stroke-linecap="round" stroke-linejoin="round"></path><path id="Vector_13" d="M9.79578 35.3815H34.1394" stroke="#75CE96" stroke-width="0.5" stroke-linecap="round" stroke-linejoin="round"></path><path id="Vector_14" d="M13.6493 5.20923C13.7796 4.33342 14.1938 3.53003 14.5111 2.70324C14.8284 1.87645 15.05 0.956066 14.7828 0.11145C15.3896 1.248 16.0164 2.5205 15.7069 3.77294C15.5343 4.47159 15.0889 5.06326 14.7382 5.69171C14.4576 6.19425 14.3407 6.70458 14.2227 7.25169C13.5947 6.98426 13.5625 5.80202 13.6504 5.21035L13.6493 5.20923Z" fill="#2F3AE9" stroke="#2F3AE9" stroke-width="0.5" stroke-linecap="round" stroke-linejoin="round"></path><path id="Vector_15" d="M41.0537 32.8755C41.7474 34.8578 40.8344 37.0028 39.9971 38.9282C39.1587 40.8537 38.3838 43.1 39.3123 44.9832C37.5665 44.9754 36.4008 43.0343 36.3596 41.2882C36.3184 39.5411 37.0131 37.8652 37.2414 36.1325C37.6589 32.9602 36.4598 29.7065 34.0437 27.6117C35.0714 29.7154 35.2406 32.2237 34.5046 34.4466C33.8711 36.3576 32.6218 38.0056 31.8647 39.8709C30.2848 43.7641 31.2045 48.4931 33.9446 51.642H41.7607C44.4741 45.6317 43.0623 38.1371 41.0548 32.8755H41.0537Z" stroke="#2F3AE9" stroke-width="0.5" stroke-linecap="round" stroke-linejoin="round"></path><path id="Vector_16" d="M43.7771 51.699C43.403 49.505 44.4975 47.3678 45.1344 45.2351C46.2088 41.6405 45.9705 37.6681 44.4741 34.2272C44.8827 36.4881 43.678 38.7501 42.1371 40.4527C40.5961 42.1553 38.6944 43.5113 37.2247 45.2763C35.755 47.0413 34.7362 49.4381 35.421 51.631L43.776 51.699H43.7771Z" fill="#2F3AE9" stroke="#2F3AE9" stroke-width="0.5" stroke-linecap="round" stroke-linejoin="round"></path><path id="Vector_17" d="M38.5463 48.2602C39.0062 47.2439 39.8969 46.5018 40.7074 45.7352C41.518 44.9686 42.3108 44.0683 42.4611 42.9629C42.6225 44.0716 42.3264 45.2405 41.6561 46.1375C41.1372 46.8328 40.418 47.3565 39.8791 48.0362C39.5952 48.3939 39.3658 48.7939 39.1965 49.2173C39.1064 49.4435 38.9817 50.4653 38.749 50.5489C38.0609 50.7962 38.396 48.5922 38.5474 48.259L38.5463 48.2602Z" fill="white" stroke="white" stroke-width="0.5" stroke-linecap="round" stroke-linejoin="round"></path></g></g></g><defs><clipPath id="clip0_1206_1880"><rect width="57" height="69" fill="white"></rect></clipPath></defs></svg> 