<?xml version="1.0" encoding="UTF-8" standalone="no"?> <svg xmlns:inkscape="http://www.inkscape.org/namespaces/inkscape" xmlns:sodipodi="http://sodipodi.sourceforge.net/DTD/sodipodi-0.dtd" xmlns="http://www.w3.org/2000/svg" xmlns:svg="http://www.w3.org/2000/svg" width="108" height="63" viewBox="0 0 108 63" fill="none" version="1.1" id="svg1313" sodipodi:docname="Consorcio.svg" inkscape:version="1.2.2 (732a01da63, 2022-12-09, custom)"><g id="Consorcio" clip-path="url(#clip0_1215_2047)"><g id="Capa 1"><g id="Group"><g id="Group_2"><g id="Group_3"><g id="Group_4"><path id="Vector" d="m 77.3804,52.2493 c 0.5055,0.1691 1.0649,0.2637 1.654,0.2637 2.2529,0 4.079,-1.3759 4.079,-3.0721 0,-1.3662 -1.1839,-2.5237 -2.8203,-2.9233 0.8664,-0.5395 1.4571,-1.6177 1.4571,-2.861 0,-1.7827 -1.216,-3.2282 -2.7158,-3.2282 -0.6229,0 -1.1959,0.2499 -1.654,0.6681" stroke="#a5f0bd" stroke-width="0.2" stroke-linecap="round" stroke-linejoin="round"></path><path id="Vector_2" d="m 77.3804,46.215 c 0.1237,0.1133 0.2556,0.216 0.3954,0.3025 -0.135,0.0332 -0.2668,0.072 -0.3954,0.1149" stroke="#a5f0bd" stroke-width="0.2" stroke-linecap="round" stroke-linejoin="round"></path></g><path id="Vector_3" d="M 81.7149,62.8043 83.1021,52.623 h -5.7354" stroke="#171b65" stroke-width="0.2" stroke-linecap="round" stroke-linejoin="round"></path><path id="Vector_4" d="M 77.3667,3.9352 V 62.8374" stroke="#171b65" stroke-width="0.2" stroke-linecap="round" stroke-linejoin="round"></path><path id="Vector_5" d="M 18.8328,62.8374 V 3.9352" stroke="#171b65" stroke-width="0.2" stroke-linecap="round" stroke-linejoin="round"></path><g id="Group_5"><g id="Group_6"><g id="Group_7"><path id="Vector_6" d="m 24.1784,36.3015 c 0.1937,0 0.3512,-0.161 0.3432,-0.3559 -0.1857,-4.8331 -4.1376,-8.693 -8.9849,-8.693 -4.8472,0 -8.79917,3.8608 -8.98483,8.693 -0.00723,0.1949 0.14949,0.3559 0.34319,0.3559 H 24.1776 Z" fill="#2f3ae9"></path><g id="Group_8"><g id="Group_9"><path id="Vector_7" d="m 14.2227,62.5236 c 0,-0.0049 0,-0.0097 0,-0.0138 0.0145,-1.3492 0.0627,-2.6903 0.1302,-4.0298 H 9.36496 c -0.20977,0.762 -0.6044,1.439 -1.39527,1.93 -0.02973,0.0178 -0.05867,0.0356 -0.08841,0.0534 -0.65182,0.3794 -1.38884,0.6026 -2.01333,1.0273 -0.38097,0.2596 -0.8841,0.7288 -0.96126,1.2149 -0.01688,0.1068 -0.0225,0.1901 -0.01768,0.2548 H 13.779 c 0.2387,0 0.4381,-0.1893 0.4437,-0.4295 0,-0.0016 0,-0.0041 0,-0.0057 z" fill="#62c283"></path><path id="Vector_8" d="m 11.2554,36.3047 c -0.3577,4.317 -1.89041,22.1745 -1.89041,22.1745 h 4.98791 l 1.204,-18.6616 v -3.5129 z" fill="#a5f0bd"></path><path id="Vector_9" d="M 4.90665,62.3707 H 14.2227" stroke="#ffffff" stroke-width="0.2" stroke-linecap="round" stroke-linejoin="round"></path><path id="Vector_10" d="M 9.39638,58.4865 H 14.3497" stroke="#ffffff" stroke-width="0.2" stroke-linecap="round" stroke-linejoin="round"></path><path id="Vector_11" d="M 8.14162,57.9988 C 7.08552,58.0166 7.98811,60.3429 8.18904,60.3121 8.31282,60.2927 9.1945,57.981 8.14162,57.9988 Z" stroke="#171b65" stroke-width="0.2" stroke-linecap="round" stroke-linejoin="round"></path><path id="Vector_12" d="m 6.52458,58.7138 c -0.74987,0.749 1.54316,1.7625 1.66291,1.5975 0.07395,-0.1019 -0.9492,-2.3101 -1.66291,-1.5975 z" stroke="#171b65" stroke-width="0.2" stroke-linecap="round" stroke-linejoin="round"></path></g><g id="Group_10"><path id="Vector_13" d="m 16.8516,62.5236 c 0,-0.0049 0,-0.0097 0,-0.0138 C 16.8372,61.1606 16.789,59.8195 16.7214,58.48 h 4.988 c 0.2097,0.762 0.6044,1.439 1.3952,1.93 0.0298,0.0178 0.0587,0.0356 0.0885,0.0534 0.6518,0.3794 1.3888,0.6026 2.0133,1.0273 0.381,0.2596 0.8841,0.7288 0.9612,1.2149 0.0169,0.1068 0.0225,0.1901 0.0177,0.2548 h -8.89 c -0.2387,0 -0.438,-0.1893 -0.4437,-0.4295 0,-0.0016 0,-0.0041 0,-0.0057 z" fill="#62c283"></path><path id="Vector_14" d="m 19.819,36.3047 c 0.3576,4.317 1.8903,22.1745 1.8903,22.1745 h -4.9879 l -1.204,-18.6616 v -3.5129 c 2.1516,0 4.3016,0 4.3016,0 z" fill="#a5f0bd"></path><path id="Vector_15" d="m 26.1676,62.3707 h -9.316" stroke="#ffffff" stroke-width="0.2" stroke-linecap="round" stroke-linejoin="round"></path><path id="Vector_16" d="M 21.6779,58.4865 H 16.7254" stroke="#ffffff" stroke-width="0.2" stroke-linecap="round" stroke-linejoin="round"></path><path id="Vector_17" d="m 22.9334,57.9988 c 1.0561,0.0178 0.1535,2.3441 -0.0475,2.3133 -0.1237,-0.0194 -1.0054,-2.3311 0.0475,-2.3133 z" stroke="#171b65" stroke-width="0.2" stroke-linecap="round" stroke-linejoin="round"></path><path id="Vector_18" d="m 24.5505,58.7138 c 0.7499,0.749 -1.5432,1.7625 -1.6629,1.5975 -0.074,-0.1019 0.9492,-2.3101 1.6629,-1.5975 z" stroke="#171b65" stroke-width="0.2" stroke-linecap="round" stroke-linejoin="round"></path></g></g></g><g id="Group_11"><path id="Vector_19" d="m 23.7299,33.0183 c 1.5608,0 1.7674,-1.5733 1.8333,-2.1064 0.0466,-0.3753 0.0844,-0.7514 0.1141,-1.1283 0.0723,-0.91 -0.0145,-1.8232 -0.2274,-2.7114 -0.1206,-0.5015 -0.1302,-1.0742 0.3657,-1.2651 0.9058,-0.3478 1.3197,1.8993 1.3197,1.8993 0,0 1.0713,-0.5776 2.2392,-0.1117" stroke="#171b65" stroke-width="0.2" stroke-linecap="round" stroke-linejoin="round"></path><path id="Vector_20" d="m 26.7278,26.4374 c 0,0 -0.3665,-3.1263 0.4911,-3.1263 0.733,0 0.553,3.0608 0.553,3.0608" stroke="#171b65" stroke-width="0.2" stroke-linecap="round" stroke-linejoin="round"></path><path id="Vector_21" d="m 27.7317,24.3456 c 0,0 -0.0634,-1.3476 0.5723,-1.3759 0.8632,-0.0381 0.3384,3.3948 0.3384,3.3948" stroke="#171b65" stroke-width="0.2" stroke-linecap="round" stroke-linejoin="round"></path><path id="Vector_22" d="m 28.8014,24.361 c 0,0 -0.0249,-0.6633 0.4493,-0.6536 0.7121,0.0137 0.4075,2.6782 0.4075,2.6782" stroke="#171b65" stroke-width="0.2" stroke-linecap="round" stroke-linejoin="round"></path><path id="Vector_23" d="m 19.7957,36.3881 c 0.5787,1.4204 3.4424,3.6731 6.7184,2.2536 4.5643,-1.9769 4.2276,-11.2507 3.7839,-13.1499 -0.0217,-0.0914 -0.1005,-0.5185 -0.3271,-0.5209 -0.1688,-0.0025 -0.2492,0.2127 -0.2476,0.313" stroke="#171b65" stroke-width="0.2" stroke-linecap="round" stroke-linejoin="round"></path></g></g><g id="Group_12"><path id="Vector_24" d="m 8.45357,36.3249 c 0,0 -0.32872,5.3653 0.39865,8.9502 0.06108,0.3026 0.42919,0.4215 0.65423,0.212 0.13101,-0.1222 0.25559,-0.3357 0.33837,-0.6981" stroke="#171b65" stroke-width="0.2" stroke-linecap="round" stroke-linejoin="round"></path><path id="Vector_25" d="m 9.20345,45.6205 c 0,0 0.18003,2.1201 1.10595,1.8871" stroke="#171b65" stroke-width="0.2" stroke-linecap="round" stroke-linejoin="round"></path><path id="Vector_26" d="m 8.78464,44.7146 c 0.06992,-0.0664 0.1937,-0.0389 0.25478,0.0364 0.06108,0.0752 0.07153,0.1795 0.06269,0.2758 -0.01286,0.1424 -0.06189,0.2807 -0.14146,0.3996" stroke="#171b65" stroke-width="0.2" stroke-linecap="round" stroke-linejoin="round"></path></g></g><path id="Vector_27" d="M 80.4723,0.0808868 H 15.9973 V 3.96915 h 64.475 z" stroke="#171b65" stroke-width="0.2" stroke-linecap="round" stroke-linejoin="round"></path><path id="Vector_28" d="M 61.9553,33.3288 H 34.2468 v 29.4948 h 27.7085 z" fill="#a5f0bd"></path><path id="Vector_29" d="M 36.7777,17.6561 H 23.6038 v 3.0713 h 13.1739 z" fill="#a5f0bd"></path><path id="Vector_30" d="M 53.9702,17.6561 H 40.7964 v 3.0713 h 13.1738 z" fill="#a5f0bd"></path><path id="Vector_31" d="M 70.6548,17.6561 H 57.4809 v 3.0713 h 13.1739 z" fill="#a5f0bd"></path><path id="Vector_32" d="M 36.7785,8.25858 H 23.5902 V 20.7266 h 13.1883 z" stroke="#171b65" stroke-width="0.2" stroke-linecap="round" stroke-linejoin="round"></path><path id="Vector_33" d="M 53.9629,8.25858 H 40.7745 V 20.7266 h 13.1884 z" stroke="#171b65" stroke-width="0.2" stroke-linecap="round" stroke-linejoin="round"></path><path id="Vector_34" d="M 70.6146,8.25858 H 57.4263 V 20.7266 h 13.1883 z" stroke="#171b65" stroke-width="0.2" stroke-linecap="round" stroke-linejoin="round"></path><path id="Vector_35" d="m 44.9379,51.577 c 0.9291,0 1.6822,-0.758 1.6822,-1.693 0,-0.935 -0.7531,-1.6929 -1.6822,-1.6929 -0.929,0 -1.6822,0.7579 -1.6822,1.6929 0,0.935 0.7532,1.693 1.6822,1.693 z" fill="#62c283"></path><path id="Vector_36" d="m 50.9788,51.577 c 0.929,0 1.6822,-0.758 1.6822,-1.693 0,-0.935 -0.7532,-1.6929 -1.6822,-1.6929 -0.9291,0 -1.6822,0.7579 -1.6822,1.6929 0,0.935 0.7531,1.693 1.6822,1.693 z" fill="#62c283"></path><path id="Vector_37" d="M 47.7823,33.8013 V 62.9192" stroke="#62c283" stroke-width="0.2" stroke-linecap="round" stroke-linejoin="round"></path><path id="Vector_38" d="M 32.1386,27.3682 H 63.9308" stroke="#171b65" stroke-width="0.2" stroke-linecap="round" stroke-linejoin="round"></path></g><g id="Group_13"><path id="Vector_39" d="m 19.5394,29.8176 h -2.2038 c -0.1238,0 -0.2242,0.1011 -0.2242,0.2257 v 0.7619 c 0,0.1247 0.1004,0.2257 0.2242,0.2257 h 2.2038 c 0.1239,0 0.2243,-0.101 0.2243,-0.2257 v -0.7619 c 0,-0.1246 -0.1004,-0.2257 -0.2243,-0.2257 z" stroke="#ffffff" stroke-width="0.2" stroke-linecap="round" stroke-linejoin="round"></path><path id="Vector_40" d="m 17.5132,30.4243 h 1.8486" stroke="#171b65" stroke-width="0.2" stroke-linecap="round" stroke-linejoin="round"></path></g><path id="Vector_41" d="M 15.6542,28.1092 V 35.605" stroke="#171b65" stroke-width="0.2" stroke-linecap="round" stroke-linejoin="round"></path><path id="Vector_42" d="M 0.0803719,62.9078 H 107.92" stroke="#62c283" stroke-width="0.2" stroke-linecap="round" stroke-linejoin="round"></path></g><g id="Group_14"><g id="Group_15"><g id="Group_16"><path id="Vector_43" d="m 17.0439,22.9583 c 0.3809,0.4093 0.614,0.9585 0.614,1.5635 0,1.2627 -1.0175,2.2867 -2.2721,2.2867 -0.8584,0 -1.6051,-0.4788 -1.9917,-1.1858" stroke="#171b65" stroke-width="0.2" stroke-linecap="round" stroke-linejoin="round"></path><path id="Vector_44" d="m 13.4109,25.6536 c 0.7395,-0.5145 1.2747,-1.329 1.3479,-2.2301 0.0844,0.1828 0.2845,0.2823 0.4782,0.3333 0.4445,0.1164 0.9347,0.0444 1.3278,-0.1958 0.2226,-0.1367 0.4123,-0.326 0.5529,-0.5468" stroke="#62c283" stroke-width="0.2" stroke-linecap="round" stroke-linejoin="round"></path><path id="Vector_45" d="m 16.269,24.6263 0.2315,0.5799 -0.3592,0.1667" stroke="#171b65" stroke-width="0.2" stroke-linecap="round" stroke-linejoin="round"></path><path id="Vector_46" d="m 14.717,22.3274 c 0.2644,-0.1973 0.3303,-0.6042 0.1849,-0.9043 -0.1455,-0.3001 -0.4646,-0.4886 -0.7901,-0.5233 -0.3255,-0.0348 -0.655,0.0671 -0.9404,0.2313 -0.4484,0.258 -0.7386,0.6851 -1.0062,1.1575 0,0 0.6325,-1.0014 -0.0458,-1.4851 -0.6784,-0.4837 -1.4701,-0.0194 -2.0118,0.6964 -0.35683,0.4716 -0.97329,1.8629 -0.17679,2.3854 0.79649,0.5217 1.68139,-0.6422 1.68139,-0.6422 0,0 -1.0987,1.4495 -0.1173,1.9526 0.6855,0.3518 1.597,-0.8218 1.597,-0.8218" stroke="#62c283" stroke-width="0.2" stroke-linecap="round" stroke-linejoin="round"></path></g><path id="Vector_47" d="m 15.3584,25.7465 c 0.6149,0.2103 1.2538,0.0372 1.4539,-0.4093" stroke="#171b65" stroke-width="0.2" stroke-linecap="round" stroke-linejoin="round"></path></g><g id="Group_17"><path id="Vector_48" d="m 16.7343,24.6465 c 0.048,0 0.0868,-0.0391 0.0868,-0.0874 0,-0.0482 -0.0388,-0.0873 -0.0868,-0.0873 -0.0479,0 -0.0868,0.0391 -0.0868,0.0873 0,0.0483 0.0389,0.0874 0.0868,0.0874 z" fill="#171b65"></path><path id="Vector_49" d="m 15.6959,24.932 c 0.0479,0 0.0868,-0.0391 0.0868,-0.0874 0,-0.0482 -0.0389,-0.0874 -0.0868,-0.0874 -0.0479,0 -0.0868,0.0392 -0.0868,0.0874 0,0.0483 0.0389,0.0874 0.0868,0.0874 z" fill="#171b65"></path></g><path id="Vector_50" d="m 15.3857,22.2344 c 0.6542,0 1.2434,0.2783 1.6581,0.7231" stroke="#62c283" stroke-width="0.2" stroke-linecap="round" stroke-linejoin="round"></path><path id="Vector_51" d="m 13.1136,24.5211 c 0,-1.2627 1.0175,-2.2867 2.2722,-2.2867" stroke="#62c283" stroke-width="0.2" stroke-linecap="round" stroke-linejoin="round"></path><path id="Vector_52" d="M 13.3933,25.6227 C 13.2149,25.2959 13.1128,24.9206 13.1128,24.5219" stroke="#62c283" stroke-width="0.2" stroke-linecap="round" stroke-linejoin="round"></path></g></g></g></g><defs id="defs1311"><clipPath id="clip0_1215_2047"><rect width="108" height="63" fill="#ffffff" id="rect1308" x="0" y="0"></rect></clipPath></defs></svg> 