<?xml version="1.0" encoding="UTF-8"?> <svg xmlns="http://www.w3.org/2000/svg" width="66" height="63" viewBox="0 0 66 63" fill="none"><g id="Group 1490"><g id="Group"><g id="Group_2"><g id="Group_3"><path id="Vector" d="M1.4639 40.0778H29.0755C29.8458 40.0778 30.4688 39.4548 30.4688 38.6845V4.17075C30.4688 3.40044 29.8458 2.77744 29.0755 2.77744H5.24181C2.38459 2.77744 0.0705795 5.09144 0.0705795 7.94866V38.6845C0.0705795 39.4548 0.693582 40.0778 1.4639 40.0778Z" fill="white"></path><path id="Vector_2" d="M29.1676 40.1515H1.37183C0.613796 40.1515 0 39.5346 0 38.7796V7.85659C0 5.01472 2.31094 2.70685 5.14975 2.70685H29.1676C29.9256 2.70685 30.5394 3.32371 30.5394 4.07868V38.7796C30.5394 39.5377 29.9225 40.1515 29.1676 40.1515ZM5.14975 2.85109C2.38767 2.85109 0.144242 5.09758 0.144242 7.85659V38.7766C0.144242 39.4548 0.696658 40.0042 1.37183 40.0042H29.1676C29.8458 40.0042 30.3952 39.4517 30.3952 38.7766V4.07868C30.3952 3.40044 29.8428 2.85109 29.1676 2.85109H5.14975Z" fill="#171B65"></path></g><g id="Group_4"><path id="Vector_3" d="M4.12779 37.3709H31.8223C32.568 37.3709 33.1726 36.7664 33.1726 36.0206V1.36568C33.1726 0.650607 32.5926 0.0736389 31.8806 0.0736389H8.14201C5.17738 0.0736389 2.77744 2.47665 2.77744 5.43821V36.0237C2.77744 36.7694 3.38202 37.374 4.12779 37.374V37.3709Z" fill="white"></path><path id="Vector_4" d="M31.8713 37.4446H4.07867C3.32064 37.4446 2.70684 36.8278 2.70684 36.0728V5.14975C2.70684 2.30787 5.01778 0 7.85659 0H31.8713C32.6294 0 33.2432 0.616865 33.2432 1.37183V36.0728C33.2432 36.8308 32.6263 37.4446 31.8713 37.4446ZM7.85659 0.144242C5.09451 0.144242 2.85108 2.39073 2.85108 5.14975V36.0728C2.85108 36.751 3.4035 37.3004 4.07867 37.3004H31.8713C32.5496 37.3004 33.0989 36.748 33.0989 36.0728V1.37183C33.0989 0.693589 32.5465 0.144242 31.8713 0.144242H7.85659Z" fill="#171B65"></path></g></g><path id="Vector_5" d="M14.2155 3.71347H5.6991V5.51803H14.2155V3.71347Z" fill="#A5F0BD"></path><path id="Vector_6" d="M26.6111 7.93332H5.69911C5.65921 7.93332 5.62545 7.89956 5.62545 7.85967C5.62545 7.81977 5.65921 7.78601 5.69911 7.78601H26.6111C26.651 7.78601 26.6848 7.81977 26.6848 7.85967C26.6848 7.89956 26.651 7.93332 26.6111 7.93332Z" fill="#171B65"></path><path id="Vector_7" d="M30.3798 10.2811H5.69911C5.65921 10.2811 5.62545 10.2473 5.62545 10.2074C5.62545 10.1675 5.65921 10.1338 5.69911 10.1338H30.3798C30.4197 10.1338 30.4535 10.1675 30.4535 10.2074C30.4535 10.2473 30.4197 10.2811 30.3798 10.2811Z" fill="#171B65"></path><path id="Vector_8" d="M30.3798 12.6258H5.69911C5.65921 12.6258 5.62545 12.592 5.62545 12.5521C5.62545 12.5122 5.65921 12.4785 5.69911 12.4785H30.3798C30.4197 12.4785 30.4535 12.5122 30.4535 12.5521C30.4535 12.592 30.4197 12.6258 30.3798 12.6258Z" fill="#171B65"></path><path id="Vector_9" d="M29.9625 14.9705H5.6991C5.65921 14.9705 5.62852 14.9367 5.62852 14.8968C5.62852 14.8569 5.65921 14.8232 5.6991 14.8232H29.9625C30.0023 14.8232 30.033 14.8569 30.033 14.8968C30.033 14.9367 30.0023 14.9705 29.9625 14.9705Z" fill="#171B65"></path><path id="Vector_10" d="M29.9011 17.3152H5.6991C5.65921 17.3152 5.62852 17.2814 5.62852 17.2415C5.62852 17.2016 5.65921 17.1678 5.6991 17.1678H29.9011C29.941 17.1678 29.9717 17.2016 29.9717 17.2415C29.9717 17.2814 29.941 17.3152 29.9011 17.3152Z" fill="#171B65"></path><path id="Vector_11" d="M29.1921 19.6599H5.69603C5.65921 19.6599 5.62852 19.6261 5.62852 19.5862C5.62852 19.5463 5.65921 19.5126 5.69603 19.5126H29.1921C29.229 19.5126 29.2597 19.5463 29.2597 19.5862C29.2597 19.6261 29.229 19.6599 29.1921 19.6599Z" fill="#171B65"></path><path id="Vector_12" d="M8.83866 34.5168C8.76808 34.5168 8.69749 34.4984 8.63918 34.4677C8.48573 34.3879 8.35683 34.2069 8.42128 33.9736C8.90618 32.1599 9.99567 30.5179 11.4565 29.3609C11.5087 29.1369 11.5547 28.9129 11.5915 28.6858C11.6314 28.4587 11.7296 27.6883 11.3828 27.2526C11.2509 27.0868 11.0698 26.9948 10.8396 26.9794C10.6064 26.9641 10.367 27.0408 10.1737 27.1942C8.68521 28.3666 7.42079 29.7783 6.4111 31.3834C6.38962 31.4172 6.34665 31.4264 6.31289 31.4049C6.27913 31.3834 6.26993 31.3404 6.29141 31.3067C7.31031 29.6863 8.58701 28.2622 10.0877 27.0807C10.3118 26.9058 10.5818 26.8168 10.8519 26.8352C11.122 26.8536 11.3399 26.961 11.4964 27.1605C11.88 27.6423 11.7757 28.4679 11.7327 28.7073C11.702 28.8791 11.6713 29.051 11.6345 29.2198C11.7941 29.1001 11.9567 28.9865 12.1225 28.8822C12.2851 28.7778 12.4938 28.7717 12.6595 28.8699C12.8283 28.9681 12.9265 29.1523 12.9143 29.3487C12.8989 29.5819 12.8652 29.8152 12.8161 30.0423C13.0524 29.8366 13.2825 29.6893 13.482 29.6218C13.7337 29.5389 13.8779 29.6065 13.9547 29.6801C14.0713 29.7906 14.0651 29.9625 14.016 30.1497C14.0989 30.076 14.191 30.0146 14.2922 29.9686C14.3168 29.9563 14.3444 29.9594 14.3659 29.9747C14.3874 29.9901 14.3966 30.0177 14.3935 30.0423L14.3352 30.4412L14.7342 30.1036C14.7587 30.0822 14.7956 30.0822 14.8201 30.0975C14.8477 30.1159 14.8569 30.1497 14.8477 30.1804C14.7526 30.4627 14.8661 30.8003 15.1086 30.9691C15.3541 31.1379 15.7101 31.1195 15.9372 30.9323C15.9679 30.9077 16.0139 30.9108 16.0385 30.9415C16.063 30.9722 16.06 31.0182 16.0293 31.0427C15.7531 31.2729 15.3203 31.2913 15.0257 31.0888C14.7894 30.9261 14.6544 30.6315 14.6697 30.3461L14.28 30.6775C14.2585 30.696 14.2247 30.699 14.1971 30.6867C14.1695 30.6714 14.1572 30.6438 14.1603 30.6131L14.2247 30.1712C14.0467 30.2878 13.9055 30.4596 13.8288 30.6561C13.8165 30.6929 13.8043 30.7236 13.7951 30.7543C13.7951 30.7635 13.7889 30.7727 13.7859 30.785C13.7766 30.8248 13.7368 30.8463 13.6999 30.8371C13.66 30.8279 13.6385 30.788 13.6478 30.7512C13.6478 30.7389 13.6539 30.7297 13.657 30.7174C13.6692 30.6745 13.6846 30.6346 13.6999 30.5916C13.7153 30.5548 13.7306 30.5149 13.746 30.475C13.8411 30.2356 13.9731 29.9042 13.8503 29.7906C13.7797 29.7231 13.6692 29.7139 13.5219 29.766C13.2979 29.8428 13.0217 30.0361 12.7485 30.3031C12.5214 31.1287 12.0672 31.8867 11.4442 32.4606C11.4227 32.4821 11.389 32.4852 11.3614 32.4698C11.3337 32.4545 11.3184 32.4238 11.3245 32.3931C11.4442 31.6811 12.0243 30.8064 12.6196 30.2233C12.6964 29.9379 12.7455 29.6433 12.7639 29.3425C12.7731 29.1983 12.7056 29.0694 12.5797 28.9957C12.457 28.9251 12.3127 28.9282 12.1931 29.0049C11.9813 29.14 11.7757 29.2873 11.5762 29.4407C11.1557 31.23 10.324 32.9148 9.15477 34.3542C9.0627 34.4677 8.94301 34.5138 8.82946 34.5138L8.83866 34.5168ZM11.4013 29.5942C10.0356 30.7236 9.01973 32.2918 8.55939 34.0135C8.51642 34.1792 8.60849 34.2928 8.70363 34.3419C8.7957 34.391 8.94301 34.4002 9.05042 34.2682C10.1675 32.8964 10.9716 31.2944 11.4013 29.5942ZM12.5337 30.5302C12.0949 31.0121 11.6928 31.6351 11.5302 32.1813C11.9782 31.7179 12.322 31.1502 12.5337 30.5302Z" fill="#62C283"></path></g><g id="Group_5"><path id="Vector_13" d="M31.6842 33.7219L33.0314 30.7205L31.6842 33.7219ZM33.0314 30.7205L22.4619 20.823C22.1151 20.4977 21.9985 19.9698 22.1765 19.5402C22.5478 18.6563 23.002 18.1254 23.5329 17.9596C23.6803 17.9136 23.8429 17.8891 24.024 17.8891C24.205 17.8891 24.3892 17.9136 24.5672 17.9504C24.9723 19.3315 26.2275 20.3412 27.7068 20.3412C29.5144 20.3412 30.9844 18.8343 30.9844 16.9837C30.9844 15.1331 29.5144 13.6263 27.7068 13.6263C27.1083 13.6263 26.5497 13.792 26.0679 14.0805C25.4817 13.9025 24.7882 13.7674 24.0393 13.7674C23.4378 13.7674 22.8547 13.8564 22.3053 14.0283C21.1084 14.4027 19.4543 15.3878 18.3801 17.9474C17.5331 19.9668 18.0456 22.3329 19.6538 23.8337L25.0582 28.8791L29.5236 37.1991" fill="white"></path><g id="Group_6"><path id="Vector_14" d="M35.0999 34.7562C34.2713 34.7562 33.4457 34.4554 32.8074 33.86L20.9028 22.7473C19.8808 21.7928 19.5555 20.2921 20.0926 19.0123C20.7248 17.5054 21.6424 16.5541 22.8178 16.1858C24.7789 15.572 26.7277 16.7934 26.8106 16.8456C26.875 16.8855 26.8934 16.9684 26.8535 17.0328C26.8136 17.0973 26.7308 17.1157 26.6663 17.0758C26.6479 17.0635 24.736 15.8697 22.8976 16.4467C21.802 16.7904 20.9427 17.6896 20.3442 19.1197C19.8501 20.2951 20.1509 21.6762 21.09 22.5539L32.9946 33.6667C34.1055 34.704 35.8395 34.7685 37.0241 33.8201L49.076 24.1774C49.8678 23.5452 50.2975 22.5662 50.2269 21.5596C50.141 20.3473 49.7696 18.687 48.4776 17.662C47.3666 16.7812 45.7462 16.5019 43.6685 16.8364C43.5948 16.8487 43.5242 16.7965 43.512 16.7229C43.4997 16.6492 43.5519 16.5786 43.6255 16.5663C45.783 16.2195 47.4709 16.5142 48.6464 17.4471C50.0182 18.5336 50.411 20.2706 50.497 21.5381C50.5737 22.6337 50.1041 23.6986 49.2448 24.3861L37.1929 34.0288C36.5822 34.5168 35.8395 34.7592 35.0999 34.7592V34.7562Z" fill="#181B61"></path><path id="Vector_15" d="M35.3209 40.7223C35.284 40.7223 35.2472 40.7223 35.2104 40.7223C33.9368 40.6824 32.8135 39.9397 32.2764 38.7858L26.6909 28.296C26.6571 28.2285 26.6817 28.1487 26.7461 28.1118C26.8137 28.0781 26.8934 28.1026 26.9303 28.1671L32.5189 38.663C33.0222 39.7463 34.0319 40.4123 35.2196 40.4491C36.4073 40.486 37.4569 39.8875 38.0246 38.8441L43.202 28.962C43.2358 28.8944 43.3186 28.8699 43.3861 28.9036C43.4537 28.9374 43.4782 29.0203 43.4445 29.0878L38.2671 38.973C37.6748 40.0594 36.5546 40.7223 35.3239 40.7223H35.3209Z" fill="#181B61"></path><path id="Vector_16" d="M46.1053 63C42.5913 63 39.863 62.1069 37.9755 60.3361C35.3915 57.9116 35.3608 54.6524 35.3608 54.6186V40.5627C35.3608 40.489 35.4221 40.4276 35.4958 40.4276C35.5695 40.4276 35.6308 40.489 35.6308 40.5627V54.6186C35.6308 54.6493 35.6646 57.7981 38.1627 60.1397C40.2435 62.0885 43.3923 62.9447 47.5262 62.6808C50.5062 62.4905 52.9 61.355 54.6432 59.3049C58.6543 54.5848 57.9116 46.5134 57.9055 46.4306C57.8993 46.3569 57.9515 46.2894 58.0282 46.2833C58.1019 46.2771 58.1694 46.3293 58.1756 46.406C58.1848 46.4889 58.9367 54.6769 54.8519 59.4829C53.0596 61.5913 50.6013 62.7575 47.5446 62.954C47.0505 62.9846 46.5717 63 46.1053 63Z" fill="#181B61"></path><path id="Vector_17" d="M27.6453 18.7361C28.3928 18.7361 28.9988 18.0944 28.9988 17.3029C28.9988 16.5114 28.3928 15.8697 27.6453 15.8697C26.8979 15.8697 26.2919 16.5114 26.2919 17.3029C26.2919 18.0944 26.8979 18.7361 27.6453 18.7361Z" fill="#2F3AE9"></path><path id="Vector_18" d="M42.8644 18.7361C43.6119 18.7361 44.2178 18.0944 44.2178 17.3029C44.2178 16.5114 43.6119 15.8697 42.8644 15.8697C42.1169 15.8697 41.511 16.5114 41.511 17.3029C41.511 18.0944 42.1169 18.7361 42.8644 18.7361Z" fill="#2F3AE9"></path><path id="Vector_19" d="M58.0405 47.56C62.3118 47.56 65.7743 44.0974 65.7743 39.8261C65.7743 35.5549 62.3118 32.0923 58.0405 32.0923C53.7692 32.0923 50.3067 35.5549 50.3067 39.8261C50.3067 44.0974 53.7692 47.56 58.0405 47.56Z" fill="#2F3AE9"></path><path id="Vector_20" d="M58.0405 45.3564C61.0948 45.3564 63.5708 42.8804 63.5708 39.8261C63.5708 36.7718 61.0948 34.2958 58.0405 34.2958C54.9862 34.2958 52.5102 36.7718 52.5102 39.8261C52.5102 42.8804 54.9862 45.3564 58.0405 45.3564Z" fill="#A5F0BD"></path><path id="Vector_21" d="M58.0405 42.4164C56.6134 42.4164 55.4503 41.2563 55.4503 39.8262C55.4503 38.396 56.6104 37.2359 58.0405 37.2359C59.4707 37.2359 60.6307 38.396 60.6307 39.8262C60.6307 41.2563 59.4707 42.4164 58.0405 42.4164Z" fill="white"></path></g></g></g></svg> 