<?xml version="1.0" encoding="UTF-8" standalone="no"?> <svg xmlns:inkscape="http://www.inkscape.org/namespaces/inkscape" xmlns:sodipodi="http://sodipodi.sourceforge.net/DTD/sodipodi-0.dtd" xmlns="http://www.w3.org/2000/svg" xmlns:svg="http://www.w3.org/2000/svg" width="74.959961" height="66.214684" viewBox="0 0 74.959961 66.214684" fill="none" version="1.1" id="svg1928" sodipodi:docname="motos.svg" inkscape:version="1.2.2 (732a01da63, 2022-12-09, custom)"><g id="Moto" clip-path="url(#clip0_1214_3150)" transform="translate(-50.939036,-13.785317)"><g id="Capa 1"><g id="Group"><g id="Group_2"><g id="Group_3"><g id="Group_4"><g id="Group_5"><path id="Vector" d="m 74.2655,23.8813 h 17.7503 c 0.3517,0 0.6162,0.3187 0.5495,0.6627 l -2.3654,12.2376 c -0.051,0.2619 -0.2815,0.4526 -0.5495,0.4526 H 76.5872 c -0.2693,0 -0.501,-0.1907 -0.5507,-0.4538 L 73.7148,24.5488 c -0.0037,-0.0217 -0.0073,-0.0446 -0.0085,-0.0664 0,-0.0024 0,-0.0048 0,-0.006 -0.0219,-0.3211 0.2353,-0.5938 0.5592,-0.5938 z" fill="#2f3ae9"></path><g id="Group_6"><g id="Group_7"><path id="Vector_2" d="m 82.6791,22.0033 c 2.0058,0 3.6318,-1.6179 3.6318,-3.6137 0,-1.9958 -1.626,-3.6137 -3.6318,-3.6137 -2.0058,0 -3.6319,1.6179 -3.6319,3.6137 0,1.9958 1.6261,3.6137 3.6319,3.6137 z" stroke="#171b65" stroke-width="0.3" stroke-linecap="round" stroke-linejoin="round"></path><path id="Vector_3" d="m 82.4098,13.9431 c -0.6247,0.0374 -1.2155,0.21 -1.7419,0.49 -1.2567,0.6687 -2.1459,1.9457 -2.2575,3.4303 0,0.006 0,0.012 -0.0012,0.0181 -0.262,2.4151 1.3149,3.4616 1.3149,3.4616 l 0.8795,-2.5504 5.3664,-2.2691 c 0.2948,-0.1243 0.4015,-0.4876 0.2196,-0.7507 -0.8164,-1.1756 -2.2126,-1.9228 -3.7786,-1.8298 z" fill="#a5f0bd" stroke="#a5f0bd" stroke-width="0.3" stroke-linecap="round" stroke-linejoin="round"></path><path id="Vector_4" d="m 84.0922,18.5562 0.37,0.9161 -0.575,0.2619" stroke="#171b65" stroke-width="0.3" stroke-linecap="round" stroke-linejoin="round"></path><g id="Group_8"><path id="Vector_5" d="m 84.7861,18.6117 c 0.075,0 0.1359,-0.0606 0.1359,-0.1352 0,-0.0747 -0.0609,-0.1352 -0.1359,-0.1352 -0.075,0 -0.1359,0.0605 -0.1359,0.1352 0,0.0746 0.0609,0.1352 0.1359,0.1352 z" fill="#171b65"></path><path id="Vector_6" d="m 83.1534,19.0547 c 0.075,0 0.1358,-0.0606 0.1358,-0.1352 0,-0.0747 -0.0608,-0.1352 -0.1358,-0.1352 -0.0751,0 -0.1359,0.0605 -0.1359,0.1352 0,0.0746 0.0608,0.1352 0.1359,0.1352 z" fill="#171b65"></path></g></g><path id="Vector_7" d="m 82.6366,20.3256 c 0.9826,0.3319 2.0039,0.0591 2.3242,-0.647" stroke="#171b65" stroke-width="0.3" stroke-linecap="round" stroke-linejoin="round"></path></g><g id="Group_9"><g id="Group_10"><path id="Vector_8" d="m 80.9129,79.1793 c 0,-0.0073 0,-0.0145 0,-0.023 0.023,-2.158 0.1019,-4.3041 0.2111,-6.4465 h -8.0703 c -0.3397,1.2191 -0.9777,2.3018 -2.2575,3.0875 -0.0473,0.029 -0.0946,0.0567 -0.1431,0.0857 -1.0542,0.6071 -2.2478,0.9644 -3.257,1.6427 -0.6175,0.4152 -1.4302,1.1659 -1.5551,1.9432 -0.0279,0.1702 -0.0364,0.3042 -0.0279,0.408 H 80.196 c 0.3857,0 0.7096,-0.303 0.7169,-0.6868 0,-0.0036 0,-0.006 0,-0.0096 z" fill="#62c283"></path><path id="Vector_9" d="m 76.1117,37.2391 c -0.5786,6.9063 -3.0581,35.472 -3.0581,35.472 h 8.0704 l 1.9469,-29.8523 v -5.6197 z" fill="#a5f0bd"></path><path id="Vector_10" d="M 65.8398,78.9343 H 80.9129" stroke="#ffffff" stroke-width="0.3" stroke-linecap="round" stroke-linejoin="round"></path><path id="Vector_11" d="m 73.1034,72.7207 h 8.0133" stroke="#ffffff" stroke-width="0.3" stroke-linecap="round" stroke-linejoin="round"></path></g><g id="Group_11"><path id="Vector_12" d="m 85.1658,79.1793 c 0,-0.0073 0,-0.0145 0,-0.023 -0.0231,-2.158 -0.1019,-4.3041 -0.2111,-6.4465 h 8.0703 c 0.3397,1.2191 0.9777,2.3018 2.2575,3.0875 0.0473,0.029 0.0946,0.0567 0.1431,0.0857 1.0541,0.6071 2.2478,0.9644 3.257,1.6427 0.6174,0.4152 1.4304,1.1659 1.5554,1.9432 0.028,0.1702 0.036,0.3042 0.028,0.408 H 85.8827 c -0.3858,0 -0.7096,-0.303 -0.7169,-0.6868 0,-0.0036 0,-0.006 0,-0.0096 z" fill="#62c283"></path><path id="Vector_13" d="m 89.967,37.2391 c 0.5786,6.9063 3.058,35.472 3.058,35.472 H 84.9547 L 83.0078,42.8588 v -5.6197 z" fill="#a5f0bd"></path><path id="Vector_14" d="M 100.239,78.9343 H 85.1658" stroke="#ffffff" stroke-width="0.3" stroke-linecap="round" stroke-linejoin="round"></path><path id="Vector_15" d="M 92.9753,72.7207 H 84.962" stroke="#ffffff" stroke-width="0.3" stroke-linecap="round" stroke-linejoin="round"></path></g></g></g><path id="Vector_16" d="m 82.2036,17.1959 2.2513,-0.9776" stroke="#171b65" stroke-width="0.3" stroke-linecap="round" stroke-linejoin="round"></path></g><g id="Group_12"><g id="Group_13"><g id="Group_14"><path id="Vector_17" d="m 63.3009,79.8793 c 6.6612,0 12.0612,-5.373 12.0612,-12.001 0,-6.628 -5.4,-12.001 -12.0612,-12.001 -6.6612,0 -12.0612,5.373 -12.0612,12.001 0,6.628 5.4,12.001 12.0612,12.001 z" stroke="#171b65" stroke-width="0.3" stroke-linecap="round" stroke-linejoin="round"></path><path id="Vector_18" d="m 63.3009,70.4697 c 1.4383,0 2.6044,-1.1603 2.6044,-2.5914 0,-1.4312 -1.1661,-2.5914 -2.6044,-2.5914 -1.4384,0 -2.6044,1.1602 -2.6044,2.5914 0,1.4311 1.166,2.5914 2.6044,2.5914 z" stroke="#171b65" stroke-width="0.3" stroke-linecap="round" stroke-linejoin="round"></path></g><path id="Vector_19" d="m 105.436,48.4482 c 0,0 -1.978,-0.047 -7.4861,14.4754 -3.5905,9.4651 -10.876,8.9474 -10.876,8.9474 -8.6635,0 -10.9185,-8.5419 -10.9185,-8.5419 -1.7104,-5.4736 -6.8415,-9.447 -12.9055,-9.447 -4.9588,0 -9.293,2.6578 -11.6439,6.6191 -0.1759,0.2957 -0.6271,0.0736 -0.4961,-0.2426 0.8661,-2.0857 2.6444,-5.015 6.2932,-8.3198" stroke="#171b65" stroke-width="0.3" stroke-linecap="round" stroke-linejoin="round"></path><path id="Vector_20" d="m 100.535,56.6111 c 0.554,1.3156 0.899,3.1514 0.781,4.7072 -0.027,0.3609 0.413,0.4937 0.58,0.1798 5.364,-10.0626 17.312,-7.4072 20.466,-4.088 h 0.91 c -0.721,-2.7495 -2.547,-9.0524 -17.71,-9.0524" stroke="#171b65" stroke-width="0.3" stroke-linecap="round" stroke-linejoin="round"></path><g id="Group_15"><path id="Vector_21" d="m 113.688,79.8443 c 6.661,0 12.061,-5.3731 12.061,-12.001 0,-6.628 -5.4,-12.0011 -12.061,-12.0011 -6.661,0 -12.061,5.3731 -12.061,12.0011 0,6.6279 5.4,12.001 12.061,12.001 z" stroke="#171b65" stroke-width="0.3" stroke-linecap="round" stroke-linejoin="round"></path><path id="Vector_22" d="m 113.688,70.4346 c 1.438,0 2.604,-1.1602 2.604,-2.5914 0,-1.4312 -1.166,-2.5914 -2.604,-2.5914 -1.439,0 -2.605,1.1602 -2.605,2.5914 0,1.4312 1.166,2.5914 2.605,2.5914 z" stroke="#171b65" stroke-width="0.3" stroke-linecap="round" stroke-linejoin="round"></path></g><path id="Vector_23" d="m 99.6166,37.1328 5.8674,11.2551" stroke="#171b65" stroke-width="0.3" stroke-linecap="round" stroke-linejoin="round"></path><path id="Vector_24" d="m 61.838,53.8592 -8.8188,-4.0361 c -0.9813,-0.449 -1.4144,-1.6029 -0.9692,-2.583 l 0.8892,-2.589 3.9459,0.4502 c 10.4091,1.1889 20.937,-0.0784 30.8123,-3.5618 4.2662,-1.5051 9.2409,-1.7344 13.9246,-0.3983" stroke="#171b65" stroke-width="0.3" stroke-linecap="round" stroke-linejoin="round"></path><path id="Vector_25" d="M 68.1942,54.861 H 101.316" stroke="#171b65" stroke-width="0.3" stroke-linecap="round" stroke-linejoin="round"></path><path id="Vector_26" d="m 99.6166,37.1328 7.4054,2.5443 c 1.689,0.5806 2.867,2.1062 2.995,3.8781 0.183,2.5419 -1.955,4.7615 -4.517,4.8025" stroke="#171b65" stroke-width="0.3" stroke-linecap="round" stroke-linejoin="round"></path></g><path id="Vector_27" d="M 76.6685,44.697 V 54.7728" stroke="#171b65" stroke-width="0.3" stroke-linecap="round" stroke-linejoin="round"></path></g><path id="Vector_28" d="m 73.1725,24.643 c -3.3358,1.901 -10.3508,12.0698 -4.043,20.5996" stroke="#171b65" stroke-width="0.3" stroke-linecap="round" stroke-linejoin="round"></path><path id="Vector_29" d="m 74.6282,31.6435 c -2.2648,1.1261 -4.0843,9.1332 -1.1318,10.1881 1.3865,-0.6336 5.5387,-0.5322 6.4291,1.8419" stroke="#171b65" stroke-width="0.3" stroke-linecap="round" stroke-linejoin="round"></path><path id="Vector_30" d="M 78.8871,43.9873 C 78.7828,43.2909 77.7214,42.7175 76.5993,42.627" stroke="#171b65" stroke-width="0.3" stroke-linecap="round" stroke-linejoin="round"></path><path id="Vector_31" d="m 92.2778,23.9767 c 3.1539,2.6554 7.5208,8.5696 7.8242,13.82" stroke="#171b65" stroke-width="0.3" stroke-linecap="round" stroke-linejoin="round"></path><path id="Vector_32" d="M 75.1134,44.7513 V 54.8755" stroke="#171b65" stroke-width="0.3" stroke-linecap="round" stroke-linejoin="round"></path><path id="Vector_33" d="m 100.86,39.507 h -3.912 v -1.4086 h 3.114" stroke="#171b65" stroke-width="0.3" stroke-linecap="round" stroke-linejoin="round"></path><path id="Vector_34" d="m 91.2686,31.2633 c 1.7855,2.2909 3.1538,5.9758 3.6779,8.8279" stroke="#171b65" stroke-width="0.3" stroke-linecap="round" stroke-linejoin="round"></path><path id="Vector_35" d="m 83.2007,24.5404 v 12.03" stroke="#171b65" stroke-width="0.3" stroke-linecap="round" stroke-linejoin="round"></path><g id="Group_16"><path id="Vector_36" d="m 86.4759,25.7474 h 3.0325" stroke="#171b65" stroke-width="0.3" stroke-linecap="round" stroke-linejoin="round"></path><path id="Vector_37" d="m 86.4759,26.3509 h 3.0325" stroke="#171b65" stroke-width="0.3" stroke-linecap="round" stroke-linejoin="round"></path></g><g id="Group_17"><path id="Vector_38" d="m 76.6091,25.7474 h 3.0325" stroke="#171b65" stroke-width="0.3" stroke-linecap="round" stroke-linejoin="round"></path><path id="Vector_39" d="m 76.6091,26.3509 h 3.0325" stroke="#171b65" stroke-width="0.3" stroke-linecap="round" stroke-linejoin="round"></path></g><g id="Group_18"><path id="Vector_40" d="m 84.1796,28.0804 c 0.1668,0 0.302,-0.1345 0.302,-0.3005 0,-0.166 -0.1352,-0.3005 -0.302,-0.3005 -0.1668,0 -0.3021,0.1345 -0.3021,0.3005 0,0.166 0.1353,0.3005 0.3021,0.3005 z" fill="#171b65"></path><path id="Vector_41" d="m 84.1796,30.7056 c 0.1668,0 0.302,-0.1345 0.302,-0.3005 0,-0.166 -0.1352,-0.3005 -0.302,-0.3005 -0.1668,0 -0.3021,0.1345 -0.3021,0.3005 0,0.166 0.1353,0.3005 0.3021,0.3005 z" fill="#171b65"></path><path id="Vector_42" d="m 84.1796,33.332 c 0.1668,0 0.302,-0.1345 0.302,-0.3005 0,-0.166 -0.1352,-0.3005 -0.302,-0.3005 -0.1668,0 -0.3021,0.1345 -0.3021,0.3005 0,0.166 0.1353,0.3005 0.3021,0.3005 z" fill="#171b65"></path><path id="Vector_43" d="m 84.1796,35.9572 c 0.1668,0 0.302,-0.1345 0.302,-0.3005 0,-0.166 -0.1352,-0.3006 -0.302,-0.3006 -0.1668,0 -0.3021,0.1346 -0.3021,0.3006 0,0.166 0.1353,0.3005 0.3021,0.3005 z" fill="#171b65"></path></g></g></g><path id="Vector_44" d="m 80.7831,18.7843 c 0,0 0.2911,3.1382 2.8409,3.1382" stroke="#a5f0bd" stroke-width="0.3" stroke-linecap="round" stroke-linejoin="round"></path></g></g></g><defs id="defs1926"><clipPath id="clip0_1214_3150"><rect width="163" height="80" fill="#ffffff" id="rect1923" x="0" y="0"></rect></clipPath></defs></svg> 