<?xml version="1.0" encoding="UTF-8" standalone="no"?> <svg xmlns:inkscape="http://www.inkscape.org/namespaces/inkscape" xmlns:sodipodi="http://sodipodi.sourceforge.net/DTD/sodipodi-0.dtd" xmlns="http://www.w3.org/2000/svg" xmlns:svg="http://www.w3.org/2000/svg" width="69.549423" height="48" viewBox="0 0 69.549423 48" fill="none" version="1.1" id="svg973" sodipodi:docname="Group 1493.svg" inkscape:version="1.2.2 (732a01da63, 2022-12-09, custom)"><defs id="defs977"></defs><g id="Group 1493" transform="translate(-0.508575)"><g id="Group"><g id="Group_2"><path id="Vector" d="m 18.701,33.522 c 10.0474,0 18.1925,-1.9203 18.1925,-4.2892 0,-2.3688 -8.1451,-4.2892 -18.1925,-4.2892 -10.04739,0 -18.192425,1.9204 -18.192425,4.2892 0,2.3689 8.145035,4.2892 18.192425,4.2892 z" fill="#2f3ae9"></path><path id="Vector_2" d="M 36.8966,18.4481 H 0.508575 V 29.5459 H 36.8966 Z" fill="#2f3ae9"></path><path id="Vector_3" d="m 18.701,22.6801 c 10.0474,0 18.1925,-1.9284 18.1925,-4.3072 0,-2.3789 -8.1451,-4.3073 -18.1925,-4.3073 -10.04739,0 -18.192425,1.9284 -18.192425,4.3073 0,2.3788 8.145035,4.3072 18.192425,4.3072 z" fill="#171669"></path></g><path id="Vector_4" d="m 20.1388,0.00300947 c 0,0 -7.8139,1.42673053 -6.9395,10.03529053 0.9913,5.0176 4.378,5.3938 5.9512,5.3938 1.5733,0 5.7758,-1.5682 5.8928,-5.44803 0,0 0.1693,-2.74208 -1.8719,-4.85207 -1.5178,1.99561 -5.5418,0 -3.0326,-5.132" fill="#a5f0bd"></path></g><g id="Group_3"><path id="Vector_5" d="m 45.4247,48 c 13.6046,0 24.6333,-2.3044 24.6333,-5.1471 0,-2.8426 -11.0287,-5.147 -24.6333,-5.147 -13.6045,0 -24.6332,2.3044 -24.6332,5.147 0,2.8427 11.0287,5.1471 24.6332,5.1471 z" fill="#2f3ae9"></path><path id="Vector_6" d="M 70.058,29.9131 H 20.7915 V 43.2322 H 70.058 Z" fill="#2f3ae9"></path><path id="Vector_7" d="m 45.4247,34.9939 c 13.6046,0 24.6333,-2.3138 24.6333,-5.1681 0,-2.8543 -11.0287,-5.1681 -24.6333,-5.1681 -13.6045,0 -24.6332,2.3138 -24.6332,5.1681 0,2.8543 11.0287,5.1681 24.6332,5.1681 z" fill="#171669"></path></g><path id="Vector_8" d="m 46.881,5.50824 c 0,0 -10.8342,1.97755 -9.6212,13.91206 1.3731,6.9561 6.0683,7.4798 8.248,7.4798 2.1798,0 8.0079,-2.1762 8.1711,-7.552 0,0 0.237,-3.8016 -2.5954,-6.7243 -2.1028,2.7662 -7.6816,0 -4.2056,-7.11556" fill="#7abf87"></path></g></svg> 