<?xml version="1.0" encoding="UTF-8" standalone="no"?> <svg xmlns:inkscape="http://www.inkscape.org/namespaces/inkscape" xmlns:sodipodi="http://sodipodi.sourceforge.net/DTD/sodipodi-0.dtd" xmlns="http://www.w3.org/2000/svg" xmlns:svg="http://www.w3.org/2000/svg" width="62.568607" height="60.999962" viewBox="0 0 62.568607 60.999962" fill="none" version="1.1" id="svg1726" sodipodi:docname="sarasa.svg" inkscape:version="1.2.2 (732a01da63, 2022-12-09, custom)"><defs id="defs1730"></defs><g id="Capa 1" transform="translate(-0.274292,-0.540039)"><g id="Group"><path id="Vector" d="m 31.5586,61.54 c 17.2778,0 31.2843,-13.6553 31.2843,-30.5 C 62.8429,14.1954 48.8364,0.540039 31.5586,0.540039 14.2807,0.540039 0.274292,14.1954 0.274292,31.04 c 0,16.8447 14.006408,30.5 31.284308,30.5 z" fill="#2f3ae9"></path><g id="Group_2"><path id="Vector_2" d="m 31.5586,48.5607 c -9.9085,0 -17.9692,-7.8586 -17.9692,-17.5187 0,-9.6601 8.0607,-17.5187 17.9692,-17.5187 9.9085,0 17.9692,7.8586 17.9692,17.5187 0,9.6601 -8.0607,17.5187 -17.9692,17.5187 z m 0,-34.6426 c -9.6846,0 -17.5622,7.6821 -17.5622,17.1219 0,9.4399 7.8796,17.1219 17.5622,17.1219 9.6826,0 17.5622,-7.682 17.5622,-17.1219 0,-9.4398 -7.8796,-17.1219 -17.5622,-17.1219 z" fill="#181b61"></path><g id="Group_3"><path id="Vector_3" d="m 31.4019,45.8744 c 8.4113,0 15.23,-6.6478 15.23,-14.8482 0,-8.2005 -6.8187,-14.8483 -15.23,-14.8483 -8.4113,0 -15.2301,6.6478 -15.2301,14.8483 0,8.2004 6.8188,14.8482 15.2301,14.8482 z" fill="#a5f0bd"></path><path id="Vector_4" d="m 31.7173,33.3633 c 1.6679,0 3.02,-1.3182 3.02,-2.9443 0,-1.626 -1.3521,-2.9442 -3.02,-2.9442 -1.6679,0 -3.02,1.3182 -3.02,2.9442 0,1.6261 1.3521,2.9443 3.02,2.9443 z" fill="#ffffff"></path><path id="Vector_5" d="m 20.7628,23.8738 1.6992,-2.4165 c 0.7306,-1.0396 2.3403,-0.9166 2.8979,0.2183 l 1.2983,2.6427 0.5719,1.1646 c 0.8791,1.7935 -0.5597,3.843 -2.5926,3.6882 L 23.3167,29.0719 20.3212,28.8457 C 19.033,28.7485 18.3371,27.328 19.0676,26.2903 l 1.6993,-2.4165 z" fill="#2f3ae9"></path><path id="Vector_6" d="M 42.7572,23.3778 41.058,20.9613 c -0.7306,-1.0396 -2.3403,-0.9166 -2.8979,0.2183 l -1.2983,2.6427 -0.5718,1.1646 c -0.8792,1.7935 0.5596,3.843 2.5926,3.6882 l 1.3207,-0.0992 2.9955,-0.2262 c 1.2882,-0.0972 1.9842,-1.5177 1.2536,-2.5554 l -1.6992,-2.4165 z" fill="#2f3ae9"></path><path id="Vector_7" d="m 20.4046,37.0535 -1.569,-2.4998 c -0.6735,-1.0733 0.0977,-2.4562 1.3879,-2.4879 l 3.0037,-0.0734 1.3248,-0.0318 c 2.0371,-0.0496 3.368,2.0693 2.3932,3.8152 l -0.6329,1.1349 -1.4367,2.5732 c -0.6166,1.1051 -2.2304,1.1468 -2.906,0.0715 l -1.569,-2.4999 z" fill="#2f3ae9"></path><path id="Vector_8" d="m 43.3637,36.998 -1.5222,2.5256 c -0.6553,1.0853 -2.2691,1.0734 -2.906,-0.0218 L 37.454,36.9523 36.8007,35.8294 c -1.0052,-1.7281 0.285,-3.8708 2.324,-3.8549 l 1.3248,0.0099 3.0057,0.0218 c 1.2923,0.01 2.088,1.3789 1.4327,2.4642 l -1.5222,2.5256 z" fill="#2f3ae9"></path><path id="Vector_9" d="M 31.5952,43.5849 28.5895,43.569 c -1.2923,-0.006 -2.092,-1.3749 -1.4388,-2.4621 l 1.5161,-2.5296 0.6675,-1.1151 c 1.0297,-1.7161 3.5775,-1.7022 4.5869,0.0239 l 0.6553,1.1209 1.4876,2.5455 c 0.639,1.0932 -0.175,2.4522 -1.4673,2.4463 l -3.0057,-0.0159 z" fill="#2f3ae9"></path><path id="Vector_10" d="m 31.2431,17.2671 3.0017,-0.1567 c 1.2902,-0.0675 2.1713,1.2519 1.5853,2.3748 l -1.3615,2.613 -0.6003,1.1507 c -0.9239,1.7717 -3.4677,1.9046 -4.5808,0.24 l -0.7224,-1.0812 -1.6403,-2.4543 c -0.7041,-1.0554 0.0265,-2.4581 1.3167,-2.5256 l 3.0016,-0.1567 z" fill="#2f3ae9"></path></g></g></g></g></svg> 