<?xml version="1.0" encoding="UTF-8" standalone="no"?> <svg xmlns:inkscape="http://www.inkscape.org/namespaces/inkscape" xmlns:sodipodi="http://sodipodi.sourceforge.net/DTD/sodipodi-0.dtd" xmlns="http://www.w3.org/2000/svg" xmlns:svg="http://www.w3.org/2000/svg" width="53.043304" height="73.250259" viewBox="0 0 53.043304 73.250259" fill="none" version="1.1" id="svg743" sodipodi:docname="accidentes.svg" inkscape:version="1.2.2 (732a01da63, 2022-12-09, custom)"><defs id="defs747"></defs><g id="Mask group" inkscape:export-filename="accidentes.png" inkscape:export-xdpi="92" inkscape:export-ydpi="92" transform="translate(-52.747284,-5.7497413)"><mask id="mask0_1214_2274" maskUnits="userSpaceOnUse" x="0" y="0" width="163" height="79"><path id="Rectangle 1245" d="m 0,0 h 149 c 7.732,0 14,6.26801 14,14 v 51 c 0,7.732 -6.268,14 -14,14 H 0 Z" fill="#fafafa"></path></mask><g mask="url(#mask0_1214_2274)" id="g740"><g id="Capa 1"><g id="Group"><g id="Group_2"><g id="Group_3"><g id="Group_4"><path id="Vector" d="m 104.926,46.9611 c 0.486,0 0.882,-0.4048 0.864,-0.8929 C 105.322,33.9519 95.3833,24.274 83.1893,24.274 c -12.194,0 -22.1325,9.6779 -22.6002,21.7942 -0.0189,0.4881 0.3771,0.8929 0.8637,0.8929 z" fill="#313adf"></path><g id="Group_5"><g id="Group_6"><path id="Vector_2" d="M 72.4173,46.9688 C 71.5177,57.7931 67.663,102.564 67.663,102.564 h 12.5467 l 3.0268,-46.7875 v -8.8077 z" fill="#a5f0bd"></path></g><g id="Group_7"><path id="Vector_3" d="m 93.9595,46.9688 c 0.8996,10.8243 4.7543,55.5952 4.7543,55.5952 H 86.1671 L 83.1403,55.7765 v -8.8077 c 5.4125,0 10.8192,0 10.8192,0 z" fill="#a5f0bd"></path></g></g></g><path id="Vector_4" d="m 99.3456,46.9082 c 0.3263,6.5226 0.7924,13.0376 1.3914,19.5412 0.136,1.4604 0.276,2.9435 -0.011,4.3812 -0.287,1.4377 -1.5256,3.7682 -4.4487,3.6737" stroke="#181b61" stroke-width="0.5" stroke-linecap="round" stroke-linejoin="round"></path><path id="Vector_5" d="m 98.8081,66.7049 c 0.2075,1.0347 0.2829,2.0941 0.2263,3.1477 -0.0282,0.5108 -0.1018,1.0556 -0.4431,1.4339 -0.3414,0.3803 -1.0354,0.4692 -1.3296,0.053 -0.1244,-0.1759 -0.1546,-0.3991 -0.181,-0.6129 -0.1622,-1.3374 -0.3263,-2.673 -0.4884,-4.0104" stroke="#181b61" stroke-width="0.5" stroke-linecap="round" stroke-linejoin="round"></path><path id="Vector_6" d="m 64.9758,55.4852 c 1.0032,0.4597 2.148,0.6375 3.2531,0.7983 2.5912,0.3765 5.1842,0.7548 7.7754,1.1312 1.2975,0.1892 2.5969,0.3784 3.9,0.5222 1.9311,0.2137 3.8981,0.3272 5.8066,-0.0322 0.6072,-0.1135 1.2182,-0.2819 1.7274,-0.6337 0.5243,-0.3613 0.9034,-0.8948 1.2485,-1.432 1.2333,-1.9239 1.9085,-3.8648 2.5063,-6.0289 1.0938,-3.9555 -1.5012,-5.8112 -5.1937,-6.6587 -2.0141,-0.4616 -4.1017,-0.4635 -6.1668,-0.4616 -1.7821,0 -3.5643,0.0019 -5.3464,0.0038 -3.5266,0.0019 -7.8546,0.2346 -9.8612,3.6301 -0.8543,1.4472 -1.2353,3.1176 -1.5973,4.7596 -0.1717,0.7755 -0.3395,1.5947 -0.1056,2.3551 0.1829,0.594 0.6016,1.0953 1.0938,1.4736 0.2998,0.2308 0.6223,0.4181 0.9618,0.5751 z" fill="#f1f1f1"></path><path id="Vector_7" d="m 84.3078,42.6558 c 1.2069,-0.1097 2.4195,-0.1551 3.6321,-0.14 0.5337,0.0076 1.1052,0.0398 1.5314,0.3613 0.4262,0.3216 0.5846,1.0443 0.1735,1.3829" stroke="#181b61" stroke-width="0.5" stroke-linecap="round" stroke-linejoin="round"></path><path id="Vector_8" d="m 64.0667,53.4212 c -1.0617,-0.07 -2.1216,-0.14 -3.1833,-0.21 -1.4465,-0.0946 -2.9439,-0.2062 -4.2187,-0.9005 -1.2296,-0.6715 -2.1348,-1.8368 -2.7326,-3.108 -2.1593,-4.6025 -0.3414,-10.3135 3.1399,-14.0137 3.4814,-3.7001 8.3073,-5.7829 13.0672,-7.5384" stroke="#181b61" stroke-width="0.5" stroke-linecap="round" stroke-linejoin="round"></path><path id="Vector_9" d="m 91.2703,46.8137 c 0.5036,0.0775 1.0071,0.1532 1.5125,0.2307 0.4187,0.0644 0.8468,0.1306 1.2145,0.3424 0.3678,0.2119 0.6619,0.6016 0.6355,1.0253 -0.0264,0.4181 -0.3602,0.7681 -0.7449,0.9345 -0.3847,0.1665 -0.8128,0.1873 -1.2314,0.2043 -0.4828,0.0208 -0.9637,0.0417 -1.4465,0.0606" stroke="#181b61" stroke-width="0.5" stroke-linecap="round" stroke-linejoin="round"></path><path id="Vector_10" d="m 91.2778,49.6645 1.7237,0.2629 c 0.4771,0.0719 0.9675,0.1494 1.3861,0.3916 0.4187,0.2421 0.7563,0.6867 0.7261,1.1709 -0.0302,0.4786 -0.4111,0.8759 -0.8487,1.0651 -0.4375,0.191 -0.9278,0.2137 -1.403,0.2327 -0.5507,0.0227 -1.0995,0.0472 -1.6502,0.0699" stroke="#181b61" stroke-width="0.5" stroke-linecap="round" stroke-linejoin="round"></path><path id="Vector_11" d="m 90.1727,52.7499 c 0.5337,0.0814 1.0674,0.1627 1.6011,0.2441 0.4432,0.0681 0.8977,0.14 1.2862,0.3632 0.3885,0.2232 0.7015,0.6375 0.6732,1.0858 -0.0282,0.4427 -0.3828,0.8134 -0.7883,0.9894 -0.4073,0.1759 -0.8599,0.1986 -1.3031,0.2175 -0.511,0.0208 -1.0202,0.0435 -1.5313,0.0643" stroke="#181b61" stroke-width="0.5" stroke-linecap="round" stroke-linejoin="round"></path><path id="Vector_12" d="m 89.3921,55.6913 c 0.2923,0.0435 0.5903,0.0908 0.8468,0.2383 0.2565,0.1476 0.462,0.42 0.4431,0.7151 -0.0188,0.2913 -0.2508,0.5353 -0.5186,0.6507 -0.2678,0.1154 -0.5657,0.1306 -0.858,0.1419 -0.3357,0.0151 -0.6714,0.0284 -1.0071,0.0435" stroke="#181b61" stroke-width="0.5" stroke-linecap="round" stroke-linejoin="round"></path><path id="Vector_13" d="m 77.9637,25.1367 c -0.6035,0.7359 -0.9109,1.7801 -1.405,2.9454 -0.8694,2.0563 -1.7388,4.1144 -2.6082,6.1707 -2.0631,4.8806 -4.1262,9.7611 -6.1894,14.6398 -0.8298,1.9655 -1.6614,3.931 -2.4912,5.8945 -0.1528,0.3614 0.0622,0.7719 0.4451,0.8494 2.4082,0.4918 10.2195,2.0222 16.2278,2.4668 0.4263,0.0321 0.7808,-0.3197 0.76,-0.7472 -0.1904,-3.7229 -0.3809,-7.4439 -0.5714,-11.1667 -0.296,-5.781 -0.3243,-11.511 -0.5148,-17.3071 -0.0321,-0.9837 0.3734,-4.0577 -0.4602,-4.733 -0.8184,-0.664 -2.6534,0.3253 -3.1946,0.9837 z" fill="#62c283"></path><path id="Vector_14" d="m 87.1082,30.0588 h 3.8472 v 1.9296 c 0,1.065 -0.8619,1.9295 -1.9236,1.9295 -1.0617,0 -1.9236,-0.8645 -1.9236,-1.9295 z" stroke="#ffffff" stroke-width="0.5" stroke-linecap="round" stroke-linejoin="round"></path></g><g id="Group_8"><g id="Group_9"><path id="Vector_15" d="M 81.1187,9.40152 81.23,9.43557 C 81.2243,9.41665 81.2206,9.39773 81.2149,9.37881 81.1829,9.38638 81.1508,9.39395 81.1187,9.40152 Z" fill="#a5f0bd"></path><g id="Group_10"><path id="Vector_16" d="m 86.4067,16.2229 c 0.1385,0 0.2508,-0.1127 0.2508,-0.2516 0,-0.139 -0.1123,-0.2516 -0.2508,-0.2516 -0.1385,0 -0.2508,0.1126 -0.2508,0.2516 0,0.1389 0.1123,0.2516 0.2508,0.2516 z" fill="#171b65"></path><path id="Vector_17" d="m 83.4026,17.0439 c 0.1385,0 0.2508,-0.1127 0.2508,-0.2516 0,-0.139 -0.1123,-0.2516 -0.2508,-0.2516 -0.1385,0 -0.2508,0.1126 -0.2508,0.2516 0,0.1389 0.1123,0.2516 0.2508,0.2516 z" fill="#171b65"></path></g><path id="Vector_18" d="m 85.096,16.1361 0.6695,1.6703 -1.0391,0.4786" stroke="#171b65" stroke-width="0.5" stroke-linecap="round" stroke-linejoin="round"></path></g><path id="Vector_19" d="m 86.2105,19.6373 c -0.0943,-0.3235 -0.4318,-0.5089 -0.7543,-0.4124 -0.3225,0.0946 -0.5073,0.4332 -0.4111,0.7567" stroke="#171b65" stroke-width="0.5" stroke-linecap="round" stroke-linejoin="round"></path><path id="Vector_20" d="m 82.6351,16.1682 c -0.2113,0.2289 -0.4206,0.4597 -0.6318,0.6886" stroke="#171b65" stroke-width="0.5" stroke-linecap="round" stroke-linejoin="round"></path></g></g><g id="Group_11"><g id="Group_12"><path id="Vector_21" d="m 88.1963,12.2714 c 0.6733,1.0404 1.0636,2.2833 1.0636,3.6169 0,3.6756 -2.9702,6.655 -6.6344,6.655 -2.5196,0 -4.709,-1.4074 -5.833,-3.4826" stroke="#171b65" stroke-width="0.5" stroke-linecap="round" stroke-linejoin="round"></path><path id="Vector_22" d="M 81.2866,9.36749 C 81.1659,8.90213 81.0659,8.43677 81.3054,8.0206 81.5072,7.66875 81.9353,7.48336 82.337,7.51741 c 0.4017,0.03405 0.7713,0.26295 1.0353,0.5694 -0.4526,-0.31213 -0.4526,-1.0461 -0.1339,-1.49444 0.3188,-0.44833 0.9166,-0.63939 1.4635,-0.58264 0.5469,0.05675 1.0504,0.32727 1.4974,0.64885 0.8693,0.62615 1.5954,1.48687 1.9386,2.50461 0.3451,1.01771 0.5507,2.37411 -0.0848,3.23861 -1.7954,2.4402 -6.2309,0.331 -7.4964,0.5977 -1.6124,0.3405 -0.7241,2.0771 -0.6091,2.5254 0.1245,0.4881 -0.6789,0.997 -1.2296,-0.3007 -0.2319,-0.5467 -1.3352,-0.2857 -0.7826,0.8323 0,0 0.7053,2.2019 -1.0825,3.1081" stroke="#62c283" stroke-width="0.5" stroke-linecap="round" stroke-linejoin="round"></path></g><path id="Vector_23" d="m 76.7944,19.0585 c -0.5111,-0.942 -0.8015,-2.0241 -0.8015,-3.1724 0,-3.2139 2.2724,-5.89636 5.2936,-6.51873" stroke="#62c283" stroke-width="0.5" stroke-linecap="round" stroke-linejoin="round"></path></g></g></g></g></g></svg> 