<?xml version="1.0" encoding="UTF-8"?> <svg xmlns="http://www.w3.org/2000/svg" width="60" height="69" viewBox="0 0 60 69" fill="none"><g id="Group 1489"><g id="Group"><path id="Vector" d="M44.446 60.6975C42.798 60.6975 41.4562 59.6955 41.4562 58.4647C41.4562 57.5832 42.1367 56.8015 43.1829 56.4398C42.6895 56.0011 42.394 55.3255 42.394 54.5978C42.394 53.3089 43.3147 52.2611 44.446 52.2611C45.5773 52.2611 46.4981 53.3089 46.4981 54.5978C46.4981 55.3276 46.2025 56.0032 45.7091 56.4398C46.7554 56.8015 47.4359 57.5832 47.4359 58.4647C47.4359 59.6955 46.094 60.6975 44.446 60.6975ZM44.446 52.6187C43.5167 52.6187 42.7597 53.5064 42.7597 54.5999C42.7597 55.3442 43.1106 56.0199 43.6762 56.3608C43.7379 56.3982 43.7719 56.4689 43.7592 56.5396C43.7485 56.6103 43.6932 56.6685 43.6231 56.6851C42.5449 56.9408 41.8219 57.656 41.8219 58.4668C41.8219 59.5021 43 60.342 44.4481 60.342C45.8963 60.342 47.0744 59.5 47.0744 58.4668C47.0744 57.656 46.3492 56.9408 45.2732 56.6851C45.2009 56.6685 45.1478 56.6103 45.1371 56.5396C45.1265 56.4689 45.1584 56.3982 45.2201 56.3608C45.7857 56.0199 46.1366 55.3442 46.1366 54.5999C46.1366 53.5085 45.3795 52.6187 44.4503 52.6187H44.446Z" fill="#75CE96"></path><g id="Group_2"><path id="Vector_2" d="M43.1872 67.4001H46.2897L47.2445 60.5936H43.1872V67.4001Z" fill="white"></path><path id="Vector_3" d="M46.2897 67.5789H43.1872C43.0872 67.5789 43.0043 67.4999 43.0043 67.4001V60.5936C43.0043 60.4959 43.0851 60.4148 43.1872 60.4148H47.2445C47.2976 60.4148 47.3466 60.4377 47.3806 60.4751C47.4146 60.5125 47.4316 60.5645 47.4231 60.6165L46.4683 67.423C46.4556 67.5103 46.379 67.5768 46.2876 67.5768L46.2897 67.5789ZM43.3679 67.2234H46.1302L47.0361 60.7724H43.3679V67.2234Z" fill="#171B65"></path></g><g id="Group_3"><path id="Vector_4" d="M43.2956 2.27649H3.00928V67.3232H43.2956V2.27649Z" fill="white"></path><path id="Vector_5" d="M43.2977 67.6018H3.00929C2.90935 67.6018 2.82642 67.4771 2.82642 67.3253V2.2765C2.82642 2.12266 2.90722 2 3.00929 2H43.2977C43.3976 2 43.4806 2.12474 43.4806 2.2765V67.3232C43.4806 67.4771 43.3998 67.5997 43.2977 67.5997V67.6018ZM3.19217 67.0467H43.1148V2.55301H3.19217V67.0467Z" fill="#171B65"></path></g><g id="Group_4"><path id="Vector_6" d="M45.3412 0.153809H0.965729V2.39909H45.3412V0.153809Z" fill="white"></path><path id="Vector_7" d="M45.3413 2.55297H0.965745C0.8658 2.55297 0.782867 2.48437 0.782867 2.39913V0.153844C0.782867 0.0686059 0.863674 0 0.965745 0H45.3413C45.4412 0 45.5241 0.0686059 45.5241 0.153844V2.39913C45.5241 2.48437 45.4433 2.55297 45.3413 2.55297ZM1.1465 2.24528H45.1605V0.307687H1.14862V2.24528H1.1465Z" fill="#171B65"></path></g><path id="Vector_8" d="M32.6908 47.6936H13.6205V67.0467H32.6908V47.6936Z" fill="#A5F0BD"></path><g id="Group_5"><path id="Vector_9" d="M16.0488 43.2176H6.98151V45.2716H16.0488V43.2176Z" fill="#A5F0BD"></path><path id="Vector_10" d="M27.8806 43.2176H18.8133V45.2716H27.8806V43.2176Z" fill="#A5F0BD"></path><path id="Vector_11" d="M39.3637 43.2176H30.2963V45.2716H39.3637V43.2176Z" fill="#A5F0BD"></path><path id="Vector_12" d="M16.0489 45.4504H6.9709C6.87096 45.4504 6.78802 45.3714 6.78802 45.2716V36.9349C6.78802 36.8372 6.86883 36.7561 6.9709 36.7561H16.0489C16.1488 36.7561 16.2317 36.8351 16.2317 36.9349V45.2716C16.2317 45.3693 16.1509 45.4504 16.0489 45.4504ZM7.15378 45.0949H15.866V37.1137H7.15378V45.0949Z" fill="#171B65"></path><path id="Vector_13" d="M27.8764 45.4504H18.7984C18.6985 45.4504 18.6155 45.3714 18.6155 45.2716V36.9349C18.6155 36.8372 18.6963 36.7561 18.7984 36.7561H27.8764C27.9763 36.7561 28.0593 36.8351 28.0593 36.9349V45.2716C28.0593 45.3693 27.9785 45.4504 27.8764 45.4504ZM18.9813 45.0949H27.6935V37.1137H18.9813V45.0949Z" fill="#171B65"></path><path id="Vector_14" d="M39.336 45.4504H30.2581C30.1581 45.4504 30.0752 45.3714 30.0752 45.2716V36.9349C30.0752 36.8372 30.156 36.7561 30.2581 36.7561H39.336C39.436 36.7561 39.5189 36.8351 39.5189 36.9349V45.2716C39.5189 45.3693 39.4381 45.4504 39.336 45.4504ZM30.441 45.0949H39.1532V37.1137H30.441V45.0949Z" fill="#171B65"></path></g><path id="Vector_15" d="M20.9781 59.893C21.617 59.893 22.1349 59.3866 22.1349 58.762C22.1349 58.1374 21.617 57.631 20.9781 57.631C20.3392 57.631 19.8213 58.1374 19.8213 58.762C19.8213 59.3866 20.3392 59.893 20.9781 59.893Z" fill="#62C283"></path><path id="Vector_16" d="M25.1354 59.893C25.7742 59.893 26.2922 59.3866 26.2922 58.762C26.2922 58.1374 25.7742 57.631 25.1354 57.631C24.4965 57.631 23.9785 58.1374 23.9785 58.762C23.9785 59.3866 24.4965 59.893 25.1354 59.893Z" fill="#62C283"></path><path id="Vector_17" d="M22.9344 67.0467C22.8345 67.0467 22.7516 66.9698 22.7516 66.8742V48.0034C22.7516 47.9077 22.8324 47.8308 22.9344 47.8308C23.0365 47.8308 23.1173 47.9077 23.1173 48.0034V66.8742C23.1173 66.9698 23.0365 67.0467 22.9344 67.0467Z" fill="#62C283"></path><g id="Group_6"><path id="Vector_18" d="M16.0488 32.6647H6.98151V34.7187H16.0488V32.6647Z" fill="#A5F0BD"></path><path id="Vector_19" d="M27.8806 32.6647H18.8133V34.7187H27.8806V32.6647Z" fill="#A5F0BD"></path><path id="Vector_20" d="M39.3637 32.6647H30.2963V34.7187H39.3637V32.6647Z" fill="#A5F0BD"></path><path id="Vector_21" d="M16.0489 34.8954H6.9709C6.87096 34.8954 6.78802 34.8164 6.78802 34.7166V26.38C6.78802 26.2823 6.86883 26.2012 6.9709 26.2012H16.0489C16.1488 26.2012 16.2317 26.2802 16.2317 26.38V34.7166C16.2317 34.8143 16.1509 34.8954 16.0489 34.8954ZM7.15378 34.5399H15.866V26.5588H7.15378V34.5399Z" fill="#171B65"></path><path id="Vector_22" d="M27.8764 34.8954H18.7984C18.6985 34.8954 18.6155 34.8164 18.6155 34.7166V26.38C18.6155 26.2823 18.6963 26.2012 18.7984 26.2012H27.8764C27.9763 26.2012 28.0593 26.2802 28.0593 26.38V34.7166C28.0593 34.8143 27.9785 34.8954 27.8764 34.8954ZM18.9813 34.5399H27.6935V26.5588H18.9813V34.5399Z" fill="#171B65"></path><path id="Vector_23" d="M39.336 34.8954H30.2581C30.1581 34.8954 30.0752 34.8164 30.0752 34.7166V26.38C30.0752 26.2823 30.156 26.2012 30.2581 26.2012H39.336C39.436 26.2012 39.5189 26.2802 39.5189 26.38V34.7166C39.5189 34.8143 39.4381 34.8954 39.336 34.8954ZM30.441 34.5399H39.1532V26.5588H30.441V34.5399Z" fill="#171B65"></path></g><g id="Group_7"><path id="Vector_24" d="M16.0488 22.1722H6.98151V24.2263H16.0488V22.1722Z" fill="#A5F0BD"></path><path id="Vector_25" d="M27.8806 22.1722H18.8133V24.2263H27.8806V22.1722Z" fill="#A5F0BD"></path><path id="Vector_26" d="M39.3637 22.1722H30.2963V24.2263H39.3637V22.1722Z" fill="#A5F0BD"></path><path id="Vector_27" d="M16.0489 24.4029H6.9709C6.87096 24.4029 6.78802 24.3239 6.78802 24.2241V15.8875C6.78802 15.7898 6.86883 15.7087 6.9709 15.7087H16.0489C16.1488 15.7087 16.2317 15.7877 16.2317 15.8875V24.2241C16.2317 24.3218 16.1509 24.4029 16.0489 24.4029ZM7.15378 24.0474H15.866V16.0663H7.15378V24.0474Z" fill="#171B65"></path><path id="Vector_28" d="M27.8764 24.4029H18.7984C18.6985 24.4029 18.6155 24.3239 18.6155 24.2241V15.8875C18.6155 15.7898 18.6963 15.7087 18.7984 15.7087H27.8764C27.9763 15.7087 28.0593 15.7877 28.0593 15.8875V24.2241C28.0593 24.3218 27.9785 24.4029 27.8764 24.4029ZM18.9813 24.0474H27.6935V16.0663H18.9813V24.0474Z" fill="#171B65"></path><path id="Vector_29" d="M39.336 24.4029H30.2581C30.1581 24.4029 30.0752 24.3239 30.0752 24.2241V15.8875C30.0752 15.7898 30.156 15.7087 30.2581 15.7087H39.336C39.436 15.7087 39.5189 15.7877 39.5189 15.8875V24.2241C39.5189 24.3218 39.4381 24.4029 39.336 24.4029ZM30.441 24.0474H39.1532V16.0663H30.441V24.0474Z" fill="#171B65"></path></g><g id="Group_8"><path id="Vector_30" d="M16.0488 11.6194H6.98151V13.6734H16.0488V11.6194Z" fill="#A5F0BD"></path><path id="Vector_31" d="M27.8806 11.6194H18.8133V13.6734H27.8806V11.6194Z" fill="#A5F0BD"></path><path id="Vector_32" d="M39.3637 11.6194H30.2963V13.6734H39.3637V11.6194Z" fill="#A5F0BD"></path><path id="Vector_33" d="M16.0489 13.8501H6.9709C6.87096 13.8501 6.78802 13.7711 6.78802 13.6713V5.33468C6.78802 5.23696 6.86883 5.15588 6.9709 5.15588H16.0489C16.1488 5.15588 16.2317 5.23488 16.2317 5.33468V13.6713C16.2317 13.769 16.1509 13.8501 16.0489 13.8501ZM7.15378 13.4946H15.866V5.51347H7.15378V13.4946Z" fill="#171B65"></path><path id="Vector_34" d="M27.8764 13.8501H18.7984C18.6985 13.8501 18.6155 13.7711 18.6155 13.6713V5.33468C18.6155 5.23696 18.6963 5.15588 18.7984 5.15588H27.8764C27.9763 5.15588 28.0593 5.23488 28.0593 5.33468V13.6713C28.0593 13.769 27.9785 13.8501 27.8764 13.8501ZM18.9813 13.4946H27.6935V5.51347H18.9813V13.4946Z" fill="#171B65"></path><path id="Vector_35" d="M39.336 13.8501H30.2581C30.1581 13.8501 30.0752 13.7711 30.0752 13.6713V5.33468C30.0752 5.23696 30.156 5.15588 30.2581 5.15588H39.336C39.436 5.15588 39.5189 5.23488 39.5189 5.33468V13.6713C39.5189 13.769 39.4381 13.8501 39.336 13.8501ZM30.441 13.4946H39.1532V5.51347H30.441V13.4946Z" fill="#171B65"></path></g></g><g id="Group_9"><path id="Vector_36" d="M54.1619 49.9222C55.2804 48.6 55.9524 46.9036 55.9524 45.0575C55.9524 40.8413 52.4437 37.411 48.1312 37.411C47.2785 37.411 46.4577 37.5482 45.6879 37.7956C44.4332 37.0888 42.9787 36.6834 41.4285 36.6834C36.7056 36.6834 32.8609 40.4401 32.8609 45.0595C32.8609 45.0741 32.8609 45.0886 32.8609 45.1032C32.8609 45.1177 32.8609 45.1323 32.8609 45.1469C32.8609 45.1573 32.863 45.1656 32.863 45.176C32.8779 46.2487 33.1012 47.2736 33.4946 48.2154C33.1777 48.9742 32.9991 49.8017 32.9991 50.6686V61.0925C32.9991 64.6767 35.9826 67.5935 39.6486 67.5935H45.6666C48.1992 67.5935 50.4044 66.2006 51.5272 64.159L52.1503 65.7203C52.7287 67.1694 54.1321 68.107 55.7228 68.107C56.2012 68.107 56.669 68.0197 57.1177 67.8492C58.0725 67.4854 58.8232 66.7785 59.2357 65.8617C59.3973 65.5041 59.4951 65.1299 59.5377 64.7515L54.164 49.9222H54.1619Z" fill="white"></path><g id="Group_10"><g id="Group_11"><path id="Vector_37" d="M41.1244 51.6644C37.3732 51.6644 34.3196 48.679 34.3196 45.0117C34.3196 44.9577 34.3643 44.9119 34.4217 44.9119C34.4791 44.9119 34.5238 44.9556 34.5238 45.0117C34.5238 48.5709 37.4859 51.4669 41.1244 51.4669C41.1797 51.4669 41.2264 51.5106 41.2264 51.5667C41.2264 51.6228 41.1818 51.6665 41.1244 51.6665V51.6644Z" fill="#181B61"></path><path id="Vector_38" d="M45.3626 45.8454H39.3446C36.6458 45.8454 34.4579 47.9843 34.4579 50.6228V61.0489C34.4579 63.6874 36.6458 65.8263 39.3446 65.8263H45.3626C48.0614 65.8263 50.2492 63.6874 50.2492 61.0489V50.6228C50.2492 47.9843 48.0614 45.8454 45.3626 45.8454Z" fill="#2F3AE9"></path><path id="Vector_39" d="M47.8271 50.9347C51.173 50.9347 53.8855 48.2829 53.8855 45.0117C53.8855 41.7406 51.173 39.0887 47.8271 39.0887C44.4812 39.0887 41.7687 41.7406 41.7687 45.0117C41.7687 48.2829 44.4812 50.9347 47.8271 50.9347Z" fill="#7ABF87"></path><path id="Vector_40" d="M47.8271 45.2009C47.7718 45.2009 47.7251 45.1572 47.7251 45.1011C47.7251 41.5419 44.7629 38.6459 41.1223 38.6459C37.4818 38.6459 34.5217 41.5419 34.5217 45.1011C34.5217 45.1551 34.4771 45.2009 34.4196 45.2009C34.3622 45.2009 34.3176 45.1572 34.3176 45.1011C34.3176 41.4338 37.3691 38.4484 41.1223 38.4484C44.8756 38.4484 47.9271 41.4338 47.9271 45.1011C47.9271 45.1551 47.8824 45.2009 47.825 45.2009H47.8271Z" fill="#181B61"></path><path id="Vector_41" d="M47.5826 45.4628C48.6865 45.4628 49.5815 44.5879 49.5815 43.5086C49.5815 42.4293 48.6865 41.5544 47.5826 41.5544C46.4786 41.5544 45.5837 42.4293 45.5837 43.5086C45.5837 44.5879 46.4786 45.4628 47.5826 45.4628Z" fill="white"></path><g id="Clip path group"><mask id="mask0_751_2224" style="mask-type:luminance" maskUnits="userSpaceOnUse" x="45" y="41" width="5" height="5"><g id="clippath"><path id="Vector_42" d="M47.5826 45.4628C48.6865 45.4628 49.5815 44.5879 49.5815 43.5086C49.5815 42.4293 48.6865 41.5544 47.5826 41.5544C46.4786 41.5544 45.5837 42.4293 45.5837 43.5086C45.5837 44.5879 46.4786 45.4628 47.5826 45.4628Z" fill="white"></path></g></mask><g mask="url(#mask0_751_2224)"><g id="Group_12"><path id="Vector_43" d="M41.1244 51.6644C37.3733 51.6644 34.3197 48.679 34.3197 45.0117C34.3197 41.3444 37.3712 38.359 41.1244 38.359C44.8777 38.359 47.9292 41.3444 47.9292 45.0117C47.9292 48.679 44.8755 51.6644 41.1244 51.6644ZM41.1244 38.5586C37.4839 38.5586 34.5238 41.4546 34.5238 45.0117C34.5238 48.5688 37.486 51.4669 41.1244 51.4669C44.7628 51.4669 47.7272 48.5709 47.7272 45.0117C47.7272 41.4525 44.765 38.5586 41.1244 38.5586Z" fill="#181B61"></path></g></g></g><g id="Group_13"><path id="Vector_44" d="M47.0594 48.9514L48.1312 51.6353C48.8776 51.6436 49.5772 52.0864 49.8664 52.8078C50.1535 53.5292 49.9451 54.3192 49.4028 54.8182L49.8813 56.0157C50.6277 56.024 51.3273 56.4668 51.6165 57.1882C51.9057 57.9096 51.6952 58.6996 51.1529 59.1986L51.6314 60.3961C52.3778 60.4044 53.0774 60.8472 53.3666 61.5686C53.6537 62.29 53.4453 63.08 52.903 63.579L53.4878 65.0426C53.9046 66.0841 55.1061 66.5997 56.1714 66.1922C57.2368 65.7847 57.7642 64.6101 57.3474 63.5686L50.919 47.4732L47.0594 48.9472V48.9514Z" fill="#7ABF87"></path><path id="Vector_45" d="M57.3495 63.5748L55.306 64.3544L49.7814 50.2902L51.8249 49.5106L57.3495 63.5748Z" fill="#A5F0BD"></path></g></g><path id="Vector_46" d="M45.8283 61.3794H37.9347C37.8795 61.3794 37.8327 61.3358 37.8327 61.2796C37.8327 61.2235 37.8773 61.1798 37.9347 61.1798H45.8283C45.8836 61.1798 45.9303 61.2235 45.9303 61.2796C45.9303 61.3358 45.8857 61.3794 45.8283 61.3794Z" fill="#171B65"></path></g></g></g></svg> 