<?xml version="1.0" encoding="UTF-8"?> <svg xmlns="http://www.w3.org/2000/svg" width="50" height="59" viewBox="0 0 50 59" fill="none"><g id="Group"><g id="Group_2"><g id="Group_3"><g id="Group_4"><path id="Vector" d="M6.00014 21.8115H3.08059C1.38244 21.8115 0 20.4291 0 18.7309C0 17.3118 0.983812 16.0681 2.35349 15.738C2.68515 14.3684 3.92727 13.3846 5.34639 13.3846C7.04454 13.3846 8.42698 14.7654 8.42698 16.4651V19.3863C8.42698 19.4517 8.38871 19.5091 8.32812 19.533L6.74477 20.1851L6.14842 21.7111C6.12451 21.7717 6.06551 21.8131 6.00014 21.8131V21.8115ZM5.34639 13.7035C4.04208 13.7035 2.90519 14.6283 2.6421 15.9039C2.62934 15.9661 2.57991 16.0155 2.51773 16.0282C1.24212 16.2913 0.317307 17.4282 0.317307 18.7325C0.317307 20.2553 1.55624 21.4942 3.079 21.4942H5.89011L6.47211 20.005C6.48805 19.9651 6.51995 19.9316 6.55981 19.9157L8.10648 19.2794V16.4651C8.10648 14.9424 6.86755 13.7035 5.34479 13.7035H5.34639Z" fill="#171B65"></path><g id="Group_5"><path id="Vector_2" d="M5.34797 29.9449C3.92886 29.9449 2.68514 28.961 2.35508 27.5914C0.985399 27.2597 0.00158691 26.0176 0.00158691 24.5985C0.00158691 22.9003 1.38403 21.5179 3.08218 21.5179H6.00332C6.0655 21.5179 6.12291 21.5546 6.14842 21.612L6.88667 23.2479L8.32652 23.7964C8.3887 23.8204 8.42856 23.8794 8.42856 23.9447V26.8659C8.42856 28.564 7.04613 29.9465 5.34797 29.9465V29.9449ZM3.08058 21.8368C1.55783 21.8368 0.318894 23.0757 0.318894 24.5985C0.318894 25.9028 1.24371 27.0397 2.51932 27.3028C2.5815 27.3155 2.63093 27.3649 2.64369 27.4271C2.90678 28.7027 4.04367 29.6276 5.34797 29.6276C6.87073 29.6276 8.10966 28.3886 8.10966 26.8659V24.0547L6.71128 23.5222C6.67142 23.5078 6.63953 23.4775 6.62199 23.4393L5.89808 21.8368H3.08058Z" fill="#171B65"></path><path id="Vector_3" d="M13.48 21.8113H10.5588C10.4998 21.8113 10.4456 21.7794 10.4185 21.7268L9.62285 20.2295L8.22127 19.5264C8.16706 19.4993 8.13358 19.4434 8.13358 19.3845V16.4633C8.13358 14.7652 9.51601 13.3827 11.2142 13.3827C12.6333 13.3827 13.877 14.3665 14.2071 15.7362C15.5767 16.0679 16.5606 17.31 16.5606 18.7291C16.5606 20.4273 15.1781 21.8097 13.48 21.8097V21.8113ZM10.6545 21.4924H13.48C15.0027 21.4924 16.2417 20.2535 16.2417 18.7307C16.2417 17.4264 15.3168 16.2895 14.0412 16.0264C13.979 16.0137 13.9296 15.9642 13.9169 15.902C13.6538 14.6264 12.5169 13.7016 11.2126 13.7016C9.68982 13.7016 8.45088 14.9406 8.45088 16.4633V19.2856L9.811 19.9664C9.84129 19.9808 9.86521 20.0047 9.87956 20.0334L10.6545 21.4908V21.4924Z" fill="#171B65"></path><path id="Vector_4" d="M11.2125 29.9449C9.5144 29.9449 8.13196 28.564 8.13196 26.8643V23.9431C8.13196 23.8841 8.16385 23.8315 8.21487 23.8028L9.66906 23.0135L10.4185 21.6008C10.4456 21.5482 10.4998 21.5163 10.5588 21.5163H13.4799C15.1781 21.5163 16.5605 22.8987 16.5605 24.5969C16.5605 26.016 15.5767 27.2597 14.207 27.5898C13.8754 28.9595 12.6333 29.9433 11.2141 29.9433L11.2125 29.9449ZM8.45086 24.0388V26.8643C8.45086 28.387 9.68979 29.626 11.2125 29.626C12.5169 29.626 13.6537 28.7012 13.9168 27.4255C13.9296 27.3634 13.979 27.3139 14.0412 27.3012C15.3168 27.0381 16.2416 25.9012 16.2416 24.5969C16.2416 23.0741 15.0027 21.8352 13.4799 21.8352H10.6561L9.92897 23.2065C9.91462 23.2336 9.8923 23.2575 9.86359 23.2718L8.45086 24.0388Z" fill="#171B65"></path></g></g><path id="Vector_5" d="M8.28027 24.8935C10.0635 24.8935 11.5092 23.4478 11.5092 21.6646C11.5092 19.8813 10.0635 18.4357 8.28027 18.4357C6.49701 18.4357 5.05139 19.8813 5.05139 21.6646C5.05139 23.4478 6.49701 24.8935 8.28027 24.8935Z" fill="#A5F0BD"></path></g><g id="Group_6"><g id="Group_7"><g id="Group_8"><path id="Vector_6" d="M38.737 29.9449C37.3179 29.9449 36.0742 28.9611 35.7441 27.5914C34.3744 27.2597 33.3906 26.0176 33.3906 24.5985C33.3906 22.9004 34.7731 21.5179 36.4712 21.5179H39.3924C39.4545 21.5179 39.5103 21.553 39.5375 21.6088L40.2311 23.0853L41.7299 23.8013C41.7857 23.8284 41.8208 23.8842 41.8208 23.9448V26.8659C41.8208 28.564 40.4384 29.9465 38.7402 29.9465L38.737 29.9449ZM36.4696 21.8368C34.9469 21.8368 33.7079 23.0757 33.7079 24.5985C33.7079 25.9028 34.6327 27.0397 35.9084 27.3028C35.9705 27.3155 36.02 27.365 36.0327 27.4272C36.2958 28.7028 37.4327 29.6276 38.737 29.6276C40.2598 29.6276 41.4987 28.3887 41.4987 26.8659V24.0452L40.0397 23.3484C40.0062 23.3325 39.9791 23.3054 39.9648 23.2719L39.2903 21.8352H36.4712L36.4696 21.8368Z" fill="#171B65"></path><path id="Vector_7" d="M39.3892 21.8113H36.468C34.7699 21.8113 33.3874 20.4288 33.3874 18.7307C33.3874 17.3116 34.3712 16.0679 35.7409 15.7378C36.0726 14.3681 37.3147 13.3843 38.7338 13.3843C40.432 13.3843 41.8144 14.7652 41.8144 16.4649V19.386C41.8144 19.4403 41.7873 19.4897 41.7426 19.52L40.2247 20.5118L39.5263 21.7332C39.4976 21.7826 39.445 21.8129 39.3876 21.8129L39.3892 21.8113ZM38.7354 13.7032C37.4311 13.7032 36.2942 14.628 36.0311 15.9036C36.0184 15.9658 35.9689 16.0152 35.9067 16.028C34.6311 16.2911 33.7063 17.428 33.7063 18.7323C33.7063 20.255 34.9453 21.494 36.468 21.494H39.2967L39.968 20.3204C39.9807 20.2981 39.9983 20.2806 40.019 20.2662L41.4971 19.2999V16.4649C41.4971 14.9421 40.2582 13.7032 38.7354 13.7032Z" fill="#171B65"></path></g><g id="Group_9"><path id="Vector_8" d="M46.869 21.8113H43.9478C43.8936 21.8113 43.8442 21.7842 43.8139 21.7395L42.87 20.2997L41.5959 19.5216C41.5481 19.4929 41.5194 19.4418 41.5194 19.386V16.4649C41.5194 14.7667 42.9018 13.3843 44.6 13.3843C46.0191 13.3843 47.2628 14.3681 47.5929 15.7378C48.9626 16.0695 49.9464 17.3116 49.9464 18.7307C49.9464 20.4288 48.5639 21.8113 46.8658 21.8113H46.869ZM44.0339 21.4924H46.869C48.3917 21.4924 49.6307 20.2534 49.6307 18.7307C49.6307 17.4264 48.7059 16.2895 47.4302 16.0264C47.3681 16.0137 47.3186 15.9642 47.3059 15.902C47.0428 14.6264 45.9059 13.7016 44.6016 13.7016C43.0788 13.7016 41.8399 14.9405 41.8399 16.4633V19.2952L43.0677 20.0462C43.0884 20.0589 43.1043 20.0749 43.1171 20.0956L44.0339 21.494V21.4924Z" fill="#171B65"></path><path id="Vector_9" d="M44.6016 29.9449C42.9034 29.9449 41.521 28.564 41.521 26.8643V23.9431C41.521 23.8857 41.5529 23.8315 41.6023 23.8044L43.1506 22.945L43.8043 21.6056C43.8314 21.5514 43.8872 21.5163 43.9478 21.5163H46.869C48.5671 21.5163 49.9496 22.8987 49.9496 24.5969C49.9496 26.016 48.9658 27.2597 47.5961 27.5898C47.2644 28.9595 46.0223 29.9433 44.6032 29.9433L44.6016 29.9449ZM41.8399 24.0388V26.8659C41.8399 28.3886 43.0788 29.6276 44.6016 29.6276C45.9059 29.6276 47.0428 28.7027 47.3059 27.4271C47.3186 27.365 47.3681 27.3155 47.4302 27.3028C48.7059 27.0397 49.6307 25.9028 49.6307 24.5985C49.6307 23.0757 48.3917 21.8368 46.869 21.8368H44.0483L43.4169 23.1315C43.4025 23.1602 43.3802 23.1857 43.3515 23.2017L41.8415 24.0404L41.8399 24.0388Z" fill="#171B65"></path></g></g><path id="Vector_10" d="M41.6693 24.8935C43.4526 24.8935 44.8982 23.4478 44.8982 21.6646C44.8982 19.8813 43.4526 18.4357 41.6693 18.4357C39.886 18.4357 38.4404 19.8813 38.4404 21.6646C38.4404 23.4478 39.886 24.8935 41.6693 24.8935Z" fill="#A5F0BD"></path></g></g><g id="Group_10"><g id="Group_11"><g id="Group_12"><g id="Group_13"><path id="Vector_11" d="M22.0425 16.7088C20.6234 16.7088 19.3797 15.725 19.0496 14.3553C17.6799 14.0237 16.6961 12.7816 16.6961 11.3625C16.6961 9.6643 18.0785 8.28186 19.7767 8.28186H22.6978C22.7744 8.28186 22.8397 8.33607 22.8541 8.40942L23.2145 10.1889L24.9971 10.5524C25.0721 10.5668 25.1247 10.6322 25.1247 10.7087V13.6298C25.1247 15.328 23.7422 16.7104 22.0441 16.7104L22.0425 16.7088ZM19.7751 8.60076C18.2523 8.60076 17.0134 9.8397 17.0134 11.3625C17.0134 12.6668 17.9382 13.8036 19.2138 14.0667C19.276 14.0795 19.3255 14.1289 19.3382 14.1911C19.6013 15.4667 20.7382 16.3915 22.0425 16.3915C23.5652 16.3915 24.8042 15.1526 24.8042 13.6298V10.8395L23.047 10.4807C22.9848 10.4679 22.9354 10.4185 22.9227 10.3563L22.5671 8.60076H19.7767H19.7751Z" fill="#171B65"></path><path id="Vector_12" d="M22.6946 8.57554H19.7735C18.0753 8.57554 16.6929 7.1931 16.6929 5.49495C16.6929 4.07583 17.6767 2.83212 19.0464 2.50205C19.3781 1.13237 20.6202 0.14856 22.0393 0.14856C23.7374 0.14856 25.1199 1.531 25.1199 3.22915V6.15029C25.1199 6.22204 25.072 6.28582 25.0019 6.30496L23.4839 6.71634L22.8429 8.47189C22.8206 8.53408 22.76 8.57713 22.693 8.57713L22.6946 8.57554ZM22.0409 0.467461C20.7366 0.467461 19.5997 1.39228 19.3366 2.66788C19.3238 2.73007 19.2744 2.7795 19.2122 2.79225C17.9366 3.05535 17.0118 4.19223 17.0118 5.49654C17.0118 7.0193 18.2507 8.25823 19.7735 8.25823H22.583L23.2144 6.52978C23.232 6.48035 23.2718 6.44368 23.3229 6.43092L24.8026 6.02911V3.22756C24.8026 1.7048 23.5636 0.465867 22.0409 0.465867V0.467461Z" fill="#171B65"></path></g><g id="Group_14"><path id="Vector_13" d="M30.1745 8.57527H27.2533C27.1784 8.57527 27.113 8.52265 27.0971 8.44771L26.7303 6.66824L24.954 6.3031C24.8807 6.28715 24.8265 6.22337 24.8265 6.14683V3.22729C24.8265 1.52914 26.2089 0.146698 27.9071 0.146698C29.3262 0.146698 30.5699 1.13051 30.9 2.50019C32.2696 2.83185 33.2535 4.07397 33.2535 5.49309C33.2535 7.19124 31.871 8.57368 30.1729 8.57368L30.1745 8.57527ZM27.3841 8.25637H30.1745C31.6972 8.25637 32.9361 7.01744 32.9361 5.49468C32.9361 4.19037 32.0113 3.05349 30.7357 2.79039C30.6735 2.77764 30.6241 2.72821 30.6114 2.66602C30.3483 1.39041 29.2114 0.4656 27.9071 0.4656C26.3843 0.4656 25.1454 1.70453 25.1454 3.22729V6.01768L26.8977 6.37644C26.9599 6.3892 27.0094 6.43863 27.0221 6.50081L27.3841 8.25477V8.25637Z" fill="#171B65"></path><path id="Vector_14" d="M27.9071 16.7089C26.2089 16.7089 24.8265 15.3264 24.8265 13.6283V10.7071C24.8265 10.629 24.8823 10.5636 24.9588 10.5493L26.7766 10.232L27.0971 8.41103C27.1098 8.33449 27.1768 8.27869 27.2549 8.27869H30.1761C31.8742 8.27869 33.2566 9.66113 33.2566 11.3593C33.2566 12.7784 32.2728 14.0221 30.9031 14.3522C30.5715 15.7219 29.3294 16.7057 27.9103 16.7057L27.9071 16.7089ZM25.1454 10.8427V13.6299C25.1454 15.1526 26.3843 16.3915 27.9071 16.3915C29.2114 16.3915 30.3483 15.4667 30.6114 14.1911C30.6241 14.1289 30.6735 14.0795 30.7357 14.0668C32.0113 13.8037 32.9361 12.6668 32.9361 11.3625C32.9361 9.83971 31.6972 8.60078 30.1745 8.60078H27.3873L27.07 10.401C27.0588 10.4664 27.0062 10.519 26.9408 10.5301L25.1454 10.8427Z" fill="#171B65"></path></g></g><path id="Vector_15" d="M24.9748 11.6575C26.758 11.6575 28.2036 10.2118 28.2036 8.42859C28.2036 6.64533 26.758 5.19971 24.9748 5.19971C23.1915 5.19971 21.7459 6.64533 21.7459 8.42859C21.7459 10.2118 23.1915 11.6575 24.9748 11.6575Z" fill="#A5F0BD"></path></g><g id="Group_15"><g id="Group_16"><path id="Vector_16" d="M22.6946 35.0475H19.7735C18.0753 35.0475 16.6929 33.6651 16.6929 31.9669C16.6929 30.5478 17.6767 29.3041 19.0464 28.974C19.3781 27.6044 20.6202 26.6205 22.0393 26.6205C23.7374 26.6205 25.1199 28.003 25.1199 29.7011V32.6223C25.1199 32.6876 25.08 32.7466 25.0178 32.7706L23.3914 33.402L22.8429 34.9423C22.8206 35.0061 22.76 35.0475 22.693 35.0475H22.6946ZM22.0409 26.9394C20.7366 26.9394 19.5997 27.8643 19.3366 29.1399C19.3238 29.2021 19.2744 29.2515 19.2122 29.2642C17.9366 29.5273 17.0118 30.6642 17.0118 31.9685C17.0118 33.4913 18.2507 34.7302 19.7735 34.7302H22.5814L23.1172 33.2266C23.1331 33.1835 23.1666 33.1485 23.2097 33.1309L24.801 32.5123V29.7011C24.801 28.1784 23.562 26.9394 22.0393 26.9394H22.0409Z" fill="#171B65"></path><path id="Vector_17" d="M30.1745 35.0473H27.2533C27.1848 35.0473 27.1242 35.0026 27.1018 34.9373L26.4577 32.9904L24.9636 32.7783C24.8855 32.7671 24.8265 32.7002 24.8265 32.6204V29.6993C24.8265 28.0012 26.2089 26.6187 27.9071 26.6187C29.3262 26.6187 30.5699 27.6025 30.9 28.9722C32.2696 29.3039 33.2535 30.546 33.2535 31.9651C33.2535 33.6633 31.871 35.0457 30.1729 35.0457L30.1745 35.0473ZM27.3697 34.7284H30.1745C31.6972 34.7284 32.9361 33.4894 32.9361 31.9667C32.9361 30.6624 32.0113 29.5255 30.7357 29.2624C30.6735 29.2497 30.6241 29.2002 30.6114 29.138C30.3483 27.8624 29.2114 26.9376 27.9071 26.9376C26.3843 26.9376 25.1454 28.1765 25.1454 29.6993V32.4817L26.5996 32.6874C26.6602 32.6954 26.7096 32.7384 26.7287 32.7958L27.3681 34.7284H27.3697Z" fill="#171B65"></path><path id="Vector_18" d="M27.9071 43.1809C26.2089 43.1809 24.8265 41.7985 24.8265 40.1003V37.1792C24.8265 37.1042 24.8791 37.0388 24.954 37.0229L26.6634 36.6673L27.0987 34.8735C27.1162 34.8018 27.18 34.7523 27.2533 34.7523H30.1745C31.8726 34.7523 33.255 36.1348 33.255 37.8329C33.255 39.252 32.2712 40.4957 30.9016 40.8258C30.5699 42.1955 29.3278 43.1793 27.9087 43.1793L27.9071 43.1809ZM25.1454 37.3099V40.1003C25.1454 41.6231 26.3843 42.862 27.9071 42.862C29.2114 42.862 30.3483 41.9372 30.6114 40.6616C30.6241 40.5994 30.6735 40.55 30.7357 40.5372C32.0113 40.2741 32.9361 39.1372 32.9361 37.8329C32.9361 36.3102 31.6972 35.0712 30.1745 35.0712H27.3793L26.9488 36.8411C26.9344 36.9017 26.8866 36.9464 26.826 36.9591L25.1454 37.3083V37.3099Z" fill="#171B65"></path><path id="Vector_19" d="M22.0425 43.1809C20.6234 43.1809 19.3797 42.1971 19.0496 40.8274C17.6799 40.4957 16.6961 39.2536 16.6961 37.8345C16.6961 36.1363 18.0785 34.7539 19.7767 34.7539H22.6978C22.7568 34.7539 22.811 34.7858 22.8382 34.8384L23.6753 36.3962L25.0338 37.0372C25.0896 37.0643 25.1247 37.1202 25.1247 37.1807V40.1019C25.1247 41.8 23.7422 43.1825 22.0441 43.1825L22.0425 43.1809ZM19.7751 35.0728C18.2523 35.0728 17.0134 36.3117 17.0134 37.8345C17.0134 39.1388 17.9382 40.2757 19.2138 40.5388C19.276 40.5515 19.3255 40.601 19.3382 40.6632C19.6013 41.9388 20.7382 42.8636 22.0425 42.8636C23.5652 42.8636 24.8042 41.6246 24.8042 40.1019V37.2828L23.4903 36.6625C23.46 36.6482 23.4345 36.6243 23.4186 36.594L22.6022 35.0744H19.7767L19.7751 35.0728Z" fill="#171B65"></path></g><path id="Vector_20" d="M24.9748 38.1295C26.758 38.1295 28.2036 36.6839 28.2036 34.9006C28.2036 33.1173 26.758 31.6717 24.9748 31.6717C23.1915 31.6717 21.7459 33.1173 21.7459 34.9006C21.7459 36.6839 23.1915 38.1295 24.9748 38.1295Z" fill="#A5F0BD"></path></g></g><path id="Vector_21" d="M19.2489 40.9007C19.2346 40.9007 19.2186 40.8991 19.2043 40.8944C13.5741 39.2584 8.68211 34.9038 6.43704 29.5303C6.40355 29.449 6.44182 29.3549 6.52314 29.3214C6.60446 29.2879 6.69854 29.3262 6.73202 29.4075C8.94042 34.6949 13.7542 38.9793 19.2936 40.5882C19.3781 40.6121 19.4259 40.7014 19.402 40.7859C19.3813 40.8561 19.3175 40.9007 19.2489 40.9007Z" fill="#171B65"></path><path id="Vector_22" d="M6.63156 13.6857C6.61083 13.6857 6.5901 13.6809 6.56937 13.6729C6.48805 13.6378 6.44978 13.5454 6.48486 13.464C8.60715 8.44452 13.2934 4.30039 19.0225 2.37423C19.1054 2.34553 19.1963 2.39177 19.225 2.47468C19.2537 2.5576 19.2074 2.64848 19.1245 2.67718C13.48 4.57305 8.86546 8.65181 6.77825 13.5884C6.75274 13.649 6.69374 13.6857 6.63156 13.6857Z" fill="#171B65"></path><path id="Vector_23" d="M12.8916 14.2725C12.8613 14.2725 12.8326 14.2645 12.8055 14.247C12.7322 14.1991 12.7098 14.1003 12.7577 14.0269C13.8387 12.3575 15.5879 10.991 16.8667 10.1379C16.9401 10.0885 17.0389 10.1092 17.0884 10.1825C17.1378 10.2559 17.1171 10.3548 17.0437 10.4042C15.7904 11.2397 14.0763 12.5759 13.0255 14.2007C12.9953 14.2485 12.9442 14.2741 12.8916 14.2741V14.2725Z" fill="#171B65"></path><path id="Vector_24" d="M16.9959 32.8453C16.9656 32.8453 16.9353 32.8373 16.9066 32.8182C15.4572 31.8471 14.1879 30.5332 13.2376 29.0185C13.1914 28.9435 13.2137 28.8463 13.2886 28.7984C13.3636 28.7522 13.4608 28.7745 13.5087 28.8494C14.4351 30.3276 15.6724 31.6079 17.0852 32.5535C17.1585 32.6029 17.1776 32.7018 17.1282 32.7751C17.0979 32.8214 17.0469 32.8453 16.9959 32.8453Z" fill="#171B65"></path><path id="Vector_25" d="M30.7007 40.9007C30.6321 40.9007 30.5683 40.8561 30.5476 40.7859C30.5237 40.7014 30.5715 40.6121 30.656 40.5882C36.1953 38.9778 41.0092 34.6933 43.2176 29.4075C43.251 29.3262 43.3451 29.2879 43.4264 29.3214C43.5078 29.3549 43.546 29.449 43.5125 29.5303C41.2675 34.9038 36.3755 39.2584 30.7453 40.8944C30.731 40.8991 30.715 40.9007 30.7007 40.9007Z" fill="#171B65"></path><path id="Vector_26" d="M43.318 13.6857C43.2558 13.6857 43.1968 13.649 43.1713 13.5884C41.0841 8.6534 36.468 4.57465 30.8251 2.67718C30.7421 2.64848 30.6959 2.55919 30.7246 2.47468C30.7533 2.39177 30.8442 2.34553 30.9271 2.37423C36.6562 4.2988 41.344 8.44452 43.4663 13.464C43.4998 13.5454 43.4631 13.6394 43.3818 13.6729C43.3611 13.6809 43.3403 13.6857 43.3196 13.6857H43.318Z" fill="#171B65"></path><path id="Vector_27" d="M37.0579 14.2724C37.0053 14.2724 36.9543 14.2469 36.924 14.1991C35.8732 12.5759 34.1591 11.2381 32.9058 10.4026C32.8325 10.3531 32.8134 10.2543 32.8612 10.1809C32.9106 10.1076 33.0095 10.0885 33.0828 10.1363C34.36 10.9878 36.1108 12.3542 37.1919 14.0253C37.2397 14.0986 37.219 14.1975 37.1441 14.2453C37.1169 14.2629 37.0866 14.2708 37.0579 14.2708V14.2724Z" fill="#171B65"></path><path id="Vector_28" d="M32.9537 32.8453C32.9027 32.8453 32.8517 32.8198 32.8214 32.7751C32.7719 32.7018 32.7927 32.6029 32.8644 32.5535C34.2772 31.6079 35.5129 30.326 36.4409 28.8494C36.4871 28.7745 36.586 28.7522 36.6609 28.7984C36.7359 28.8447 36.7582 28.9435 36.712 29.0185C35.7616 30.5332 34.4924 31.8471 33.043 32.8182C33.0159 32.8357 32.9856 32.8453 32.9537 32.8453Z" fill="#171B65"></path><g id="Group_17"><g id="Group_18"><g id="Group_19"><path id="Vector_29" d="M36.8602 9.28163C35.4236 5.94273 36.8267 1.78585 39.9934 0C41.4301 3.3405 40.0269 7.49578 36.8602 9.28163Z" fill="#A5F0BD"></path><path id="Vector_30" d="M36.873 9.27526C38.788 6.1851 42.9975 4.95254 46.2758 6.52473C44.3608 9.61489 40.1513 10.8458 36.873 9.27366V9.27526Z" fill="#62C283"></path></g><g id="Group_20"><path id="Vector_31" d="M13.5693 9.28163C15.0059 5.94273 13.6028 1.78585 10.4361 0C8.99941 3.3405 10.4026 7.49578 13.5693 9.28163Z" fill="#A5F0BD"></path><path id="Vector_32" d="M13.5581 9.27526C11.6431 6.1851 7.43361 4.95254 4.1553 6.52473C6.07031 9.61489 10.2798 10.8458 13.5581 9.27366V9.27526Z" fill="#62C283"></path></g></g><g id="Group_21"><g id="Group_22"><path id="Vector_33" d="M12.4723 31.93C13.9089 35.2705 12.5057 39.4258 9.33905 41.2117C7.9024 37.8712 9.30557 33.7159 12.4723 31.93Z" fill="#A5F0BD"></path><path id="Vector_34" d="M12.4595 31.9364C10.5445 35.0266 6.33498 36.2591 3.05667 34.6869C4.97168 31.5968 9.18118 30.3658 12.4595 31.938V31.9364Z" fill="#62C283"></path></g><g id="Group_23"><path id="Vector_35" d="M35.7632 31.93C34.3266 35.2705 35.7298 39.4258 38.8965 41.2117C40.3331 37.8712 38.9299 33.7159 35.7632 31.93Z" fill="#A5F0BD"></path><path id="Vector_36" d="M35.7744 31.9364C37.6894 35.0266 41.8989 36.2591 45.1772 34.6869C43.2622 31.5968 39.0527 30.3658 35.7744 31.938V31.9364Z" fill="#62C283"></path></g></g></g><g id="Group_24"><path id="Vector_37" d="M18.2109 59C18.2109 59 18.2013 59 18.1965 59C18.1295 58.9936 18.0737 58.9474 18.0562 58.882L16.0264 51.2443L9.28321 55.913C9.22581 55.9529 9.14927 55.9513 9.09506 55.9082C9.04085 55.8652 9.01852 55.7918 9.04244 55.7265L15.159 39.0335C15.1893 38.9506 15.2818 38.9076 15.3631 38.9395C15.446 38.9698 15.489 39.0607 15.4571 39.1436L9.51282 55.3645L16.0296 50.852C16.0726 50.8217 16.1268 50.8154 16.1763 50.8329C16.2257 50.8504 16.2624 50.8919 16.2751 50.9413L18.2491 58.3701L25.6126 42.382C25.6492 42.3023 25.7433 42.2672 25.8246 42.3039C25.9044 42.3406 25.9394 42.4362 25.9028 42.516L18.3544 58.9059C18.3289 58.9633 18.2715 58.9984 18.2093 58.9984L18.2109 59Z" fill="#171B65"></path><path id="Vector_38" d="M32.2792 59C32.2171 59 32.1612 58.9649 32.1341 58.9075L25.1518 43.7469C25.1151 43.6672 25.1502 43.5715 25.2299 43.5349C25.3096 43.4982 25.4037 43.5333 25.442 43.613L32.2394 58.3702L34.2134 50.9414C34.2261 50.8919 34.2644 50.8505 34.3122 50.8329C34.3617 50.8154 34.4159 50.8218 34.4589 50.8521L40.9757 55.3645L35.0314 39.1436C35.0011 39.0607 35.0441 38.9698 35.1254 38.9395C35.2083 38.9092 35.2992 38.9523 35.3295 39.0336L41.4461 55.7265C41.47 55.7919 41.4493 55.8652 41.3934 55.9083C41.3392 55.9513 41.2627 55.9529 41.2053 55.913L34.4621 51.2443L32.4323 58.882C32.4148 58.9474 32.359 58.9936 32.292 59C32.2872 59 32.2824 59 32.2776 59H32.2792Z" fill="#171B65"></path></g></g></svg> 