<?xml version="1.0" encoding="UTF-8" standalone="no"?> <svg xmlns:inkscape="http://www.inkscape.org/namespaces/inkscape" xmlns:sodipodi="http://sodipodi.sourceforge.net/DTD/sodipodi-0.dtd" xmlns="http://www.w3.org/2000/svg" xmlns:svg="http://www.w3.org/2000/svg" width="48.181664" height="54.687572" viewBox="0 0 48.181664 54.687572" fill="none" version="1.1" id="svg1114" sodipodi:docname="Capa 1.svg" inkscape:version="1.2.2 (732a01da63, 2022-12-09, custom)"><defs id="defs1118"></defs><g id="Capa 1" transform="translate(-0.64963753,-0.22352821)"><g id="Group"><g id="Group_2"><path id="Vector" d="m 39.9259,27.1446 c -0.3781,-1.2392 -0.8776,-1.9683 -1.4845,-2.1694 -0.5776,-0.1915 -1.1008,-0.1245 -1.5515,0.2011 -1.3073,0.9397 -1.7635,3.8697 -1.9198,6.0405 L 34.1469,18.6871 c 0,-0.0109 -0.0153,-1.0628 -0.233,-2.2884 -0.2958,-1.6593 -0.8037,-2.8315 -1.5082,-3.4867 -0.4493,-0.4172 -0.9781,-0.6156 -1.5711,-0.591 -0.625,0.026 -1.1552,0.2873 -1.5766,0.7742 -1.0018,1.1573 -1.2152,3.376 -1.2124,5.0748 -0.3447,-1.8808 -0.6837,-3.2459 -1.0102,-4.0789 -0.0223,-0.0958 -0.2176,-0.8768 -0.6948,-1.6278 -0.6725,-1.0601 -1.5794,-1.5375 -2.6272,-1.3816 -0.6028,0.0903 -1.0855,0.3871 -1.4357,0.8837 -0.5065,0.7167 -0.7325,1.8302 -0.6725,3.3089 0.0125,0.3064 0.0363,0.595 0.0642,0.8563 -0.4856,-0.9835 -1.3381,-1.7263 -2.6063,-1.5266 -0.9111,0.1436 -1.5306,0.818 -1.7929,1.9533 -0.1981,0.8563 -0.1437,1.7659 -0.0865,2.1284 0.1702,1.0943 0.3111,2.2105 0.4479,3.365 -0.2191,-0.394 -0.5428,-0.725 -1.045,-0.9055 -1.0744,-0.3858 -2.2003,0.2776 -2.6259,1.112 -0.7297,1.4308 -1.1454,5.2144 1.0172,15.1205 1.377,6.31 3.3164,12.7814 4.254,15.3612 0.1632,0.45 0.4869,0.8166 0.9083,1.0314 1.0032,0.5115 3.0835,1.1202 7.2901,1.1202 3.4685,0 5.8376,-0.6319 7.2161,-1.1613 1.5013,-0.5772 2.171,-1.1504 2.1989,-1.175 0.0056,-0.0041 0.0111,-0.0096 0.0153,-0.015 1.6534,-2.0765 2.9453,-6.5535 3.5425,-12.2835 0.5455,-5.2307 0.36,-10.3767 -0.4758,-13.1111 z" fill="#a5f0bd"></path><g id="Group_3"><path id="Vector_2" d="m 27.4303,54.9097 c -4.2108,0 -6.2925,-0.6101 -7.2984,-1.123 -0.427,-0.2175 -0.752,-0.5868 -0.9181,-1.0423 -1.7635,-4.8532 -7.777,-25.582 -5.2698,-30.4967 0.4298,-0.8426 1.5655,-1.5115 2.6496,-1.1217 0.9906,0.3557 1.2948,1.2858 1.4622,2.1489 0.0139,0.0739 -0.0349,0.1464 -0.1102,0.1601 -0.0754,0.0137 -0.1493,-0.0342 -0.1633,-0.1094 -0.2204,-1.1313 -0.5916,-1.6948 -1.285,-1.9438 -0.7325,-0.2626 -1.8208,0.0397 -2.3035,0.9876 -2.3342,4.5769 3.2048,24.5615 5.2837,30.2833 0.1409,0.3898 0.42,0.7058 0.7841,0.8919 0.8009,0.4076 2.7975,1.0915 7.1701,1.0915 6.3469,0 9.0578,-2.1215 9.2336,-2.2652 1.5962,-2.0148 2.8979,-6.5521 3.4811,-12.1412 0.5428,-5.2006 0.36,-10.3069 -0.466,-13.0126 -0.3474,-1.1394 -0.8036,-1.8315 -1.3199,-2.0011 -0.5008,-0.1656 -0.9306,-0.1122 -1.3157,0.1655 -2.0077,1.4431 -1.8919,8.2646 -1.8905,8.333 0.0014,0.0739 -0.0586,0.1368 -0.1339,0.1396 -0.074,0.0041 -0.1396,-0.0534 -0.1451,-0.1273 L 33.8888,18.698 c 0,-0.0478 -0.0697,-4.1241 -1.6617,-5.6 -0.3962,-0.368 -0.8594,-0.5431 -1.3813,-0.5212 -0.5497,0.0233 -1.0171,0.2531 -1.3896,0.684 -1.6506,1.9068 -1.0339,7.0965 -1.0269,7.1485 0.0098,0.0752 -0.046,0.1436 -0.1214,0.1518 -0.0767,0.0096 -0.1465,-0.0438 -0.1548,-0.119 -0.0266,-0.2175 -0.6391,-5.3607 1.091,-7.3578 0.4256,-0.4911 0.9599,-0.7537 1.5906,-0.781 0.5971,-0.026 1.1315,0.175 1.585,0.5963 1.6784,1.5567 1.7454,5.6165 1.7482,5.7889 l 0.805,12.2588 c 0.1744,-2.1407 0.6474,-4.8805 1.9073,-5.7847 0.4576,-0.3283 0.985,-0.3967 1.5696,-0.2038 0.6125,0.2038 1.1162,0.937 1.4971,2.1831 0.8358,2.7358 1.0227,7.8858 0.4772,13.1179 -0.5986,5.7327 -1.8919,10.2139 -3.5467,12.2931 -0.0056,0.0068 -0.0111,0.0123 -0.0167,0.0177 -0.0279,0.0247 -0.7004,0.5992 -2.2045,1.1778 -1.3785,0.5307 -3.7504,1.1627 -7.2231,1.1627 z" fill="#171b65"></path><path id="Vector_3" d="m 24.192,32.266 c -0.0683,0 -0.1283,-0.0493 -0.1381,-0.1163 L 21.8229,17.27 c -0.0306,-0.1382 -0.7645,-3.6085 0.4395,-5.3156 0.353,-0.5006 0.84,-0.8002 1.4483,-0.8918 1.0548,-0.1573 1.9701,0.3228 2.6453,1.3897 0.4758,0.7496 0.6712,1.5293 0.6963,1.6319 1.4552,3.7069 2.6914,16.8782 2.743,17.4376 0.007,0.0753 -0.0502,0.1423 -0.127,0.1491 -0.0781,0.0069 -0.1451,-0.0492 -0.1521,-0.1244 -0.0125,-0.1368 -1.285,-13.7129 -2.729,-17.3734 -0.0028,-0.0068 -0.0042,-0.0123 -0.0056,-0.0191 -0.007,-0.0315 -0.752,-3.1612 -3.0304,-2.8219 -0.5288,0.0793 -0.953,0.3406 -1.2599,0.7769 -1.1358,1.6086 -0.4019,5.0762 -0.3949,5.1117 L 24.3288,32.11 c 0.0111,0.0753 -0.0419,0.1436 -0.1172,0.1546 -0.007,0 -0.014,0.0014 -0.021,0.0014 z" fill="#171b65"></path><path id="Vector_4" d="m 19.5766,33.4314 c -0.0614,0 -0.1172,-0.0397 -0.1339,-0.0999 -0.8874,-3.0626 -1.2822,-6.5069 -1.6645,-9.8363 -0.1926,-1.6784 -0.374,-3.2638 -0.6153,-4.8081 -0.0572,-0.3625 -0.1117,-1.2762 0.0865,-2.1352 0.2637,-1.1422 0.8901,-1.8234 1.8082,-1.967 1.7245,-0.2709 2.6816,1.1777 3.0039,2.6235 0.0168,0.0739 -0.0307,0.1464 -0.106,0.1628 -0.0754,0.0164 -0.1493,-0.0301 -0.1661,-0.1039 -0.1018,-0.4569 -0.7115,-2.7221 -2.6872,-2.4116 -2.1068,0.331 -1.6687,3.7562 -1.6645,3.7917 0.2414,1.5498 0.4242,3.1379 0.6167,4.819 0.3809,3.3185 0.7744,6.7505 1.6548,9.7913 0.0209,0.0725 -0.0224,0.1477 -0.0963,0.1696 -0.0126,0.0041 -0.0251,0.0055 -0.0377,0.0055 z" fill="#171b65"></path></g><path id="Vector_5" d="m 21.8941,36.8278 c -0.0531,0 -0.1047,-0.0301 -0.1284,-0.0807 -0.0307,-0.0684 0,-0.1505 0.0712,-0.1806 4.1522,-1.8042 8.7034,-2.8438 13.1598,-3.0038 0.0697,-0.0041 0.1409,0.0561 0.1451,0.1313 0.0027,0.0753 -0.0572,0.1395 -0.134,0.1423 -4.4215,0.1587 -8.935,1.1887 -13.0565,2.9806 -0.0182,0.0082 -0.0377,0.0123 -0.0558,0.0123 z" fill="#171b65"></path></g><g id="Group_4"><path id="Vector_6" d="M 3.41867,8.48212 42.9224,0.249984 C 43.5843,0.112052 44.2363,0.527165 44.377,1.17608 L 48.8313,21.7208 4.70923,30.9153 0.726661,12.5462 C 0.325475,10.6957 1.53124,8.87544 3.41867,8.48212 Z" fill="#2f3ae9"></path><path id="Vector_7" d="m 24.2548,22.0165 c -3.0751,0 -5.8446,-2.1051 -6.5087,-5.1692 -0.7632,-3.5195 1.5375,-6.99117 5.126,-7.73802 3.59,-0.74823 7.131,1.50742 7.8928,5.02552 0.3698,1.7044 0.0405,3.4484 -0.9292,4.9107 -0.9683,1.4622 -2.4584,2.4663 -4.1982,2.8288 -0.4646,0.0971 -0.9279,0.1436 -1.3855,0.1436 z M 24.2576,9.23922 c -0.4381,0 -0.8818,0.04514 -1.3269,0.13679 -3.4392,0.71679 -5.6423,4.04209 -4.9112,7.41389 0.7311,3.3718 4.1229,5.5316 7.5622,4.8149 1.6659,-0.3475 3.0946,-1.3091 4.0224,-2.7098 0.9278,-1.4007 1.2432,-3.0708 0.8902,-4.7041 -0.6363,-2.9354 -3.29,-4.95304 -6.2353,-4.95304 z" fill="#181b61"></path><path id="Vector_8" d="m 8.758,28.0091 c -1.27524,0 -2.42491,-0.874 -2.70116,-2.1448 L 3.378,13.5097 C 3.07105,12.094 3.99608,10.696 5.44154,10.3951 L 41.3561,2.91282 c 0.6851,-0.14226 1.359,0.28725 1.5055,0.95751 l 3.2815,15.13827 c 0.0698,0.3255 0.007,0.6579 -0.1771,0.9356 -0.1842,0.279 -0.4688,0.4705 -0.8009,0.5389 l -0.0293,-0.134 0.0293,0.134 -35.83366,7.4672 C 9.1389,27.99 8.94635,28.0091 8.7566,28.0091 Z M 41.6198,3.15903 c -0.0684,0 -0.1367,0.00684 -0.2065,0.02189 L 5.50014,10.6632 C 4.20537,10.9326 3.3766,12.1842 3.65146,13.4536 L 6.3289,25.8082 c 0.28463,1.3132 1.60591,2.1544 2.94394,1.8754 L 45.1065,20.2178 c 0.2581,-0.0534 0.4799,-0.2039 0.6237,-0.42 0.1437,-0.2175 0.1925,-0.476 0.1381,-0.7304 L 42.5867,3.92915 C 42.4876,3.47364 42.0761,3.1604 41.6184,3.1604 Z" fill="#ffffff"></path><path id="Vector_9" d="m 25.8216,17.1045 c -0.1869,0.2749 -0.4967,0.4856 -0.9292,0.6319 l 0.1409,0.647 -0.5887,0.1231 -0.1368,-0.6305 c -0.2944,0.0451 -0.5818,0.0533 -0.8636,0.0232 -0.2819,-0.0301 -0.5163,-0.0903 -0.7046,-0.1792 l 0.1716,-0.7728 c 0.173,0.0766 0.3669,0.1313 0.5832,0.1627 0.2163,0.0315 0.4325,0.0342 0.6488,0.0096 l -0.2093,-0.9657 c -0.293,-0.0068 -0.5455,-0.0315 -0.7548,-0.0725 -0.2107,-0.041 -0.3963,-0.1258 -0.5609,-0.2544 -0.1632,-0.1286 -0.2735,-0.3228 -0.3293,-0.5814 -0.0697,-0.32 -0.0097,-0.6196 0.1786,-0.8973 0.1884,-0.279 0.5009,-0.4897 0.9376,-0.6333 l -0.1395,-0.6415 0.5888,-0.1231 0.1367,0.6305 c 0.4925,-0.0615 0.9167,-0.0273 1.2738,0.104 l -0.1409,0.7728 c -0.3306,-0.1039 -0.6529,-0.1422 -0.9669,-0.1121 l 0.2135,0.9821 c 0.2888,0.0041 0.5372,0.026 0.7451,0.0657 0.2079,0.0396 0.3934,0.1231 0.5567,0.253 0.1632,0.1286 0.2734,0.3201 0.3278,0.5745 0.0684,0.316 0.0098,0.6115 -0.1772,0.8864 z m -2.4304,-1.8891 c 0.0879,0.0466 0.2078,0.0753 0.3585,0.089 l -0.1786,-0.8208 c -0.1423,0.0657 -0.2399,0.1437 -0.2944,0.2339 -0.0544,0.0903 -0.0711,0.1847 -0.0488,0.2846 0.0209,0.0957 0.0754,0.1682 0.1633,0.2133 z m 1.6212,1.5416 c 0.0558,-0.0834 0.0726,-0.1737 0.053,-0.2708 -0.0209,-0.0958 -0.0739,-0.1682 -0.1604,-0.2148 -0.0865,-0.0465 -0.2037,-0.0779 -0.3502,-0.0957 l 0.173,0.7975 c 0.1353,-0.0602 0.2302,-0.1327 0.286,-0.2162 z" fill="#ffffff"></path><path id="Vector_10" d="m 41.6505,7.12449 c -0.6278,0 -1.2152,-0.13952 -1.7552,-0.4172 -1.6966,-0.8727 -2.3161,-2.78635 -2.3426,-2.86706 -0.0223,-0.07249 0.0182,-0.14909 0.0921,-0.17098 0.074,-0.02188 0.1521,0.01778 0.1744,0.09028 0.0056,0.01915 0.6139,1.88766 2.2073,2.70702 0.8818,0.45276 1.9072,0.50474 3.0458,0.15457 0.0739,-0.02326 0.152,0.01778 0.1744,0.08891 0.0237,0.07249 -0.0182,0.1491 -0.0907,0.17098 -0.5246,0.16141 -1.0283,0.24211 -1.5069,0.24211 z" fill="#ffffff"></path><path id="Vector_11" d="m 3.83423,15.0718 c -0.06976,0 -0.12976,-0.052 -0.13813,-0.1217 C 3.68773,14.8749 3.74214,14.8078 3.81888,14.7983 5.00483,14.6642 5.9187,14.2087 6.53679,13.4427 7.65297,12.0598 7.43252,10.1092 7.42973,10.09 7.42136,10.0148 7.47577,9.94641 7.55251,9.93821 c 0.07674,-0.00958 0.1465,0.04514 0.15487,0.11899 0.00977,0.0848 0.23719,2.0792 -0.95015,3.5524 -0.66552,0.8262 -1.64358,1.3172 -2.90626,1.4595 -0.00558,0 -0.01116,0 -0.01674,0 z" fill="#ffffff"></path><path id="Vector_12" d="m 11.2568,27.2267 c -0.0599,0 -0.1144,-0.0383 -0.1339,-0.0957 C 11.1173,27.1118 10.509,25.2433 8.91566,24.424 8.03387,23.9712 7.00838,23.9192 5.86987,24.2694 5.79593,24.2926 5.71779,24.2516 5.69547,24.1805 5.67175,24.108 5.71361,24.0314 5.78616,24.0095 c 1.21245,-0.3734 2.3105,-0.3146 3.26065,0.1737 1.69659,0.8727 2.31609,2.7864 2.34259,2.8671 0.0223,0.0725 -0.0181,0.1491 -0.0921,0.171 -0.0139,0.0041 -0.0279,0.0068 -0.0418,0.0068 z" fill="#ffffff"></path><path id="Vector_13" d="m 41.3743,20.9509 c -0.0698,0 -0.1298,-0.0506 -0.1381,-0.1203 -0.0098,-0.0848 -0.2372,-2.0792 0.9501,-3.5524 0.6655,-0.8262 1.6436,-1.3173 2.9063,-1.4595 0.0767,-0.0082 0.1451,0.0451 0.1548,0.1204 0.0084,0.0752 -0.046,0.1422 -0.1227,0.1518 -1.186,0.134 -2.0999,0.5895 -2.7179,1.3556 -1.1162,1.3829 -0.8958,3.3335 -0.893,3.3526 0.0084,0.0752 -0.046,0.1436 -0.1228,0.1518 -0.0056,0 -0.0111,0 -0.0167,0 z" fill="#ffffff"></path></g></g></g></svg> 