<?xml version="1.0" encoding="UTF-8" standalone="no"?> <svg xmlns:inkscape="http://www.inkscape.org/namespaces/inkscape" xmlns:sodipodi="http://sodipodi.sourceforge.net/DTD/sodipodi-0.dtd" xmlns="http://www.w3.org/2000/svg" xmlns:svg="http://www.w3.org/2000/svg" width="60.348595" height="66.992897" viewBox="0 0 60.348595 66.992897" fill="none" version="1.1" id="svg1873" sodipodi:docname="Group.svg" inkscape:version="1.2.2 (732a01da63, 2022-12-09, custom)"><defs id="defs1877"></defs><g id="Group" transform="translate(-0.60000713)"><g id="Group_2"><path id="Vector" d="m 32.7803,29.551 c -0.4589,-1.4968 -1.0634,-2.3798 -1.799,-2.6219 -0.7007,-0.2321 -1.3329,-0.1495 -1.8806,0.2421 -1.5849,1.1351 -2.137,4.6769 -2.3263,7.2987 L 25.778,19.3285 c 0,-0.0128 -0.0189,-1.2846 -0.2826,-2.7657 -0.3584,-2.0052 -0.9731,-3.4222 -1.8282,-4.2126 -0.5448,-0.5041 -1.1842,-0.7448 -1.9038,-0.7135 -0.7575,0.0313 -1.3999,0.3461 -1.9112,0.9357 -1.2149,1.3985 -1.4727,4.0801 -1.4698,6.1323 -0.4181,-2.2729 -0.8274,-3.9221 -1.2251,-4.9289 -0.0277,-0.1168 -0.2637,-1.0596 -0.8405,-1.9668 -0.8143,-1.2803 -1.9141,-1.85847 -3.1829,-1.6691 -0.7298,0.1083 -1.3154,0.4686 -1.7393,1.0681 -0.6132,0.8673 -0.8871,2.2117 -0.8157,3.999 0.0145,0.3703 0.0437,0.7192 0.0786,1.034 C 10.069,15.0518 9.03625,14.1546 7.49944,14.3953 6.39527,14.569 5.64507,15.385 5.32751,16.7551 5.08716,17.789 5.15417,18.8899 5.22263,19.3271 5.42948,20.6501 5.59991,21.9987 5.76598,23.393 5.4994,22.9159 5.10755,22.5171 4.50011,22.2992 3.19783,21.8335 1.83437,22.6339 1.31724,23.6436 c -0.884209,1.7289 -1.3882239,6.3018 1.23236,18.2732 1.66937,7.6248 4.01901,15.4462 5.15523,18.5636 0.19811,0.544 0.58996,0.9869 1.10126,1.2475 1.21631,0.6181 3.73641,1.3544 8.83481,1.3544 4.204,0 7.0752,-0.7633 8.7445,-1.4028 1.8194,-0.6978 2.6308,-1.3899 2.6643,-1.4198 0.0073,-0.0057 0.0131,-0.0114 0.0175,-0.0186 2.0044,-2.5093 3.5689,-7.9196 4.2943,-14.8437 0.6614,-6.3218 0.4356,-12.541 -0.5768,-15.845 z" fill="#a5f0bd"></path><g id="Group_3"><path id="Vector_2" d="m 17.6364,63.0808 c -5.097,0 -7.617,-0.7363 -8.83483,-1.3544 C 8.29027,61.4673 7.89842,61.0243 7.70031,60.4789 6.5641,57.3615 4.21445,49.5401 2.54509,41.9153 -0.0755005,29.9439 0.428514,25.371 1.31273,23.6421 1.82839,22.6324 3.19331,21.832 4.49414,22.2977 5.6828,22.7236 6.04988,23.8415 6.25236,24.8783 6.26693,24.9552 6.21595,25.0307 6.13583,25.0449 6.05717,25.0591 5.97996,25.0093 5.9654,24.931 5.69736,23.5538 5.24142,22.8688 4.39363,22.5655 3.49776,22.245 2.16343,22.6139 1.57202,23.7703 0.00753081,26.8279 1.39284,35.293 2.82914,41.8569 c 1.66645,7.612 4.01173,15.4177 5.14503,18.528 0.17335,0.4757 0.51421,0.863 0.96142,1.0895 0.97307,0.4942 3.39551,1.3216 8.69931,1.3216 7.7351,0 11.0097,-2.582 11.2064,-2.7443 1.9374,-2.4367 3.5164,-7.9254 4.2244,-14.6858 0.6584,-6.2875 0.4355,-12.4626 -0.5652,-15.7338 -0.4239,-1.3843 -0.9818,-2.226 -1.614,-2.4339 -0.6133,-0.2022 -1.1421,-0.1367 -1.6155,0.2022 -2.4443,1.7517 -2.3016,10.006 -2.3001,10.0901 0.0014,0.0769 -0.0598,0.1424 -0.1399,0.1452 -0.0743,0.0043 -0.1456,-0.0555 -0.1515,-0.1324 L 25.4836,19.3412 c 0,-0.0569 -0.0845,-4.9916 -2.0204,-6.7831 -0.4851,-0.4486 -1.0547,-0.6637 -1.6913,-0.6366 -0.6729,0.0284 -1.2454,0.309 -1.7014,0.8345 -2.0073,2.3128 -1.2571,8.5933 -1.2498,8.6559 0.0102,0.0784 -0.0466,0.1496 -0.1267,0.1581 -0.0802,0.01 -0.153,-0.0456 -0.1617,-0.1239 -0.0321,-0.2635 -0.7721,-6.4684 1.3168,-8.8752 0.5113,-0.5882 1.1537,-0.9029 1.9112,-0.9357 0.7181,-0.0299 1.3591,0.2094 1.9039,0.7135 0.8551,0.7904 1.4698,2.2088 1.8281,4.2126 0.2652,1.4811 0.2826,2.7529 0.2826,2.7657 l 0.9964,15.1414 c 0.1894,-2.6232 0.7429,-6.1636 2.3263,-7.2987 0.5478,-0.393 1.18,-0.4742 1.8806,-0.2421 0.7357,0.2435 1.3416,1.1251 1.799,2.6219 1.0124,3.304 1.2382,9.5232 0.5769,15.8449 -0.7254,6.9242 -2.2899,12.3345 -4.2943,14.8438 -0.0059,0.0071 -0.0117,0.0128 -0.0175,0.0185 -0.0335,0.0285 -0.8449,0.7221 -2.6643,1.4199 -1.6694,0.6409 -4.5405,1.4042 -8.7445,1.4042 z" fill="#171b65"></path><path id="Vector_3" d="m 13.7121,35.7174 c -0.0714,0 -0.134,-0.0513 -0.1442,-0.121 L 10.8643,17.6138 c 0,0 -0.2346,-1.0881 -0.287,-2.4083 -0.0714,-1.7873 0.2025,-3.1331 0.8157,-3.9989 0.4239,-0.5996 1.0095,-0.9585 1.7393,-1.0682 1.2688,-0.18936 2.3686,0.3888 3.1829,1.6691 0.5769,0.9072 0.8128,1.85 0.8405,1.9668 0.74,1.8798 1.5252,5.9942 2.3307,12.2305 0.6002,4.6469 0.9891,8.7983 0.992,8.8396 0.0073,0.0783 -0.0524,0.1481 -0.1325,0.1552 -0.0816,0.0072 -0.1515,-0.0512 -0.1588,-0.1296 -0.016,-0.1652 -1.5572,-16.5755 -3.3082,-21.0017 -0.0029,-0.0072 -0.0043,-0.0128 -0.0058,-0.02 -0.0087,-0.0384 -0.9192,-3.8423 -3.6985,-3.4264 -0.6468,0.0968 -1.1668,0.4158 -1.5441,0.9484 -1.3824,1.9539 -0.4909,6.1523 -0.4822,6.195 l 2.7066,17.9912 c 0.0116,0.0783 -0.0437,0.1495 -0.1224,0.1609 -0.0073,0 -0.0146,0.0014 -0.0219,0.0014 z" fill="#171b65"></path><path id="Vector_4" d="M 8.11985,37.1244 C 8.05575,37.1244 7.99748,37.0832 7.98,37.0205 6.90497,33.3206 6.42717,29.1592 5.96394,25.136 5.73087,23.1067 5.51091,21.1912 5.21812,19.3241 5.14965,18.8869 5.0841,17.7861 5.323,16.7521 5.64056,15.3807 6.39221,14.5647 7.49493,14.3923 9.56634,14.0676 10.72,15.8079 11.109,17.544 c 0.0175,0.0769 -0.0321,0.1523 -0.1107,0.1694 -0.0787,0.0171 -0.1559,-0.0313 -0.1734,-0.1082 C 10.7011,17.0498 9.95673,14.2941 7.54154,14.6729 6.55099,14.8281 5.89985,15.5487 5.60705,16.8148 5.3769,17.8074 5.43953,18.8613 5.50509,19.28 c 0.29279,1.8727 0.51275,3.791 0.74728,5.8233 0.46177,4.0118 0.93811,8.1603 2.00586,11.8374 0.02185,0.0755 -0.02331,0.1538 -0.10051,0.1766 C 8.14461,37.1216 8.1315,37.123 8.11839,37.123 Z" fill="#171b65"></path></g><path id="Vector_5" d="m 10.9284,41.2302 c -0.0554,0 -0.1093,-0.0313 -0.1326,-0.084 -0.032,-0.0712 0,-0.1566 0.0743,-0.188 5.0299,-2.1803 10.5421,-3.435 15.9391,-3.6272 0.0845,-0.0029 0.1486,0.0583 0.1515,0.1367 0.0029,0.0783 -0.0597,0.1452 -0.1398,0.1481 -5.3607,0.1922 -10.8349,1.4384 -15.8314,3.603 -0.0189,0.0086 -0.0393,0.0129 -0.0582,0.0129 z" fill="#171b65"></path></g><g id="Group_4"><path id="Vector_6" d="m 29.3045,12.5894 c -0.0685,0 -0.1297,-0.047 -0.1428,-0.1154 C 28.4858,9.10167 26.7291,5.92299 24.2163,3.52047 24.1595,3.46493 24.158,3.37521 24.2134,3.31967 24.2702,3.2627 24.3619,3.2627 24.4187,3.31682 c 2.5551,2.4424 4.341,5.67377 5.0271,9.10168 0.016,0.0769 -0.0364,0.1524 -0.1151,0.1666 -0.0087,0.0014 -0.0189,0.0029 -0.0277,0.0029 z" fill="#171b65"></path><path id="Vector_7" d="m 35.3541,12.5894 c -0.0087,0 -0.0189,0 -0.0276,-0.0029 -0.0787,-0.0156 -0.1311,-0.0897 -0.1151,-0.1666 0.6875,-3.42788 2.472,-6.66068 5.027,-9.10165 0.0583,-0.05554 0.1501,-0.05412 0.2054,0.00285 0.0568,0.05554 0.0554,0.14668 -0.0029,0.2008 -2.5128,2.40252 -4.2696,5.5812 -4.9455,8.9536 -0.0131,0.0683 -0.0743,0.1153 -0.1427,0.1153 z" fill="#171b65"></path><path id="Vector_8" d="m 32.3286,9.1031 c -0.0801,0 -0.1457,-0.06409 -0.1457,-0.14242 V 0.142414 C 32.1829,0.0640863 32.2485,0 32.3286,0 c 0.0801,0 0.1457,0.0640863 0.1457,0.142414 V 8.96068 c 0,0.07833 -0.0656,0.14242 -0.1457,0.14242 z" fill="#171b65"></path></g><g id="Group_5"><path id="Vector_9" d="m 60.2327,27.5571 c -0.3,-0.5882 -0.8084,-1.0439 -1.4304,-1.286 -0.5783,-0.225 -1.2135,-0.245 -1.7422,-0.0555 -0.4414,0.158 -0.9119,0.4286 -1.2819,1.1336 0.1675,-1.4114 0.3394,-2.7757 0.5477,-4.1144 0.0685,-0.4372 0.134,-1.5352 -0.1049,-2.5691 -0.3176,-1.3672 -1.0663,-2.1818 -2.1661,-2.3541 -0.9833,-0.1538 -1.8558,0.1581 -2.523,0.9015 -0.2753,0.3062 -0.4851,0.6508 -0.6482,0.9869 0.0364,-0.3276 0.0685,-0.695 0.083,-1.0852 0.0219,-0.5625 0.0102,-1.0809 -0.0349,-1.5552 0,-0.0028 0,-0.0071 0,-0.0099 0,-0.0029 0,-0.0057 -0.0015,-0.0086 C 50.8298,16.52 50.569,15.7083 50.1524,15.1187 49.73,14.5205 49.1459,14.1631 48.419,14.0548 c -1.2644,-0.1894 -2.3628,0.3874 -3.1756,1.6649 -0.5769,0.9086 -0.8128,1.8513 -0.8405,1.9653 -0.4327,1.0994 -0.8522,2.9195 -1.2397,5.0414 0.0073,-1.2219 -0.0757,-2.6831 -0.4006,-3.9691 0,-0.0099 0,-0.0199 0,-0.0284 -0.0014,-0.0214 -0.0102,-0.0413 -0.0204,-0.0599 -0.2243,-0.853 -0.5579,-1.622 -1.0459,-2.1846 -0.5098,-0.5867 -1.1507,-0.9 -1.9053,-0.9328 -0.7167,-0.0299 -1.3547,0.2094 -1.8981,0.7121 -0.8536,0.7889 -1.4683,2.206 -1.8252,4.2097 -0.2651,1.4811 -0.2826,2.7515 -0.2826,2.7572 L 34.78,38.4916 c -0.1821,-2.6318 -0.7269,-6.2562 -2.3322,-7.4055 -0.5448,-0.3902 -1.1755,-0.4728 -1.8733,-0.2421 -0.7327,0.2421 -1.3372,1.1222 -1.7946,2.6176 -1.0124,3.3026 -1.2382,9.5218 -0.5769,15.8421 0.7255,6.9227 2.2899,12.3316 4.2929,14.8395 0.0058,0.0071 0.0116,0.0128 0.0175,0.0185 0.0335,0.0285 0.8434,0.7206 2.6628,1.4185 3.0226,1.1592 6.4225,1.4028 8.7416,1.4028 5.0955,0 7.6156,-0.7363 8.8305,-1.353 0.5098,-0.2592 0.9002,-0.7007 1.0968,-1.2433 1.1363,-3.1174 3.4859,-10.9388 5.1553,-18.5636 2.6206,-11.9699 2.1165,-16.5414 1.2338,-18.2689 z" fill="#ffffff"></path><g id="Group_6"><g id="Group_7"><path id="Vector_10" d="m 43.9136,66.9915 c -4.204,0 -7.0751,-0.7633 -8.7445,-1.4042 -1.8194,-0.6978 -2.6308,-1.39 -2.6643,-1.4199 -0.0072,-0.0057 -0.0131,-0.0114 -0.0174,-0.0185 -2.0044,-2.5093 -3.5689,-7.9196 -4.2944,-14.8438 -0.6613,-6.3217 -0.4355,-12.5409 0.5769,-15.845 0.4588,-1.4967 1.0634,-2.3797 1.799,-2.6218 0.7007,-0.2321 1.3329,-0.1495 1.8806,0.2421 1.5849,1.1351 2.137,4.6769 2.3263,7.2987 l 0.9979,-15.1485 c 0,0 0.0174,-1.2775 0.2826,-2.7586 0.3583,-2.0052 0.973,-3.4222 1.8281,-4.2126 0.5448,-0.5041 1.1872,-0.7448 1.9039,-0.7135 0.7575,0.0313 1.3999,0.3461 1.9112,0.9357 2.0889,2.4068 1.3489,8.6117 1.3168,8.8752 -0.0102,0.0783 -0.0816,0.1339 -0.1617,0.1239 -0.0801,-0.01 -0.1369,-0.0798 -0.1267,-0.1581 0.0073,-0.0626 0.7575,-6.3445 -1.2498,-8.6559 -0.456,-0.5255 -1.0285,-0.8061 -1.7015,-0.8345 -0.6365,-0.0271 -1.2046,0.1865 -1.6912,0.6365 -1.9359,1.7916 -2.0189,6.7263 -2.0204,6.7761 l -1.1959,18.1706 c -0.0059,0.0769 -0.0772,0.1367 -0.1515,0.1324 -0.0787,-0.0028 -0.1413,-0.0683 -0.1399,-0.1452 0.0015,-0.0826 0.1428,-8.3384 -2.3001,-10.0901 -0.4734,-0.3389 -1.0022,-0.4058 -1.6155,-0.2022 -0.6322,0.2094 -1.1901,1.051 -1.614,2.4339 -1.0022,3.2712 -1.2236,9.4477 -0.5652,15.7339 0.708,6.7618 2.287,12.249 4.2244,14.6857 0.1981,0.1623 3.4844,2.7443 11.2063,2.7443 5.3039,0 7.7278,-0.8274 8.6994,-1.3216 0.4457,-0.2264 0.7866,-0.6138 0.9614,-1.0895 1.1333,-3.1103 3.4786,-10.916 5.145,-18.528 1.4363,-6.5639 2.8217,-15.029 1.2572,-18.0866 -0.5914,-1.1564 -1.9243,-1.5252 -2.8216,-1.2048 -0.8478,0.3033 -1.3038,0.9883 -1.5718,2.3655 -0.0146,0.0769 -0.0918,0.1282 -0.1704,0.1139 -0.0787,-0.0142 -0.1311,-0.0897 -0.1166,-0.1666 0.2025,-1.0368 0.5696,-2.1547 1.7582,-2.5805 1.3023,-0.4657 2.6658,0.3346 3.1815,1.3443 0.8842,1.7289 1.3882,6.3019 -1.2324,18.2732 -1.6694,7.6248 -4.019,15.4462 -5.1552,18.5636 -0.1981,0.544 -0.59,0.9869 -1.1013,1.2476 -1.2163,0.618 -3.7364,1.3543 -8.8348,1.3543 z" fill="#171b65"></path><path id="Vector_11" d="m 47.838,39.6281 c 0,0 -0.0146,0 -0.0219,-0.0014 -0.0801,-0.0114 -0.134,-0.0841 -0.1223,-0.161 l 2.7036,-17.9826 c 0.0102,-0.0512 0.9017,-4.251 -0.4807,-6.2035 -0.3773,-0.5326 -0.8959,-0.8516 -1.5427,-0.9485 -2.7793,-0.4144 -3.6898,3.388 -3.6985,3.4265 -0.0015,0.0071 -0.0044,0.0142 -0.0058,0.0199 -1.751,4.4263 -3.2922,20.8366 -3.3082,21.0018 -0.0073,0.0783 -0.0772,0.1367 -0.1588,0.1296 -0.0801,-0.0071 -0.1398,-0.0769 -0.1325,-0.1552 0.016,-0.1652 1.5601,-16.5912 3.3227,-21.0687 0.0277,-0.1168 0.2637,-1.0596 0.8405,-1.9668 0.8143,-1.2803 1.9141,-1.8585 3.1829,-1.6691 0.7298,0.1083 1.3154,0.4686 1.7393,1.0681 0.6132,0.8673 0.8871,2.2117 0.8157,3.999 -0.0524,1.3202 -0.2855,2.4054 -0.2884,2.4168 l -2.7022,17.974 c -0.0102,0.0713 -0.0728,0.1211 -0.1442,0.1211 z" fill="#171b65"></path><path id="Vector_12" d="m 53.4288,41.0366 c -0.0132,0 -0.0263,-0.0015 -0.0394,-0.0057 -0.0772,-0.0214 -0.1223,-0.0997 -0.1005,-0.1766 1.0678,-3.6771 1.5456,-7.8257 2.0059,-11.8375 0.233,-2.0322 0.4545,-3.9505 0.7473,-5.8233 0.0655,-0.4187 0.1281,-1.4725 -0.102,-2.4651 -0.2928,-1.2661 -0.9439,-1.9867 -1.9345,-2.142 -2.4152,-0.3788 -3.1596,2.3755 -3.2834,2.9323 -0.0175,0.077 -0.0947,0.1254 -0.1733,0.1083 -0.0787,-0.0171 -0.1282,-0.0926 -0.1107,-0.1695 0.3889,-1.7374 1.5426,-3.4777 3.614,-3.1516 1.1042,0.1737 1.8544,0.9898 2.1719,2.3598 0.2404,1.0339 0.1734,2.1348 0.1049,2.572 -0.2913,1.867 -0.5127,3.7825 -0.7458,5.8119 -0.4632,4.0232 -0.941,8.1831 -2.0161,11.8844 -0.0174,0.0627 -0.0772,0.104 -0.1398,0.104 z" fill="#171b65"></path></g><path id="Vector_13" d="m 28.279,37.7098 h -0.0029 c -0.0801,0 -0.1457,-0.0655 -0.1442,-0.1439 0.0014,-0.0783 0.0699,-0.141 0.1471,-0.141 0.0786,-0.0042 1.9592,-0.0199 2.4836,-2.3313 0.6439,-2.834 -0.7312,-3.4749 -0.7458,-3.4806 -0.0728,-0.0327 -0.1063,-0.1167 -0.0728,-0.188 0.0335,-0.0712 0.1194,-0.1039 0.1923,-0.0712 0.0655,0.0285 1.6052,0.7434 0.9104,3.8025 -0.3001,1.323 -1.0343,1.9468 -1.5965,2.2373 -0.5987,0.309 -1.1261,0.3162 -1.1712,0.3162 z" fill="#171b65"></path><path id="Vector_14" d="m 40.7308,21.627 c -0.0102,0 -0.0204,0 -0.0321,0 -0.7516,-0.0143 -1.3576,-0.3062 -1.799,-0.8687 -1.1566,-1.4726 -0.8041,-4.2369 -0.6905,-4.684 0.019,-0.0769 0.0991,-0.1225 0.1763,-0.104 0.0786,0.0185 0.1253,0.0954 0.1063,0.1723 -0.1529,0.6053 -0.3743,3.1516 0.6395,4.4419 0.3846,0.4899 0.9148,0.7448 1.5732,0.7577 0.37,0.0071 0.7022,-0.1382 0.9848,-0.433 0.6278,-0.6551 0.8186,-1.8072 0.788,-2.1561 -0.0073,-0.0784 0.0525,-0.1467 0.1326,-0.1538 0.0801,-0.0057 0.15,0.0512 0.1573,0.1296 0.0408,0.4842 -0.2127,1.6918 -0.8667,2.374 -0.3336,0.3475 -0.7269,0.5227 -1.1712,0.5227 z" fill="#171b65"></path><path id="Vector_15" d="m 48.9407,20.4478 c -0.0102,0 -0.0204,0 -0.0306,0 -0.7138,-0.0128 -1.2717,-0.3162 -1.6607,-0.8987 -1.0546,-1.5836 -0.5025,-4.6882 -0.2389,-5.3049 0.0306,-0.0726 0.1166,-0.1068 0.1909,-0.0769 0.0743,0.0299 0.1092,0.114 0.0786,0.1866 -0.2432,0.5682 -0.7662,3.5675 0.2142,5.04 0.3321,0.4999 0.8113,0.7577 1.4217,0.7705 0.3569,0.0057 0.673,-0.1339 0.9454,-0.4173 0.6264,-0.6508 0.8157,-1.8172 0.7866,-2.1718 -0.0073,-0.0783 0.0524,-0.1467 0.134,-0.1538 0.0801,-0.0071 0.15,0.0513 0.1573,0.1296 0.0335,0.403 -0.1675,1.6648 -0.8652,2.3911 -0.3234,0.3361 -0.7036,0.507 -1.1319,0.507 z" fill="#171b65"></path><path id="Vector_16" d="m 54.5475,24.3599 c -0.0117,0 -0.0248,0 -0.0364,0 -0.8187,-0.0157 -1.4509,-0.3532 -1.8792,-1.0054 -0.9832,-1.4968 -0.555,-4.1386 -0.2898,-4.7339 0.032,-0.0726 0.118,-0.1054 0.1922,-0.074 0.0743,0.0313 0.1078,0.1153 0.0758,0.188 -0.2768,0.6223 -0.6147,3.1231 0.2666,4.4675 0.3729,0.5668 0.9235,0.8616 1.6402,0.8744 0.3962,0.0071 0.7254,-0.1253 0.9833,-0.3945 0.5186,-0.5412 0.6191,-1.4896 0.5856,-1.8642 -0.0073,-0.0783 0.0524,-0.1467 0.1325,-0.1538 0.0801,-0.0071 0.1501,0.0513 0.1573,0.1296 0.0423,0.4928 -0.099,1.4939 -0.6642,2.0835 -0.3088,0.3219 -0.7007,0.4857 -1.1654,0.4857 z" fill="#171b65"></path><path id="Vector_17" d="m 59.5003,32.4946 c -0.1151,0 -0.2244,-0.0171 -0.3234,-0.0456 -0.8536,-0.2549 -1.3853,-1.286 -1.4582,-2.8312 -0.0655,-1.3971 0.2899,-3.0619 0.9221,-3.3154 0.0743,-0.0299 0.1602,0.0057 0.1894,0.0783 0.0306,0.0727 -0.0058,0.1553 -0.0801,0.1852 -0.4021,0.1609 -0.8129,1.5224 -0.7415,3.0377 0.0321,0.6707 0.2171,2.2643 1.2513,2.572 0.386,0.1153 0.9774,-0.0413 1.3693,-0.8602 0.0335,-0.0712 0.1209,-0.1026 0.1937,-0.0684 0.0729,0.0328 0.1035,0.1182 0.07,0.1894 -0.3788,0.7876 -0.9338,1.0582 -1.3956,1.0582 z" fill="#171b65"></path></g></g></g></svg> 