<?xml version="1.0" encoding="UTF-8" standalone="no"?> <svg xmlns:inkscape="http://www.inkscape.org/namespaces/inkscape" xmlns:sodipodi="http://sodipodi.sourceforge.net/DTD/sodipodi-0.dtd" xmlns="http://www.w3.org/2000/svg" xmlns:svg="http://www.w3.org/2000/svg" width="91.469986" height="73.981979" viewBox="0 0 91.469986 73.981979" fill="none" version="1.1" id="svg2823" sodipodi:docname="vida.svg" inkscape:version="1.2.2 (732a01da63, 2022-12-09, custom)"><defs id="defs2827"></defs><g id="Mask group" transform="translate(-44.518788,-5.0180171)"><g id="Mask group_2"><mask id="mask0_1214_3149" maskUnits="userSpaceOnUse" x="0" y="0" width="163" height="79"><path id="Rectangle 1244" d="m 0,0 h 149 c 7.732,0 14,6.26801 14,14 v 51 c 0,7.732 -6.268,14 -14,14 H 0 Z" fill="#fafafa"></path></mask><g mask="url(#mask0_1214_3149)" id="g2819"><g id="Capa 1"><g id="Group"><g id="Group_2"><g id="Group_3"><g id="Group_4"><g id="Group_5"><path id="Vector" d="m 111.546,64.3078 c 0.738,0 1.336,-0.6083 1.307,-1.3457 -0.706,-18.255 -15.7322,-32.8363 -34.1668,-32.8363 -18.4346,0 -33.4578,14.584 -34.1664,32.8363 -0.029,0.7374 0.569,1.3457 1.3066,1.3457 z" fill="#2f3ae9"></path><g id="Group_6"><g id="Group_7"><path id="Vector_2" d="M 62.4042,64.3209 C 61.0449,80.6272 55.2179,148.08 55.2179,148.08 H 74.1847 L 78.7604,77.5908 V 64.3209 Z" fill="#a5f0bd"></path></g><g id="Group_8"><path id="Vector_3" d="m 94.9686,64.3209 c 1.3593,16.3063 7.1864,83.7591 7.1864,83.7591 H 83.1882 L 78.6125,77.5908 V 64.3209 c 8.182,0 16.3561,0 16.3561,0 z" fill="#a5f0bd"></path></g></g></g><g id="Group_9"><path id="Vector_4" d="m 109.839,51.9071 c 5.935,0 6.722,-5.941 6.973,-7.9583 0.176,-1.4168 0.321,-2.8388 0.434,-4.2609 0.277,-3.4366 -0.052,-6.8891 -0.864,-10.2388 -0.458,-1.8934 -0.492,-4.0581 1.391,-4.7771 3.443,-1.314 5.021,7.1735 5.021,7.1735 0,0 4.073,-2.1804 8.517,-0.4213" stroke="#171b65" stroke-width="0.5" stroke-linecap="round" stroke-linejoin="round"></path><path id="Vector_5" d="m 121.24,27.0475 c 0,0 -1.393,-11.811 1.865,-11.811 2.787,0 2.102,11.5608 2.102,11.5608" stroke="#171b65" stroke-width="0.5" stroke-linecap="round" stroke-linejoin="round"></path><path id="Vector_6" d="m 125.057,19.1471 c 0,0 -0.239,-5.0904 2.176,-5.1958 3.282,-0.1422 1.288,12.8223 1.288,12.8223" stroke="#171b65" stroke-width="0.5" stroke-linecap="round" stroke-linejoin="round"></path><path id="Vector_7" d="m 129.124,19.2048 c 0,0 -0.094,-2.5044 1.71,-2.4701 2.708,0.0526 1.552,10.115 1.552,10.115" stroke="#171b65" stroke-width="0.5" stroke-linecap="round" stroke-linejoin="round"></path><path id="Vector_8" d="m 94.8791,64.6343 c 2.1996,5.3644 13.0899,13.873 25.5469,8.514 17.355,-7.4659 16.074,-42.4959 14.389,-49.672 -0.082,-0.345 -0.382,-1.9567 -1.246,-1.9698 -0.641,-0.0079 -0.949,0.8032 -0.944,1.1824" stroke="#171b65" stroke-width="0.5" stroke-linecap="round" stroke-linejoin="round"></path></g></g><g id="Group_10"><path id="Vector_9" d="m 51.7513,64.3976 c 0,0 -1.2513,20.2643 1.5173,33.8081 0.2345,1.1429 1.6333,1.5906 2.4868,0.8005 0.5005,-0.4634 0.972,-1.2666 1.2855,-2.636" stroke="#171b65" stroke-width="0.5" stroke-linecap="round" stroke-linejoin="round"></path></g></g><path id="Vector_10" d="M 62.404,64.0579 V 58.3144" stroke="#171b65" stroke-width="0.5" stroke-linecap="round" stroke-linejoin="round"></path><g id="Group_11"><path id="Vector_11" d="m 73.5312,30.3999 4.5441,3.621" stroke="#171b65" stroke-width="0.5" stroke-linecap="round" stroke-linejoin="round"></path><path id="Vector_12" d="m 84.0024,30.3999 -4.5441,3.621" stroke="#171b65" stroke-width="0.5" stroke-linecap="round" stroke-linejoin="round"></path></g><path id="Vector_13" d="M 78.7653,35.7537 V 63.1415" stroke="#171b65" stroke-width="0.5" stroke-linecap="round" stroke-linejoin="round"></path><path id="Vector_14" d="m 88.2939,41.8976 h 7.5525" stroke="#ffffff" stroke-width="0.5" stroke-linecap="round" stroke-linejoin="round"></path><path id="Vector_15" d="m 81.0703,38.8269 c 0.2546,0 0.461,-0.2063 0.461,-0.4608 0,-0.2546 -0.2064,-0.4609 -0.461,-0.4609 -0.2546,0 -0.461,0.2063 -0.461,0.4609 0,0.2545 0.2064,0.4608 0.461,0.4608 z" fill="#171b65"></path><path id="Vector_16" d="m 81.0703,46.4058 c 0.2546,0 0.461,-0.2064 0.461,-0.4609 0,-0.2545 -0.2064,-0.4608 -0.461,-0.4608 -0.2546,0 -0.461,0.2063 -0.461,0.4608 0,0.2545 0.2064,0.4609 0.461,0.4609 z" fill="#171b65"></path><path id="Vector_17" d="m 81.0703,53.9821 c 0.2546,0 0.461,-0.2064 0.461,-0.4609 0,-0.2545 -0.2064,-0.4608 -0.461,-0.4608 -0.2546,0 -0.461,0.2063 -0.461,0.4608 0,0.2545 0.2064,0.4609 0.461,0.4609 z" fill="#171b65"></path><path id="Vector_18" d="m 81.0703,61.5614 c 0.2546,0 0.461,-0.2063 0.461,-0.4608 0,-0.2545 -0.2064,-0.4609 -0.461,-0.4609 -0.2546,0 -0.461,0.2064 -0.461,0.4609 0,0.2545 0.2064,0.4608 0.461,0.4608 z" fill="#171b65"></path></g><g id="Group_12"><g id="Group_13"><path id="Vector_19" d="m 84.271,14.017 c 1.4278,1.5221 2.2997,3.5683 2.2997,5.8172 0,4.7007 -3.8117,8.5113 -8.5139,8.5113 -3.2164,0 -6.014,-1.7828 -7.4629,-4.4136" stroke="#171b65" stroke-width="0.5" stroke-linecap="round" stroke-linejoin="round"></path><path id="Vector_20" d="m 70.6598,24.048 c 2.7686,-1.9145 4.7759,-4.9482 5.0525,-8.3006 0.3161,0.6821 1.0642,1.0508 1.7913,1.2404 1.6649,0.4345 3.5036,0.1659 4.9735,-0.7295 0.8351,-0.5083 1.5463,-1.2114 2.0732,-2.033" stroke="#62c283" stroke-width="0.5" stroke-linecap="round" stroke-linejoin="round"></path><path id="Vector_21" d="m 81.3686,20.2266 0.8693,2.1594 -1.3487,0.6163" stroke="#171b65" stroke-width="0.5" stroke-linecap="round" stroke-linejoin="round"></path><path id="Vector_22" d="M 75.5546,11.6734 C 76.545,10.9387 76.7927,9.42443 76.2474,8.30785 75.7047,7.19127 74.5087,6.49078 73.2864,6.36174 72.0641,6.2327 70.8339,6.61191 69.7618,7.22287 c -1.6807,0.95857 -2.7686,2.54917 -3.7696,4.30833 0,0 2.3682,-3.72634 -0.1713,-5.52761 -2.542,-1.80128 -5.5082,-0.0711 -7.5366,2.59131 -1.3382,1.7565 -3.6458,6.9338 -0.6612,8.8773 2.9846,1.9435 6.3012,-2.3911 6.3012,-2.3911 0,0 -4.1148,5.3932 -0.44,7.2683 2.5685,1.3114 5.9851,-3.0575 5.9851,-3.0575" stroke="#62c283" stroke-width="0.5" stroke-linecap="round" stroke-linejoin="round"></path></g><path id="Vector_23" d="m 77.957,24.3955 c 2.3024,0.7822 4.6969,0.1396 5.4477,-1.5221" stroke="#171b65" stroke-width="0.5" stroke-linecap="round" stroke-linejoin="round"></path></g><g id="Group_14"><path id="Vector_24" d="m 83.1117,20.3004 c 0.1789,0 0.324,-0.145 0.324,-0.3239 0,-0.1789 -0.1451,-0.3239 -0.324,-0.3239 -0.1789,0 -0.324,0.145 -0.324,0.3239 0,0.1789 0.1451,0.3239 0.324,0.3239 z" fill="#171b65"></path><path id="Vector_25" d="m 79.221,21.3615 c 0.179,0 0.324,-0.145 0.324,-0.3239 0,-0.1789 -0.145,-0.3239 -0.324,-0.3239 -0.1789,0 -0.324,0.145 -0.324,0.3239 0,0.1789 0.1451,0.3239 0.324,0.3239 z" fill="#171b65"></path></g><path id="Vector_26" d="m 78.0568,11.3259 c 2.4499,0 4.66,1.035 6.2143,2.6914" stroke="#62c283" stroke-width="0.5" stroke-linecap="round" stroke-linejoin="round"></path><path id="Vector_27" d="m 69.5453,19.8372 c 0,-4.7007 3.8118,-8.5113 8.514,-8.5113" stroke="#62c283" stroke-width="0.5" stroke-linecap="round" stroke-linejoin="round"></path><path id="Vector_28" d="M 70.5939,23.9349 C 69.9248,22.7183 69.5428,21.3225 69.5428,19.8373" stroke="#62c283" stroke-width="0.5" stroke-linecap="round" stroke-linejoin="round"></path></g></g></g></g></g></svg> 