<?xml version="1.0" encoding="UTF-8" standalone="no"?> <svg xmlns:inkscape="http://www.inkscape.org/namespaces/inkscape" xmlns:sodipodi="http://sodipodi.sourceforge.net/DTD/sodipodi-0.dtd" xmlns="http://www.w3.org/2000/svg" xmlns:svg="http://www.w3.org/2000/svg" width="70.732803" height="62" viewBox="0 0 70.732803 62" fill="none" version="1.1" id="svg741" sodipodi:docname="Group 1492.svg" inkscape:version="1.2.2 (732a01da63, 2022-12-09, custom)"><defs id="defs745"></defs><g id="Group 1492"><path id="Vector" d="M 70.7328,28.7846 35.3664,0 0,28.7846 1.10003,30.2462 35.3664,2.35633 69.6328,30.2462 Z" fill="#171669"></path><g id="Group"><g id="Group_2"><g id="Group_3"><g id="Group_4"><path id="Vector_2" d="m 29.8907,45.3801 c -2.9079,0 -5.586,-1.5842 -6.9893,-4.1336 -0.0644,-0.1164 -0.0215,-0.2604 0.095,-0.3248 0.1164,-0.0643 0.2604,-0.0214 0.3248,0.095 1.3206,2.3962 3.8363,3.8854 6.5695,3.8854 4.1305,0 7.4918,-3.3614 7.4918,-7.4919 0,-1.909 -0.72,-3.7291 -2.0254,-5.1232 -0.0919,-0.095 -0.0858,-0.2482 0.0123,-0.3371 0.095,-0.0919 0.2482,-0.0858 0.3371,0.0123 1.388,1.483 2.154,3.4165 2.154,5.4511 0,4.394 -3.5758,7.9698 -7.9698,7.9698 z" fill="#171b65"></path><path id="Vector_3" d="m 23.171,41.4763 c -0.0766,0 -0.1501,-0.0367 -0.1961,-0.1041 -0.0766,-0.1073 -0.049,-0.2574 0.0613,-0.334 2.577,-1.7803 4.253,-4.535 4.4859,-7.3632 0.0092,-0.1072 0.0889,-0.1961 0.1961,-0.2145 0.1073,-0.0214 0.2145,0.0368 0.2574,0.1348 0.2697,0.5761 0.9499,0.8611 1.4708,0.9959 1.4402,0.3769 3.0611,0.1379 4.3327,-0.6343 0.717,-0.4351 1.3421,-1.0479 1.8048,-1.7741 0.0705,-0.1103 0.2206,-0.144 0.3309,-0.0705 0.1103,0.0705 0.144,0.2206 0.0736,0.3309 -0.5056,0.7844 -1.1828,1.4494 -1.9611,1.9243 -1.4003,0.8518 -3.1162,1.1031 -4.7004,0.6894 -0.5975,-0.1562 -1.0724,-0.4014 -1.4003,-0.7231 -0.4198,2.7516 -2.1112,5.3715 -4.6177,7.1027 -0.0398,0.0276 -0.0888,0.0429 -0.1348,0.0429 z" fill="#62c283"></path><path id="Vector_4" d="m 32.4615,40.5265 c -0.0919,0 -0.1777,-0.0521 -0.2175,-0.141 -0.0552,-0.1195 0,-0.2635 0.1164,-0.3187 l 1.0173,-0.4657 -0.7047,-1.7497 c -0.0491,-0.1225 0.0092,-0.2604 0.1317,-0.3125 0.1226,-0.049 0.2605,0.0092 0.3126,0.1318 l 0.7875,1.961 c 0.049,0.1195 -0.0062,0.2543 -0.1226,0.3064 l -1.2226,0.5608 c -0.0337,0.0153 -0.0674,0.0214 -0.0981,0.0214 z" fill="#171b65"></path><path id="Vector_5" d="m 17.6004,40.1557 c -0.3585,0 -0.7109,-0.0766 -1.054,-0.2513 -0.7814,-0.3983 -1.2655,-0.9928 -1.4433,-1.7711 -0.2543,-1.1184 0.1808,-2.4084 0.6834,-3.4257 -1.1797,0.9591 -2.9171,1.8416 -4.5871,0.7538 -0.7446,-0.4841 -1.20419,-1.2073 -1.36659,-2.1449 -0.4014,-2.3134 1.11229,-5.2213 1.90899,-6.2662 1.7894,-2.3502 4.6146,-4.2163 7.1732,-2.4054 1.1674,0.8274 1.2838,2.0592 1.0816,3.1347 0.6159,-0.8028 1.339,-1.5229 2.243,-2.0377 1.1306,-0.6435 2.2858,-0.9254 3.3429,-0.812 1.2717,0.1348 2.3748,0.8641 2.8773,1.9028 0.5668,1.1644 0.2574,2.6383 -0.7017,3.3553 -0.1073,0.0797 -0.2574,0.0582 -0.334,-0.049 -0.0766,-0.1073 -0.0582,-0.2574 0.049,-0.334 0.7691,-0.573 1.0204,-1.8109 0.5577,-2.7608 -0.4259,-0.8764 -1.4095,-1.5198 -2.5003,-1.6363 -1.2104,-0.1287 -2.3288,0.3371 -3.055,0.7538 -1.3636,0.7783 -2.2828,2.0101 -3.2143,3.6157 -0.0735,0.1348 -0.1226,0.2114 -0.1256,0.2176 -0.0705,0.1103 -0.2145,0.144 -0.3248,0.0766 -0.1103,-0.0675 -0.1502,-0.2115 -0.0858,-0.3248 0.0429,-0.0766 0.0858,-0.1502 0.1317,-0.2268 0.4045,-0.7446 1.5566,-3.2235 -0.2175,-4.4828 -2.2797,-1.6179 -4.8628,0.1317 -6.5144,2.3042 -0.9315,1.2257 -2.1541,3.9436 -1.817,5.8954 0.1378,0.8028 0.527,1.4157 1.1551,1.8263 2.4912,1.624 5.3746,-2.0806 5.4021,-2.1174 0.0797,-0.1042 0.2298,-0.1256 0.334,-0.0459 0.1042,0.0796 0.1257,0.2298 0.046,0.334 -0.0368,0.049 -2.1235,2.8251 -1.673,4.7954 0.147,0.6404 0.5362,1.1153 1.1919,1.4493 2.1327,1.0878 5.108,-2.675 5.1386,-2.7118 0.0827,-0.1042 0.2329,-0.1225 0.3371,-0.0398 0.1041,0.0827 0.1225,0.2329 0.0398,0.337 -0.1134,0.1441 -2.4483,3.0918 -4.679,3.0948 z" fill="#62c283"></path></g><path id="Vector_6" d="m 31.5607,42.0892 c -0.5944,0 -1.2195,-0.1012 -1.8385,-0.3095 -0.1256,-0.0429 -0.193,-0.1777 -0.1501,-0.3034 0.0429,-0.1256 0.1777,-0.193 0.3033,-0.1501 1.9856,0.6741 4.0294,0.1226 4.6545,-1.2563 0.0551,-0.1195 0.1961,-0.1747 0.3156,-0.1195 0.1195,0.0551 0.1746,0.1961 0.1195,0.3156 -0.5209,1.1552 -1.8661,1.8232 -3.4043,1.8232 z" fill="#171b65"></path></g><g id="Group_5"><path id="Vector_7" d="m 34.4808,37.8331 c 0.1625,0 0.2942,-0.1317 0.2942,-0.2942 0,-0.1624 -0.1317,-0.2941 -0.2942,-0.2941 -0.1624,0 -0.2941,0.1317 -0.2941,0.2941 0,0.1625 0.1317,0.2942 0.2941,0.2942 z" fill="#171b65"></path><path id="Vector_8" d="m 30.9479,38.7952 c 0.1624,0 0.2941,-0.1317 0.2941,-0.2941 0,-0.1625 -0.1317,-0.2942 -0.2941,-0.2942 -0.1625,0 -0.2942,0.1317 -0.2942,0.2942 0,0.1624 0.1317,0.2941 0.2942,0.2941 z" fill="#171b65"></path></g><path id="Vector_9" d="m 35.5349,32.3636 c -0.0643,0 -0.1287,-0.0246 -0.1747,-0.0766 -1.4125,-1.5076 -3.4042,-2.3686 -5.4695,-2.3686 -0.1317,0 -0.239,-0.1073 -0.239,-0.239 0,-0.1318 0.1073,-0.239 0.239,-0.239 2.194,0 4.3144,0.9192 5.8158,2.5218 0.0919,0.0949 0.0858,0.2481 -0.0123,0.337 -0.0459,0.0429 -0.1041,0.0644 -0.1624,0.0644 z" fill="#62c283"></path><path id="Vector_10" d="m 22.1599,37.6492 c -0.1318,0 -0.239,-0.1072 -0.239,-0.239 0,-4.394 3.5758,-7.9698 7.9698,-7.9698 0.1318,0 0.239,0.1072 0.239,0.239 0,0.1317 -0.1072,0.239 -0.239,0.239 -4.1305,0 -7.4918,3.3613 -7.4918,7.4918 0,0.1318 -0.1073,0.239 -0.239,0.239 z" fill="#62c283"></path><path id="Vector_11" d="m 23.1128,41.3721 c -0.0858,0 -0.1654,-0.0459 -0.2083,-0.1225 -0.6435,-1.1675 -0.9836,-2.4973 -0.9836,-3.8394 0,-0.1318 0.1072,-0.239 0.239,-0.239 0.1317,0 0.239,0.1072 0.239,0.239 0,1.2624 0.3186,2.5095 0.9223,3.6065 0.0643,0.1164 0.0214,0.2605 -0.095,0.3248 -0.0368,0.0215 -0.0766,0.0306 -0.1164,0.0306 z" fill="#62c283"></path></g><g id="Group_6"><g id="Group_7"><path id="Vector_12" d="m 47.7793,41.5009 c -0.092,0 -0.187,-0.0123 -0.2789,-0.0399 -0.2512,-0.0735 -0.4596,-0.2421 -0.5883,-0.4719 -0.1256,-0.2298 -0.1532,-0.4964 -0.0797,-0.7507 0.0368,-0.1256 0.1686,-0.1992 0.2973,-0.1624 0.1256,0.0368 0.1991,0.1716 0.1624,0.2972 -0.0368,0.1287 -0.0246,0.2666 0.0398,0.3861 0.0643,0.1195 0.1716,0.2053 0.3033,0.2421 0.1287,0.0398 0.2666,0.0245 0.3861,-0.0398 0.1195,-0.0644 0.2053,-0.1716 0.2421,-0.3003 0.0368,-0.1257 0.1685,-0.1992 0.2972,-0.1624 0.1256,0.0367 0.1992,0.1716 0.1624,0.2972 -0.0735,0.2513 -0.2421,0.4596 -0.4719,0.5883 -0.147,0.0797 -0.3064,0.1195 -0.4718,0.1195 z" fill="#171b65"></path><g id="Group_8"><path id="Vector_13" d="m 46.6118,36.8464 c 0.1692,0 0.3064,-0.1372 0.3064,-0.3064 0,-0.1692 -0.1372,-0.3064 -0.3064,-0.3064 -0.1692,0 -0.3064,0.1372 -0.3064,0.3064 0,0.1692 0.1372,0.3064 0.3064,0.3064 z" fill="#171b65"></path><path id="Vector_14" d="m 50.6044,37.542 c 0,0.1685 -0.1379,0.3064 -0.3064,0.3064 -0.1685,0 -0.3064,-0.1379 -0.3064,-0.3064 0,-0.1686 0.1379,-0.3064 0.3064,-0.3064 0.1685,0 0.3064,0.1378 0.3064,0.3064 z" fill="#171b65"></path></g><path id="Vector_15" d="m 48.674,39.6041 c -0.0337,0 -0.0674,-0.0061 -0.098,-0.0214 L 47.3013,38.9974 C 47.1848,38.9453 47.1327,38.8105 47.1787,38.691 l 0.8212,-2.0438 c 0.049,-0.1225 0.19,-0.1807 0.3125,-0.1317 0.1226,0.049 0.1808,0.19 0.1318,0.3125 l -0.7354,1.8324 1.0663,0.4902 c 0.1195,0.0552 0.1716,0.1962 0.1165,0.3187 -0.0399,0.0889 -0.1257,0.141 -0.2176,0.141 z" fill="#171b65"></path></g><g id="Group_9"><g id="Group_10"><path id="Vector_16" d="m 51.3398,44.6232 c -4.5319,0 -8.2181,-3.6861 -8.2181,-8.218 0,-1.5903 0.4566,-3.1346 1.3176,-4.4645 0.0705,-0.1103 0.2206,-0.144 0.3309,-0.0705 0.1103,0.0705 0.144,0.2207 0.0705,0.331 -0.812,1.2532 -1.241,2.7056 -1.241,4.204 0,4.2683 3.4717,7.737 7.737,7.737 2.8405,0 5.4481,-1.5505 6.8055,-4.0508 0.0643,-0.1165 0.2083,-0.1594 0.3248,-0.095 0.1164,0.0643 0.1593,0.2083 0.095,0.3248 -1.4402,2.6535 -4.2102,4.299 -7.2253,4.299 z" fill="#171b65"></path><path id="Vector_17" d="m 58.2831,40.5755 c -0.0367,0 -0.0735,-0.0092 -0.1072,-0.0245 -2.3042,-1.1644 -1.431,-3.9834 -1.4218,-4.0141 0.0031,-0.0122 0.0092,-0.0214 0.0123,-0.0337 0.1746,-0.3554 0.2084,-0.6588 0.0858,-0.8334 -0.0858,-0.1226 -0.2298,-0.1563 -0.3309,-0.1471 -0.0583,0.0061 -0.1992,0.0368 -0.2605,0.1839 -0.4351,1.0203 -1.0357,1.2317 -1.4524,1.0908 -0.3646,-0.1226 -0.5761,-0.5117 -0.4811,-0.8855 0.0215,-0.0797 0.0582,-0.19 0.1042,-0.3218 0.1808,-0.5056 0.4811,-1.3543 0.1747,-1.8998 -0.1471,-0.2604 -0.4168,-0.4289 -0.8304,-0.5147 -0.4106,-0.0858 -1.2073,0.0735 -2.1296,0.2604 -2.292,0.4627 -5.4297,1.097 -7.0261,-1.0694 -0.9101,-1.2348 -0.4749,-3.1009 -0.1348,-4.1029 0.4014,-1.1797 1.2593,-2.2889 2.4176,-3.1193 0.6833,-0.4902 1.3084,-0.7568 1.9151,-0.8212 0.7967,-0.0827 1.5719,0.2298 1.9794,0.7967 0.2298,0.3187 0.3432,0.7477 0.3095,1.1491 0.1839,-0.0766 0.3708,-0.1257 0.5607,-0.141 0.6006,-0.049 1.192,0.239 1.4678,0.7232 0.3278,0.5668 0.2083,1.1735 0.0459,1.7956 -0.0337,0.1286 -0.1654,0.2053 -0.2911,0.1715 -0.1287,-0.0337 -0.2053,-0.1624 -0.1716,-0.291 0.141,-0.5424 0.2391,-1.0235 0,-1.4341 -0.1838,-0.3186 -0.6036,-0.5178 -1.0142,-0.4841 -0.2972,0.0245 -0.5975,0.1593 -0.8549,0.3738 -0.0766,0.1042 -0.1685,0.1931 -0.2727,0.2666 -0.098,0.0674 -0.2329,0.0521 -0.3125,-0.0368 -0.0797,-0.0888 -0.0828,-0.2237 -0.0031,-0.3156 0.0735,-0.0858 0.1501,-0.1654 0.2329,-0.239 0.0705,-0.1103 0.1042,-0.2298 0.1225,-0.3278 0.0552,-0.3157 -0.0245,-0.6742 -0.2083,-0.9315 -0.3064,-0.429 -0.9101,-0.665 -1.5382,-0.5976 -0.5209,0.0552 -1.0725,0.2942 -1.6853,0.7354 -1.0786,0.7722 -1.8753,1.7987 -2.246,2.8865 -0.2513,0.7354 -0.7446,2.5647 0.0674,3.6647 1.4156,1.9212 4.3817,1.3206 6.5481,0.8855 1.0142,-0.2053 1.817,-0.3677 2.3226,-0.2604 0.5485,0.1164 0.9346,0.3677 1.1491,0.7507 0.4105,0.7323 0.0674,1.7098 -0.141,2.292 -0.0398,0.1164 -0.0766,0.2114 -0.0919,0.2788 -0.0337,0.1318 0.0398,0.2697 0.1716,0.3126 0.2206,0.0735 0.5699,-0.1532 0.8579,-0.8274 0.1134,-0.2665 0.3555,-0.4412 0.6527,-0.4718 0.3064,-0.0307 0.6036,0.1041 0.7752,0.3493 0.1287,0.1869 0.2972,0.6067 -0.0429,1.3022 -0.0705,0.2299 -0.6925,2.4759 1.1859,3.4227 0.1195,0.0582 0.1654,0.2022 0.1041,0.3217 -0.0429,0.0828 -0.1256,0.1318 -0.2145,0.1318 z" fill="#62c283"></path></g><path id="Vector_18" d="m 58.3536,40.4468 c -0.0398,0 -0.0766,-0.0092 -0.1133,-0.0276 -0.1165,-0.0643 -0.1594,-0.2083 -0.095,-0.3248 0.6097,-1.1245 0.9345,-2.3992 0.9345,-3.6892 0,-3.6586 -2.5984,-6.8484 -6.1742,-7.5807 -0.1287,-0.0276 -0.2115,-0.1532 -0.1869,-0.2819 0.0275,-0.1287 0.1501,-0.2145 0.2819,-0.1869 3.7995,0.7783 6.5572,4.1641 6.5572,8.0495 0,1.3666 -0.3431,2.7209 -0.9927,3.916 -0.0429,0.0796 -0.1257,0.1256 -0.2115,0.1256 z" fill="#62c283"></path></g></g><g id="Group_11"><g id="Group_12"><path id="Vector_19" d="m 39.7788,62 c -2.6076,0 -5.0589,-1.2747 -6.5542,-3.4104 -0.0521,-0.0735 -0.0583,-0.1685 -0.0154,-0.2482 0.0399,-0.0735 0.1134,-0.1226 0.1961,-0.1287 0.1257,-0.0245 0.2513,0.0552 0.2789,0.1777 0,0.0092 0.003,0.0154 0.003,0.0215 1.4126,1.9457 3.6801,3.107 6.0916,3.107 4.1519,0 7.5286,-3.3767 7.5286,-7.5286 0,-1.6914 -0.5761,-3.343 -1.6209,-4.6636 H 45.6803 C 45.5608,49.2685 45.5087,49.1275 45.5639,49.008 l 0.0122,-0.0276 c 0.0337,-0.0735 0.1042,-0.1256 0.187,-0.1379 0.0827,-0.0091 0.1624,0.0215 0.2144,0.0858 1.1644,1.4218 1.8079,3.2205 1.8079,5.0651 0,4.4154 -3.5912,8.0066 -8.0066,8.0066 z" fill="#171b65"></path><g id="Group_13"><path id="Vector_20" d="m 42.2668,56.4692 c -0.0949,0 -0.1838,-0.0551 -0.2206,-0.1501 -0.049,-0.1226 0.0092,-0.2635 0.1318,-0.3126 l 1.0418,-0.4259 -0.6312,-1.7864 c -0.0429,-0.1256 0.0214,-0.2604 0.1471,-0.3064 0.1256,-0.0429 0.2604,0.0214 0.3064,0.1471 l 0.7078,2.0009 c 0.0429,0.1195 -0.0153,0.2543 -0.1348,0.3003 l -1.2533,0.5117 c -0.0306,0.0122 -0.0612,0.0183 -0.0919,0.0183 z" fill="#171b65"></path><path id="Vector_21" d="m 41.51,58.0043 c -0.6649,0 -1.3697,-0.1286 -2.0591,-0.3952 -0.1226,-0.0491 -0.1838,-0.1869 -0.1379,-0.3095 0.049,-0.1226 0.1869,-0.1839 0.3095,-0.1379 1.9641,0.763 4.0416,0.2972 4.7249,-1.0602 0.0582,-0.1164 0.2023,-0.1655 0.3218,-0.1072 0.1195,0.0582 0.1654,0.2022 0.1072,0.3217 -0.5454,1.0816 -1.817,1.6853 -3.2694,1.6853 z" fill="#171b65"></path><g id="Group_14"><path id="Vector_22" d="m 44.2708,53.7574 c 0.1608,0 0.2911,-0.1303 0.2911,-0.2911 0,-0.1607 -0.1303,-0.291 -0.2911,-0.291 -0.1608,0 -0.2911,0.1303 -0.2911,0.291 0,0.1608 0.1303,0.2911 0.2911,0.2911 z" fill="#171b65"></path><path id="Vector_23" d="m 40.7807,54.7104 c 0.1608,0 0.2911,-0.1303 0.2911,-0.2911 0,-0.1608 -0.1303,-0.2911 -0.2911,-0.2911 -0.1607,0 -0.291,0.1303 -0.291,0.2911 0,0.1608 0.1303,0.2911 0.291,0.2911 z" fill="#171b65"></path></g></g></g><path id="Vector_24" d="m 33.4206,58.6907 c -0.0766,0 -0.1501,-0.0367 -0.1961,-0.1011 -0.9499,-1.3513 -1.4524,-2.9385 -1.4524,-4.5962 0,-4.4155 3.5912,-8.0066 8.0067,-8.0066 2.4084,0 4.6697,1.0724 6.1987,2.9416 0.0582,0.0704 0.0705,0.1685 0.0337,0.2512 l -0.0122,0.0276 c -0.6435,1.4647 -1.6179,2.4237 -2.8987,2.8527 -2.1296,0.7109 -4.4522,-0.2512 -5.2489,-0.6404 -1.0204,4.4614 -2.482,6.9035 -4.345,7.262 0,0 -0.0367,0.0092 -0.0796,0.0092 z m 6.3582,-12.2259 c -4.152,0 -7.5287,3.3767 -7.5287,7.5286 0,1.5045 0.4413,2.9508 1.2747,4.1918 1.6332,-0.429 2.9814,-2.8987 3.9191,-7.1702 0.0153,-0.0735 0.0674,-0.1348 0.1348,-0.1654 0.0674,-0.0307 0.1501,-0.0276 0.2145,0.0092 0.0276,0.0153 2.7884,1.5382 5.1508,0.7476 1.1154,-0.3738 1.9795,-1.2103 2.5647,-2.4881 -1.4371,-1.6883 -3.5176,-2.6535 -5.733,-2.6535 z" fill="#a5f0bd"></path></g></g></g></svg> 